<?xml version="1.0" encoding="utf-8"?>
<!-- Generator: Adobe Illustrator 15.1.0, SVG Export Plug-In . SVG Version: 6.00 Build 0)  -->
<!DOCTYPE svg PUBLIC "-//W3C//DTD SVG 1.1//EN" "http://www.w3.org/Graphics/SVG/1.1/DTD/svg11.dtd">
<svg version="1.1" id="Icons" xmlns="http://www.w3.org/2000/svg" xmlns:xlink="http://www.w3.org/1999/xlink" x="0px" y="0px"
	 width="120px" height="120px" viewBox="0 0 120 120" style="enable-background:new 0 0 120 120;" xml:space="preserve">
<style type="text/css">
<![CDATA[
	.st0{fill-rule:evenodd;clip-rule:evenodd;fill:#5091CD;}
	.st1{fill-rule:evenodd;clip-rule:evenodd;fill:#FFFFFF;}
	.st2{fill-rule:evenodd;clip-rule:evenodd;fill:#0075CC;}
]]>
</style>
<g>
	<g>
		<path class="st0" d="M60,120c33,0,60-27,60-60c0-33-27-60-60-60S0,27,0,60C0,93,27,120,60,120z"/>
	</g>
	<path class="st2" d="M38.5,83.3l-7-17.2l2.6-20.8l13.5-11.8l18.6-2.7l17.1,7.6l35.1,35.1c-5.2,22.1-22.7,39.6-44.8,44.8L38.5,83.3z
		"/>
	<path class="st1" d="M60,28.3c17.5,0,31.7,14.2,31.7,31.7S77.5,91.7,60,91.7c-17.5,0-31.7-14.2-31.7-31.7S42.5,28.3,60,28.3
		L60,28.3z M59.2,62.4l15.3,5.9c1.1,0.4,2.3-0.1,2.7-1.2c0.4-1.1-0.1-2.3-1.2-2.7l-13.2-5.1V45.9c0-1.5-1.3-2.8-2.8-2.8
		s-2.8,1.3-2.8,2.8v13.8C57.2,61,58,62,59.2,62.4L59.2,62.4z M60,35.1c-13.8,0-24.9,11.2-24.9,24.9S46.2,84.9,60,84.9
		c13.8,0,24.9-11.2,24.9-24.9S73.8,35.1,60,35.1z"/>
</g>
</svg>
