<?xml version="1.0" encoding="utf-8"?>
<!-- Generator: Adobe Illustrator 15.1.0, SVG Export Plug-In . SVG Version: 6.00 Build 0)  -->
<!DOCTYPE svg PUBLIC "-//W3C//DTD SVG 1.1//EN" "http://www.w3.org/Graphics/SVG/1.1/DTD/svg11.dtd">
<svg version="1.1" xmlns="http://www.w3.org/2000/svg" xmlns:xlink="http://www.w3.org/1999/xlink" x="0px" y="0px" width="120px"
	 height="120px" viewBox="0 0 120 120" style="enable-background:new 0 0 120 120;" xml:space="preserve">
<style type="text/css">
<![CDATA[
	.st0{fill-rule:evenodd;clip-rule:evenodd;fill:#5091CD;}
	.st1{fill:#FFFFFF;}
	.st2{fill-rule:evenodd;clip-rule:evenodd;fill:#0075CC;}
]]>
</style>
<g id="Layer_1">
</g>
<g id="Layer_4">
</g>
<g id="Layer_3">
</g>
<g id="Icons">
	<g>
		<g>
			<path class="st0" d="M60,120c33,0,60-27,60-60c0-33-27-60-60-60C27,0,0,27,0,60C0,93,27,120,60,120z"/>
		</g>
		<path class="st2" d="M119.4,68.8L86.2,35.6h-15l-19.7,9L35.2,63.4l-2.5,25.4l31.1,31.1C92.1,118.1,115.3,96.5,119.4,68.8z"/>
		<path class="st1" d="M78.9,29.8c-4.4-2.8-8.6-3.8-12.8-6.6c-2.6-1.8-6.2-5.9-9.2-9.5c-0.6,5.8-2.3,8.1-4.3,9.8
			c-4.3,3.3-6.9,4.3-10.6,6.3C38.9,31.4,22.1,41.4,22.1,63c0,21.6,18.1,37.4,38.3,37.4c20.1,0,37.6-14.6,37.6-36.8
			C97.9,41.5,81.6,31.5,78.9,29.8z M79.3,92.5c-0.4,0.4-4.3,3.1-8.8,3.5c-4.5,0.4-10.6,0.7-14.3-2.7c-0.6-0.6-0.4-1.4,0-1.8
			c0.4-0.3,0.8-0.6,1.3-0.6c0.5,0,0.4,0,0.7,0.2c1.7,1.3,4.2,2.4,9.5,2.4c5.3,0,9.1-1.5,10.8-2.8c0.8-0.6,1.1-0.1,1.2,0.3
			C79.8,91.5,79.9,92,79.3,92.5z M64.7,84.9c0.9-0.8,2.4-2.2,3.8-2.8c1.4-0.6,2.2-0.5,3.5-0.5c1.3,0,2.8,0.1,3.8,0.8
			c1,0.7,1.6,2.2,1.9,3c0.3,0.8,0,1.3-0.7,1.7c-0.6,0.3-0.7,0.2-1.3-0.9c-0.6-1.1-1.1-2.2-4-2.2c-2.9,0-3.8,1-5.3,2.2
			c-1.4,1.2-1.9,1.6-2.4,0.9C63.6,86.4,63.8,85.8,64.7,84.9z M86.9,85.6c-3-0.2-9-9.6-12.9-9.8c-4.8-0.2-15.4,10.1-23.6,10.1
			c-5,0-6.5-0.8-8.2-1.8c-2.5-1.8-3.8-4.4-3.7-8.1c0.1-6.5,6.2-12.6,13.9-12.7c9.8-0.1,16.5,9.7,21.5,9.6C78,72.8,86,64.6,90,64.6
			c4.2,0,5.3,4.3,5.3,6.9s-0.8,7.3-2.8,10.2C90.5,84.7,89.2,85.8,86.9,85.6z"/>
	</g>
</g>
</svg>
