<?xml version="1.0" encoding="utf-8"?>
<!-- Generator: Adobe Illustrator 15.1.0, SVG Export Plug-In . SVG Version: 6.00 Build 0)  -->
<!DOCTYPE svg PUBLIC "-//W3C//DTD SVG 1.1//EN" "http://www.w3.org/Graphics/SVG/1.1/DTD/svg11.dtd">
<svg version="1.1" id="Layer_1" xmlns="http://www.w3.org/2000/svg" xmlns:xlink="http://www.w3.org/1999/xlink" x="0px" y="0px"
	 width="120px" height="120px" viewBox="0 0 120 120" style="enable-background:new 0 0 120 120;" xml:space="preserve">
<style type="text/css">
<![CDATA[
	.st0{fill:#5091CD;}
]]>
</style>
<g id="Layer_1_1_">
</g>
<g id="Layer_4">
</g>
<g id="Layer_3">
</g>
<g>
	<path class="st0" d="M60,2c32,0,58,26,58,58s-26,58-58,58S2,92,2,60S28,2,60,2 M60,0C27,0,0,27,0,60s27,60,60,60s60-27,60-60
		S93,0,60,0L60,0z"/>
</g>
<path class="st0" d="M81.5,97.3h-43c-1.8,0-3.6-0.8-4.8-2.2c-1-1.2-1.4-2.6-1.2-4l1.6-13.9C35.7,66.7,46.8,58.8,60,58.8
	c6.6,0,12.9,2,17.8,5.5c4.4,3.3,7.3,7.8,8.1,12.7l1.7,14.1c0.1,1.5-0.4,3-1.4,4.1C85,96.6,83.3,97.3,81.5,97.3z M60,60.8
	c-12.2,0-22.5,7.2-23.9,16.7l-1.6,13.9c-0.2,1.1,0.3,2,0.8,2.5c0.8,0.9,2.1,1.5,3.3,1.5h43c1.2,0,2.4-0.5,3.2-1.4
	c0.7-0.7,1-1.6,0.9-2.6l-1.7-14.1c-0.7-4.4-3.3-8.5-7.3-11.4C72.1,62.6,66.2,60.8,60,60.8z M60,54.6c-9,0-16-7-16-16
	c0-8.8,7.2-16,16-16s16,7.2,16,16C76,47.4,68.8,54.6,60,54.6z M60,24.6c-7.7,0-14,6.3-14,14c0,7.9,6.2,14,14,14c7.7,0,14-6.3,14-14
	C74,30.9,67.7,24.6,60,24.6z"/>
</svg>
