<?xml version="1.0" encoding="utf-8"?>
<!-- Generator: Adobe Illustrator 15.1.0, SVG Export Plug-In . SVG Version: 6.00 Build 0)  -->
<!DOCTYPE svg PUBLIC "-//W3C//DTD SVG 1.1//EN" "http://www.w3.org/Graphics/SVG/1.1/DTD/svg11.dtd">
<svg version="1.1" id="Icons" xmlns="http://www.w3.org/2000/svg" xmlns:xlink="http://www.w3.org/1999/xlink" x="0px" y="0px"
	 width="120px" height="120px" viewBox="0 0 120 120" style="enable-background:new 0 0 120 120;" xml:space="preserve">
<style type="text/css">
<![CDATA[
	.st0{fill-rule:evenodd;clip-rule:evenodd;fill:#5091CD;}
	.st1{fill-rule:evenodd;clip-rule:evenodd;fill:#FFFFFF;}
	.st2{fill-rule:evenodd;clip-rule:evenodd;fill:#0075CC;}
]]>
</style>
<g>
	<g>
		<path class="st0" d="M60,120c33,0,60-27,60-60c0-33-27-60-60-60S0,27,0,60C0,93,27,120,60,120z"/>
	</g>
	<path class="st2" d="M29.2,56.2l9.1-9l11.4,11.4l14.4-2.9l-8.6-8.6l9.1-9l17.1,17.1l9.2-8.1l27.3,27.3C111.8,100.5,88.1,120,60,120
		c-0.2,0-0.5,0-0.7,0L22.7,83.5l5.6-2.3l-5.5-5.5l13.1-12.8L29.2,56.2z"/>
	<path class="st1" d="M23.9,79.1H37c1.4,1.1,3.1,2.1,5.1,2.9c0.8,0.3,1.6,0.6,2.4,0.9c-0.3,0.6-0.8,0.9-1.5,0.9H23.9
		c-0.9,0-1.6-0.7-1.6-1.6v-1.5C22.3,79.9,23,79.1,23.9,79.1L23.9,79.1z M60,61.9c-12.8,0-23.2,4.4-23.2,9.8c0,5.4,10.4,9.8,23.2,9.8
		c12.8,0,23.2-4.4,23.2-9.8C83.2,66.2,72.8,61.9,60,61.9L60,61.9z M33.6,45.1c3.5,0,6.4,2.9,6.4,6.4c0,3.5-2.9,6.4-6.4,6.4
		c-3.5,0-6.4-2.9-6.4-6.4C27.2,48,30.1,45.1,33.6,45.1L33.6,45.1z M34.4,76.4h-10c-1.2,0-2.3-1-2.2-2.2l0.7-6
		c0.6-4.3,5.1-7.5,10.6-7.5c2.4,0,4.5,0.6,6.3,1.6c-4.4,2.4-7,5.6-7,9.4C32.9,73.3,33.5,74.9,34.4,76.4L34.4,76.4z M86.4,45.1
		c3.5,0,6.4,2.9,6.4,6.4c0,3.5-2.9,6.4-6.4,6.4c-3.5,0-6.4-2.9-6.4-6.4C80,48,82.8,45.1,86.4,45.1L86.4,45.1z M97,68.1l0.7,6.1
		c0.1,1.2-1,2.2-2.2,2.2h-10c1-1.5,1.5-3,1.5-4.7c0-3.8-2.6-7.1-7-9.4c1.8-1,3.9-1.6,6.3-1.6c2.8,0,5.4,0.9,7.3,2.3
		C95.5,64.2,96.7,66,97,68.1L97,68.1z M60,36.1c3.5,0,6.4,2.9,6.4,6.4c0,3.5-2.9,6.4-6.4,6.4c-3.5,0-6.4-2.9-6.4-6.4
		C53.6,38.9,56.5,36.1,60,36.1L60,36.1z M49.4,59c0.6-4.2,5.2-7.5,10.6-7.5c2.8,0,5.4,0.9,7.3,2.3c1.8,1.3,3,3.1,3.3,5.2
		c-3.3-0.6-6.9-1-10.6-1S52.6,58.4,49.4,59L49.4,59z M83,79.1h13.1c0.9,0,1.6,0.7,1.6,1.6v1.5c0,0.9-0.7,1.6-1.6,1.6H76.9
		c-0.7,0-1.2-0.4-1.5-0.9c0.8-0.3,1.7-0.6,2.4-0.9C79.9,81.3,81.6,80.3,83,79.1z"/>
</g>
</svg>
