<?xml version="1.0" encoding="utf-8"?>
<!-- Generator: Adobe Illustrator 15.1.0, SVG Export Plug-In . SVG Version: 6.00 Build 0)  -->
<!DOCTYPE svg PUBLIC "-//W3C//DTD SVG 1.1//EN" "http://www.w3.org/Graphics/SVG/1.1/DTD/svg11.dtd">
<svg version="1.1" id="Icons" xmlns="http://www.w3.org/2000/svg" xmlns:xlink="http://www.w3.org/1999/xlink" x="0px" y="0px"
	 width="120px" height="120px" viewBox="0 0 120 120" style="enable-background:new 0 0 120 120;" xml:space="preserve">
<style type="text/css">
<![CDATA[
	.st0{fill-rule:evenodd;clip-rule:evenodd;fill:#5091CD;}
	.st1{fill-rule:evenodd;clip-rule:evenodd;fill:#FFFFFF;}
	.st2{fill-rule:evenodd;clip-rule:evenodd;fill:#0075CC;}
]]>
</style>
<g>
	<g>
		<path class="st0" d="M60,120c33,0,60-27,60-60S93,0,60,0S0,27,0,60S27,120,60,120z"/>
	</g>
	<path class="st2" d="M73.3,30l44.9,44.9c-6,23.5-26,41.5-50.6,44.6L41.1,93.1l21.6-20.6L46.8,56.5l4.5-2.7l-9.6-9.6l6.1-2l3.7,3.7
		l2.4-6.7L49.7,35l2.1-2l4.7,4.7l7.7-1.4L59,31.2l2.1-6.1l8.6,8.6L73.3,30z"/>
	<path class="st1" d="M78.7,79.7l1.3,10.6c0.2,2.1-1.7,3.8-3.8,3.8H43.9c-2.1,0-4.1-1.7-3.8-3.8l1.3-10.6c1.1-7.5,9-13.2,18.7-13.2
		c5,0,9.5,1.5,12.9,4C76,72.9,78.1,76.1,78.7,79.7L78.7,79.7z M61.4,26c0-0.8-0.6-1.4-1.4-1.4c-0.8,0-1.4,0.6-1.4,1.4v4.1
		c0,0.8,0.6,1.4,1.4,1.4c0.8,0,1.4-0.6,1.4-1.4V26L61.4,26z M48.8,30c-0.6-0.6-1.5-0.6-2,0c-0.6,0.6-0.6,1.5,0,2l2.9,2.9
		c0.6,0.6,1.5,0.6,2,0c0.6-0.6,0.6-1.5,0-2L48.8,30L48.8,30z M73.2,32c0.6-0.6,0.6-1.5,0-2c-0.6-0.6-1.5-0.6-2,0l-2.9,2.9
		c-0.6,0.6-0.6,1.5,0,2c0.6,0.6,1.5,0.6,2,0L73.2,32L73.2,32z M46.8,54.5c-0.6,0.6-0.6,1.5,0,2c0.6,0.6,1.5,0.6,2,0l2.9-2.9
		c0.6-0.6,0.6-1.5,0-2c-0.6-0.6-1.5-0.6-2,0L46.8,54.5L46.8,54.5z M71.2,56.5c0.6,0.6,1.5,0.6,2,0c0.6-0.6,0.6-1.5,0-2l-2.9-2.9
		c-0.6-0.6-1.5-0.6-2,0c-0.6,0.6-0.6,1.5,0,2L71.2,56.5L71.2,56.5z M42.7,41.8c-0.8,0-1.4,0.6-1.4,1.4c0,0.8,0.6,1.4,1.4,1.4h4.1
		c0.8,0,1.4-0.6,1.4-1.4c0-0.8-0.6-1.4-1.4-1.4H42.7L42.7,41.8z M73.2,41.8c-0.8,0-1.4,0.6-1.4,1.4c0,0.8,0.6,1.4,1.4,1.4h4.1
		c0.8,0,1.4-0.6,1.4-1.4c0-0.8-0.6-1.4-1.4-1.4H73.2L73.2,41.8z M60,56.3h-0.7v-3v0h0c0-0.7,0-1.3-0.1-1.9c-0.1-0.6-0.2-1.2-0.4-1.8
		c0,0,0,0,0,0l0,0l-1.4-5.2H60h2.6l-1.4,5.2l0,0l0.6,0.2l-0.6-0.2c-0.2,0.7-0.3,1.3-0.4,1.9c-0.1,0.6-0.1,1.2-0.1,1.8c0,0,0,0,0,0.1
		v3H60L60,56.3z M58,56.3h-0.7c-0.8,0-1-0.3-1.3-1c-1.9-4.6-5.9-8.8-5.2-13.8c0.7-4.4,4.6-7.6,9.2-7.6c4.6,0,8.6,3.2,9.2,7.6
		c0.7,5-3.3,9.2-5.2,13.8c-0.3,0.7-0.6,1-1.3,1H62v-3c0,0,0,0,0-0.1c0-0.6,0-1.1,0.1-1.6c0.1-0.5,0.2-1.1,0.4-1.7h0v0h0l0,0l1.6-6
		l0,0c0.1-0.3-0.1-0.7-0.4-0.8c-0.1,0-0.1,0-0.2,0h0H60h-3.5c-0.4,0-0.6,0.3-0.6,0.6c0,0.1,0,0.1,0,0.2l1.6,6h0v0l0,0l0,0
		c0.2,0.6,0.3,1.1,0.3,1.7c0.1,0.5,0.1,1.1,0.1,1.7h0v0V56.3L58,56.3z M63.3,57.9c0,0.1,0,0.2,0,0.2v2.9c0,0.8-0.7,1.5-1.5,1.5h-3.7
		c-0.8,0-1.5-0.7-1.5-1.5v-2.9c0-0.1,0-0.2,0-0.2c0.2,0,0.3,0,0.5,0l0,0H60h2.7l0,0C62.9,58,63.1,58,63.3,57.9z"/>
</g>
</svg>
