<?xml version="1.0" encoding="utf-8"?>
<!-- Generator: Adobe Illustrator 15.1.0, SVG Export Plug-In . SVG Version: 6.00 Build 0)  -->
<!DOCTYPE svg PUBLIC "-//W3C//DTD SVG 1.1//EN" "http://www.w3.org/Graphics/SVG/1.1/DTD/svg11.dtd">
<svg version="1.1" id="Icons" xmlns="http://www.w3.org/2000/svg" xmlns:xlink="http://www.w3.org/1999/xlink" x="0px" y="0px"
	 width="120px" height="120px" viewBox="0 0 120 120" style="enable-background:new 0 0 120 120;" xml:space="preserve">
<style type="text/css">
<![CDATA[
	.st0{fill-rule:evenodd;clip-rule:evenodd;fill:#5091CD;}
	.st1{fill-rule:evenodd;clip-rule:evenodd;fill:#FFFFFF;}
	.st2{fill-rule:evenodd;clip-rule:evenodd;fill:#0075CC;}
]]>
</style>
<g>
	<g>
		<path class="st0" d="M60,120c33,0,60-27,60-60c0-33-27-60-60-60C27,0,0,27,0,60C0,93,27,120,60,120z"/>
	</g>
	<path class="st2" d="M67.8,21.1l51,51C113.3,98.8,90,119,62,120l-19.5-19.5l3-9.3L35.4,81.1l14.4-3.4l-8-8l3.6-11.7l5.5-10.3
		l9.5-3.2l-8-8L67.8,21.1z"/>
	<path class="st1" d="M60,17.9c6,0,10.9,4.9,10.9,10.9c0,6-4.9,10.9-10.9,10.9c-6,0-10.9-4.9-10.9-10.9C49.1,22.7,54,17.9,60,17.9
		L60,17.9z M60,101.5H45.5c-2.4,0-3.6-1.4-4.1-3.1l-2.4-8.6c-0.5-1.9,0.6-3.4,2.7-3.4H60h18.3c2.1,0,3.3,1.6,2.7,3.4l-2.4,8.6
		c-0.5,1.8-1.7,3.1-4.1,3.1H60L60,101.5z M55.1,57.3c0-1-1.5-1-1.5,0v0.2c-0.2,0-0.4,0.2-0.4,0.4v1.1c0,0.2,0.2,0.4,0.4,0.4v3.6
		c0,1.1,0.5,2,1.5,2.5c2.7,1.4,7,1.3,9.7,0c1-0.5,1.4-1.4,1.4-2.5v-3.6c0.2,0,0.4-0.2,0.4-0.4V58c0-0.2-0.2-0.4-0.4-0.4v-0.2
		c0-1-1.5-1-1.5,0v5.8c0,0.5-0.2,0.9-0.6,1.2c-2.3,1.2-6,1.1-8.4,0c-0.5-0.3-0.7-0.7-0.7-1.2V57.3L55.1,57.3z M54.9,73.8
		c-0.8,0-1.5,0.7-1.5,1.5c0,0.8,0.7,1.5,1.5,1.5h10.2c0.8,0,1.5-0.7,1.5-1.5c0-0.8-0.7-1.5-1.5-1.5H54.9L54.9,73.8z M61.5,71.2
		c0.3,0,0.5,0.3,0.5,0.5v1.2h-3.8v-1.2c0-0.3,0.2-0.5,0.5-0.5v-3.6c0.5,0,0.9,0.1,1.4,0.1c0.5,0,1,0,1.5-0.1V71.2L61.5,71.2z
		 M63.9,51.6v0.2h-2.8c-0.3,0-0.5,0.2-0.5,0.5c0,0.3,0.2,0.5,0.5,0.5h2.8v0.9h-2.8c-0.3,0-0.5,0.2-0.5,0.5c0,0.3,0.2,0.5,0.5,0.5
		h2.8v0.9h-2.8c-0.3,0-0.5,0.2-0.5,0.5c0,0.3,0.2,0.5,0.5,0.5h2.8v0.9h-2.8c-0.3,0-0.5,0.2-0.5,0.5c0,0.3,0.2,0.5,0.5,0.5h2.8v0.9
		h-2.8c-0.3,0-0.5,0.2-0.5,0.5c0,0.3,0.2,0.5,0.5,0.5h2.8V61h-2.8c-0.3,0-0.5,0.2-0.5,0.5c0,0.3,0.2,0.5,0.5,0.5h2.8v0.2
		c0,2.8-7.8,2.8-7.8,0V62h2.8c0.3,0,0.5-0.2,0.5-0.5c0-0.3-0.2-0.5-0.5-0.5h-2.8v-0.9h2.8c0.3,0,0.5-0.2,0.5-0.5
		c0-0.3-0.2-0.5-0.5-0.5h-2.8v-0.9h2.8c0.3,0,0.5-0.2,0.5-0.5c0-0.3-0.2-0.5-0.5-0.5h-2.8v-0.9h2.8c0.3,0,0.5-0.2,0.5-0.5
		c0-0.3-0.2-0.5-0.5-0.5h-2.8v-0.9h2.8c0.3,0,0.5-0.2,0.5-0.5c0-0.3-0.2-0.5-0.5-0.5h-2.8v-0.9h2.8c0.3,0,0.5-0.2,0.5-0.5
		c0-0.3-0.2-0.5-0.5-0.5h-2.8v-0.2C56.1,48.8,63.9,48.8,63.9,51.6L63.9,51.6z M37.9,75h12.7c0,0.1,0,0.2,0,0.3
		c0,2.4,1.9,4.3,4.3,4.3h10.2c2.4,0,4.3-1.9,4.3-4.3c0-0.1,0-0.2,0-0.3h12.7c2,0,3.5,1.6,3.5,3.5s-1.6,3.5-3.5,3.5H37.9
		c-2,0-3.5-1.6-3.5-3.5S36,75,37.9,75L37.9,75z M78,56.8L79.2,67c0.2,2-1.7,3.7-3.7,3.7H64.6c-0.1-0.3-0.2-0.5-0.3-0.7v-1.1
		c2.9-0.8,4.9-2.6,4.9-5.7v-2.5c0.6-1.1,0.5-3.4-0.2-4.4c-0.3-1.1-1.2-1.9-2.3-2.3l0-2.4c0-6.6-13.5-6.6-13.5,0l0,2.4
		c-1.1,0.4-1.9,1.1-2.3,2.3c-0.7,1.1-0.8,3.3-0.2,4.4v2.5c0,3.1,2,4.9,4.9,5.8V70c-0.1,0.2-0.2,0.5-0.3,0.7H44.5c-2,0-4-1.7-3.7-3.7
		L42,56.8c1-7.2,8.7-12.8,18-12.8c4.8,0,9.2,1.5,12.4,3.9C75.4,50.2,77.5,53.3,78,56.8z"/>
</g>
</svg>
