<?xml version="1.0" encoding="utf-8"?>
<!-- Generator: Adobe Illustrator 18.1.0, SVG Export Plug-In . SVG Version: 6.00 Build 0)  -->
<svg version="1.1" xmlns="http://www.w3.org/2000/svg" xmlns:xlink="http://www.w3.org/1999/xlink" x="0px" y="0px"
	 viewBox="0 0 220 120" enable-background="new 0 0 220 120" xml:space="preserve">
<g id="Format__x2F__Guides">
</g>
<g id="Logos">
	<g>
		<path fill="#DBCE5D" d="M167,60.2c0,30.4-25.4,55.1-56.8,55.1c-31.4,0-56.8-24.7-56.8-55.1c0-30.4,25.4-55.1,56.8-55.1
			C141.5,5.1,167,29.8,167,60.2"/>
		<path fill="#630055" d="M160.5,60.2c0,26.9-22.5,48.7-50.3,48.7c-27.8,0-50.3-21.8-50.3-48.7c0-26.9,22.5-48.7,50.3-48.7
			C137.9,11.4,160.5,33.2,160.5,60.2"/>
		<rect x="59.9" y="43.5" fill="#DBCE5D" width="100.5" height="0.8"/>
		<rect x="59.9" y="74.4" fill="#DBCE5D" width="100.5" height="0.8"/>
		<path fill="#DBCE5D" d="M138.3,43.9c-5.7-9.3-16.2-15.5-28.1-15.5c-11.9,0-22.4,6.2-28.1,15.5H138.3z"/>
		<path fill="#FFFFFF" d="M145.6,58.4"/>
		<path fill="#FFFFFF" d="M146,58.6"/>
		<polygon fill="#DBCE5D" points="85.9,86.7 87,90 90.5,90 87.7,92 88.8,95.3 85.9,93.3 83.1,95.3 84.2,92 81.4,90 84.9,90 		"/>
		<polygon fill="#DBCE5D" points="134.3,86.7 135.4,90 138.9,90 136.1,92 137.1,95.3 134.3,93.3 131.5,95.3 132.6,92 129.8,90 
			133.3,90 		"/>
		<g>
			<path fill="#FFFFFF" d="M77.8,39.8l-1,1.3l-1.9-1.5l1-1.3c0.6,0.2,1.1,0.2,1.5-0.3c0.2-0.3,0.2-0.6,0-0.8
				c-0.1-0.1-0.3-0.1-0.5-0.1c-0.2,0-0.5,0.2-1,0.4c-0.6,0.3-1.1,0.5-1.4,0.6c-0.3,0.1-0.7,0.1-1,0.1c-0.4,0-0.7-0.2-1-0.4
				c-0.5-0.4-0.8-0.9-0.9-1.5c0-0.6,0.2-1.1,0.6-1.7c0.4-0.5,0.9-0.8,1.5-1l-0.4-0.3l1-1.3l1.7,1.3l-1,1.3c-0.6-0.2-1-0.1-1.4,0.3
				c-0.2,0.3-0.2,0.5,0,0.7c0.1,0.1,0.2,0.1,0.4,0.1c0.1,0,0.5-0.2,1-0.4c0.7-0.4,1.3-0.6,1.5-0.7c0.1,0,0.3-0.1,0.5-0.1
				c0.2,0,0.4,0,0.6,0c0.4,0.1,0.8,0.2,1.1,0.5c0.5,0.4,0.8,0.9,0.8,1.5c0.1,0.6-0.1,1.2-0.6,1.8c-0.4,0.5-0.9,0.9-1.6,1L77.8,39.8z
				"/>
			<path fill="#FFFFFF" d="M77.4,31.4L77,31.8l-1.2-1.3l2.9-2.5l1.2,1.3l-0.3,0.2l1.7,1.9c0.4,0.5,0.7,0.7,0.9,0.8
				c0.2,0.1,0.5,0,0.7-0.2c0.2-0.2,0.3-0.4,0.2-0.6c0-0.2-0.2-0.5-0.6-0.9l-1.8-2l-0.3,0.2l-1.2-1.3l2.1-1.9l1.2,1.3l-0.4,0.4l1.8,2
				c0.5,0.5,0.8,1,0.9,1.5c0.1,0.5,0.1,0.9-0.1,1.4c-0.2,0.5-0.5,1-1,1.4c-0.4,0.4-0.8,0.6-1.2,0.8c-0.4,0.2-0.8,0.3-1.2,0.2
				c-0.4,0-0.7-0.1-1-0.3c-0.3-0.2-0.7-0.6-1.2-1.1L77.4,31.4z"/>
			<path fill="#FFFFFF" d="M90.4,28.7l-3.8,2.2l-0.9-1.6l0.6-0.4l-1.9-3.4l-0.6,0.4l-0.9-1.6l4-2.3c0.9-0.5,1.6-0.8,2.2-0.9
				c0.5-0.1,1,0,1.4,0.2c0.4,0.2,0.7,0.5,0.9,0.9c0.3,0.5,0.4,0.9,0.3,1.3c-0.1,0.4-0.3,0.8-0.6,1.2c-0.3,0.4-0.9,0.8-1.7,1.2
				l-1,0.6l0.5,0.9l0.7-0.4L90.4,28.7z M86.9,24l0.7,1.2L88,25c0.3-0.2,0.6-0.4,0.7-0.5c0.1-0.2,0.1-0.4,0-0.6
				c-0.1-0.2-0.2-0.3-0.3-0.3c-0.1-0.1-0.3-0.1-0.4,0c-0.1,0-0.4,0.1-0.7,0.3L86.9,24z"/>
			<path fill="#FFFFFF" d="M98.4,25.4l-4.2,1.3l-0.5-1.7l0.7-0.2L93.2,21l-0.7,0.2L92,19.5l4.4-1.3c1-0.3,1.8-0.4,2.3-0.4
				c0.5,0.1,1,0.2,1.3,0.5c0.3,0.3,0.5,0.6,0.7,1c0.2,0.5,0.2,1,0,1.4c-0.2,0.4-0.4,0.8-0.8,1c-0.4,0.3-1,0.6-1.9,0.8l-1.1,0.3
				l0.3,1l0.7-0.2L98.4,25.4z M95.9,20l0.4,1.3l0.5-0.2c0.4-0.1,0.6-0.2,0.8-0.4c0.1-0.1,0.2-0.3,0.1-0.6c-0.1-0.2-0.1-0.3-0.3-0.4
				c-0.1-0.1-0.3-0.1-0.4-0.1c-0.1,0-0.4,0.1-0.7,0.2L95.9,20z"/>
			<path fill="#FFFFFF" d="M102.3,20.4c0-0.6,0.1-1.2,0.3-1.8c0.3-0.6,0.7-1.1,1.3-1.6c0.2-0.2,0.4-0.3,0.7-0.4
				c0.2-0.1,0.5-0.2,0.8-0.3c0.3-0.1,0.6-0.1,0.9-0.1c1.3-0.1,2.4,0.2,3.2,0.9c0.4,0.4,0.7,0.8,0.9,1.2c0.2,0.4,0.3,0.9,0.4,1.4
				c0.1,1-0.2,2-0.9,2.8c-0.7,0.8-1.7,1.3-3,1.4c-1.2,0.1-2.3-0.2-3.1-0.8C102.8,22.4,102.4,21.5,102.3,20.4z M105.5,20.1
				c0.1,0.8,0.2,1.4,0.4,1.7c0.2,0.3,0.4,0.4,0.8,0.4c0.3,0,0.6-0.2,0.7-0.5c0.1-0.3,0.2-0.9,0.1-1.7c-0.1-0.8-0.2-1.4-0.4-1.7
				c-0.2-0.3-0.4-0.4-0.8-0.4c-0.3,0-0.6,0.2-0.7,0.5C105.5,18.7,105.4,19.3,105.5,20.1z"/>
			<path fill="#FFFFFF" d="M115.7,24.1l-4-0.6l0.3-1.8l0.6,0.1l0.6-3.9l-0.6-0.1l0.3-1.8l4,0.6c0.4,0.1,0.7,0.1,1,0.2
				c0.3,0.1,0.6,0.1,0.8,0.2c0.2,0.1,0.4,0.1,0.6,0.2c0.5,0.2,0.9,0.5,1.2,0.9c0.3,0.4,0.4,0.9,0.3,1.4c-0.1,0.4-0.2,0.7-0.4,1
				c-0.2,0.3-0.5,0.5-0.9,0.6l0.8,1.8l0.5,0.1l-0.3,1.8l-2.7-0.4l-1.2-3.3l-0.9-0.1l-0.2,1.2l0.6,0.1L115.7,24.1z M115.9,18.2
				l-0.2,1.4l0.3,0c0.4,0.1,0.7,0.1,0.9,0.1c0.2,0,0.3-0.1,0.4-0.2c0.1-0.1,0.2-0.2,0.2-0.4c0-0.2,0-0.4-0.1-0.5
				c-0.1-0.1-0.2-0.2-0.4-0.3c-0.2,0-0.5-0.1-0.9-0.2L115.9,18.2z"/>
			<path fill="#FFFFFF" d="M125.7,26.8l-3.9-1.4l0.6-1.7l0.6,0.2l1.3-3.7l-0.8-0.3l-0.5,1.3l-1.3-0.5l1.1-3l7,2.5l-1.1,3l-1.3-0.5
				l0.5-1.3l-0.8-0.3l-1.3,3.7l0.6,0.2L125.7,26.8z"/>
			<path fill="#FFFFFF" d="M131.4,29.8l-3.7-2.1l0.9-1.6l0.6,0.3l1.9-3.4l-0.6-0.3l0.9-1.6l3.7,2.1l-0.9,1.6l-0.6-0.3l-1.9,3.4
				l0.6,0.3L131.4,29.8z"/>
			<path fill="#FFFFFF" d="M134.2,31.8l-2.4-1.9l1.1-1.4l0.5,0.4l2.5-3l-0.5-0.4l1.1-1.4l2.7,2.2l-0.4,4.7l1.3-1.6l-0.5-0.4l1.1-1.4
				l2.3,1.9l-1.1,1.4l-0.5-0.4L138,35l-1.9-1.6l0.4-5.5l-1.7,2l0.5,0.4L134.2,31.8z"/>
			<path fill="#FFFFFF" d="M144.4,38.6l-0.5-0.6l1.1-0.9l2.1,2.6c-0.6,0.5-1.2,0.8-1.5,1c-0.4,0.1-0.8,0.2-1.3,0.2
				c-0.5,0-1-0.2-1.4-0.5c-0.4-0.3-0.8-0.6-1.2-1.1c-0.5-0.7-0.9-1.4-1.1-2.1c-0.2-0.7-0.2-1.4,0.1-2.1c0.3-0.7,0.7-1.3,1.3-1.7
				c0.9-0.7,1.9-1,2.9-0.8c1,0.2,1.9,0.7,2.6,1.5c0.6,0.7,0.8,1.4,0.8,2.1l0.4-0.3l1.1,1.4l-2.1,1.6l-1.1-1.4
				c0.2-0.3,0.2-0.6,0.2-0.9c0-0.3-0.1-0.6-0.3-0.8c-0.3-0.4-0.6-0.6-1-0.5c-0.4,0-0.9,0.3-1.5,0.8c-0.6,0.5-1,0.9-1.1,1.3
				c-0.1,0.4,0,0.7,0.3,1.1C143.4,38.9,143.8,39,144.4,38.6z"/>
		</g>
		<g>
			<path fill="#FFFFFF" d="M96.6,97.7c0.2,0.4,0.7,0.7,1.1,0.7c0.8,0,1.2-1.2,1.2-3c0-1.6-0.4-2.6-1-3.6c-0.6-1-1.4-2.6-1.4-4.9
				c0-2.6,0.8-4.6,2-4.6c0.5,0,0.9,0.3,1,0.6l-0.2,1.7c-0.2-0.3-0.5-0.6-0.9-0.6c-0.7,0-1.1,1.3-1.1,2.5c0,1.7,0.4,2.4,1.1,3.6
				c0.9,1.5,1.3,3.1,1.3,5c0,3-0.9,4.9-2.1,4.9c-0.5,0-1-0.4-1.2-0.8L96.6,97.7z"/>
			<path fill="#FFFFFF" d="M106.3,92.5c-0.1-2.3-0.1-4.9-0.1-6.9h0c-0.2,1.9-0.4,4-0.6,6.1l-0.9,8.2h-0.5l-0.9-7.9
				c-0.3-2.2-0.5-4.4-0.6-6.4h0c0,2.1,0,4.5-0.1,7l-0.1,7.4h-0.8l0.4-17.5h0.9l0.9,8c0.3,2.3,0.4,4,0.6,6h0c0.1-2,0.3-3.7,0.6-6
				l0.8-8h0.9l0.4,17.5h-0.8L106.3,92.5z"/>
			<path fill="#FFFFFF" d="M110.3,94.8l-0.5,5.2H109l1.7-17.5h0.9l1.7,17.5h-0.8l-0.5-5.2H110.3z M111.8,93.2l-0.4-4.4
				c-0.1-1.2-0.2-2.7-0.3-4h0c-0.1,1.3-0.2,2.8-0.3,4l-0.4,4.4H111.8z"/>
			<path fill="#FFFFFF" d="M115.3,82.5h0.8v15.8h2.1v1.7h-2.9V82.5z"/>
			<path fill="#FFFFFF" d="M120.2,82.5h0.8v15.8h2.1v1.7h-2.9V82.5z"/>
		</g>
		<path fill="#FFFFFF" d="M151.1,59.8v0.4c0,0.1,0,0.3,0,0.4c0,0.1,0,0.3,0,0.4c0,0.1-0.1,0.3-0.1,0.4c0,0.1-0.1,0.3-0.1,0.4
			c0,0.1-0.1,0.3-0.1,0.4c-0.1,0.1-0.1,0.3-0.2,0.4c-0.1,0.1-0.1,0.2-0.2,0.4c-0.2,0.2-0.3,0.5-0.5,0.7c-0.2,0.2-0.3,0.4-0.5,0.6
			c-0.2,0.2-0.4,0.4-0.5,0.5c-0.2,0.2-0.4,0.3-0.6,0.5c-0.4,0.3-0.8,0.5-1.2,0.8c-0.2,0.1-0.4,0.2-0.6,0.3c-0.2,0.1-0.4,0.2-0.6,0.3
			c-0.4,0.2-0.8,0.4-1.3,0.6c-0.4,0.2-0.9,0.3-1.3,0.5c-0.4,0.2-0.9,0.3-1.3,0.4c-0.4,0.1-0.9,0.3-1.3,0.4c-0.9,0.3-1.7,0.5-2.6,0.7
			c-0.9,0.2-1.7,0.4-2.6,0.6c-0.9,0.2-1.7,0.4-2.6,0.6c-0.9,0.2-1.7,0.4-2.6,0.6c-0.9,0.2-1.7,0.4-2.6,0.6c-0.9,0.2-1.7,0.4-2.6,0.6
			l-0.6,0.2c-0.1,0-0.2,0.1-0.3,0.1c-0.1,0-0.2,0.1-0.3,0.1c-0.2,0.1-0.4,0.1-0.7,0.1c-0.2,0-0.4,0.1-0.7,0.1
			c-0.4,0.1-0.9,0.2-1.3,0.3c-0.4,0.1-0.9,0.2-1.3,0.3l-2.6,0.5c-0.4,0.1-0.9,0.2-1.3,0.3c-0.4,0.1-0.9,0.2-1.3,0.3
			c-0.9,0.2-1.7,0.4-2.6,0.6c-0.8,0.2-1.7,0.4-2.6,0.6c-0.2,0.1-0.4,0.1-0.6,0.1c-0.2,0-0.4,0.1-0.6,0.2c-0.2,0.1-0.4,0.1-0.6,0.1
			c-0.2,0-0.4,0.1-0.6,0.1c-0.2,0.1-0.4,0.1-0.6,0.2c-0.2,0-0.4,0.1-0.6,0.2c-0.2,0.1-0.4,0.1-0.6,0.2c-0.2,0-0.4,0.1-0.6,0.2
			c-0.4,0.1-0.8,0.2-1.3,0.3c-0.4,0.1-0.8,0.2-1.3,0.3c-0.2,0.1-0.4,0.1-0.6,0.2c-0.2,0.1-0.4,0.1-0.6,0.2c-0.2,0.1-0.4,0.1-0.6,0.2
			c-0.2,0.1-0.4,0.1-0.6,0.2c-0.1,0-0.2,0.1-0.3,0.1c-0.1,0-0.2,0.1-0.3,0.1l-0.6,0.2c-0.2,0.1-0.4,0.1-0.6,0.2
			c-0.2,0.1-0.4,0.1-0.6,0.2c-0.2,0.1-0.4,0.1-0.6,0.2c-0.2,0.1-0.4,0.1-0.6,0.2c-0.2,0.1-0.4,0.2-0.6,0.2c-0.2,0.1-0.4,0.2-0.6,0.2
			c-0.1,0-0.2,0.1-0.3,0.1c-0.1,0-0.2,0.1-0.3,0.1c-0.1,0-0.2,0.1-0.3,0.1c-0.1,0-0.2,0.1-0.3,0.1c-0.2,0.1-0.4,0.2-0.6,0.2
			c-0.2,0.1-0.4,0.2-0.5,0.3c-0.4,0.2-0.7,0.4-1,0.5l-0.5,0.3c-0.1-1.5-0.4-3-0.9-4.3c-0.5-1.3-1.2-2.5-2.1-3.5
			c-0.9-1-1.8-1.8-3-2.4c-1.1-0.6-2.3-0.9-3.6-0.9c-0.7,0-1.4,0.1-2.1,0.3c-0.7,0.2-1.3,0.4-1.9,0.8c0.2-0.2,0.3-0.3,0.5-0.5
			c0.2-0.1,0.3-0.3,0.5-0.4c0.3-0.3,0.7-0.6,1.1-0.8c0.4-0.2,0.7-0.5,1-0.6c0.3-0.2,0.6-0.3,1-0.5c0.3-0.1,0.6-0.3,0.9-0.4
			c0.3-0.1,0.6-0.2,0.9-0.3c0.3-0.1,0.6-0.2,0.8-0.3c0.3-0.1,0.6-0.2,0.8-0.2c0.3-0.1,0.5-0.1,0.8-0.2c0.3-0.1,0.5-0.1,0.8-0.2
			c0.3-0.1,0.5-0.1,0.8-0.2c0.3,0,0.5-0.1,0.8-0.1c0.3,0,0.5-0.1,0.7-0.1c0.2,0,0.5-0.1,0.7-0.1c0.5-0.1,1-0.1,1.5-0.2
			c0.1,0,0.2,0,0.4,0c0.1,0,0.2,0,0.4,0c0.1,0,0.2,0,0.4,0c0.1,0,0.2,0,0.4,0c0.2,0,0.5,0,0.7,0c0.2,0,0.5,0,0.7,0
			c0.2,0,0.5,0,0.7,0c0.2,0,0.5,0,0.7,0l1.4-0.1h0.7l0.7,0c0.2,0,0.5,0,0.7,0c0.2,0,0.5,0,0.7,0h1.4c0.5,0,0.9,0,1.4,0
			c0.4,0,0.9,0,1.3,0l1.3,0c0.2,0,0.4,0,0.7,0c0.2,0,0.4,0,0.7,0c0.2,0,0.4,0,0.7,0c0.2,0,0.4,0,0.7,0l1.3,0c0.9,0,1.8,0.1,2.7,0.1
			c0.9,0,1.8,0.1,2.6,0.1c0.4,0,0.9,0,1.3,0c0.4,0,0.9,0,1.3,0.1c0.4,0,0.9,0,1.3,0c0.4,0,0.9,0,1.3,0c0.4,0,0.9,0,1.3,0
			c0.4,0,0.9,0,1.3,0h1.3h0.6l0.7,0c0.9,0,1.8,0,2.6,0c0.9,0,1.8,0,2.6,0c0.9,0,1.7,0,2.6-0.1c0.9,0,1.7-0.1,2.6-0.1
			c0.9,0,1.7-0.1,2.6-0.2c0.4,0,0.9-0.1,1.3-0.1c0.4,0,0.9-0.1,1.3-0.2c0.4-0.1,0.8-0.1,1.3-0.2c0.4-0.1,0.8-0.1,1.3-0.2
			c0.4-0.1,0.8-0.2,1.3-0.3c0.4-0.1,0.8-0.2,1.2-0.4c0.2-0.1,0.4-0.1,0.6-0.2c0.2-0.1,0.4-0.1,0.6-0.2c0.2-0.1,0.4-0.2,0.6-0.3
			c0.2-0.1,0.4-0.2,0.6-0.3c0.4-0.2,0.7-0.5,1-0.7c0.2-0.1,0.3-0.3,0.5-0.4c0.1-0.2,0.3-0.3,0.4-0.5c0.1-0.2,0.2-0.3,0.3-0.5
			c0.1-0.2,0.2-0.4,0.3-0.6c0-0.1,0.1-0.2,0.1-0.3c0,0,0,0,0,0c0,0,0,0,0,0l0,0v0v0l0-0.1l0-0.1c0-0.1,0-0.2,0-0.3
			c0-0.1,0-0.2,0-0.3c0-0.5,0-0.9-0.1-1.4c0-0.1-0.1-0.2-0.1-0.3c0-0.1-0.1-0.2-0.1-0.3c-0.1-0.1-0.1-0.2-0.2-0.3
			c-0.1-0.1-0.1-0.2-0.2-0.2l0.4-0.5c0.2,0.2,0.4,0.4,0.5,0.6c0.1,0.1,0.1,0.2,0.2,0.4c0.1,0.1,0.1,0.3,0.2,0.4
			c0.1,0.3,0.2,0.5,0.2,0.8C151,59.2,151.1,59.5,151.1,59.8"/>
		<g>
			<path fill="#FFFFFF" d="M75.3,52.1c-0.3,0.7-0.8,2.7-1.5,6c0.2,0,0.4,0,0.7,0c1,0,1.8-0.5,2.5-1.5c0.7-1,1-2.3,1-3.9
				c0-2.4-1-3.5-2.9-3.5c-0.8,0-1.5,0.1-2.2,0.2c-0.7,0.2-1.3,0.3-1.7,0.5c-0.4,0.2-0.8,0.4-1.1,0.5c-0.3,0.2-0.6,0.2-0.7,0.2
				c-0.2,0-0.4-0.1-0.4-0.4c0-0.3,0.2-0.5,0.5-0.8c0.3-0.3,0.7-0.5,1.2-0.8c0.4-0.3,1-0.5,1.6-0.8c1.5-0.7,3-1,4.8-1
				c2.3,0,3.8,0.7,4.6,2.2c0.4,0.8,0.7,1.8,0.7,2.9c0,2.2-0.6,3.9-1.8,5.3c-1,1.2-2.4,2-4,2.3c-0.5,0.1-1,0.1-1.6,0.1
				c-0.6,0-1.1-0.1-1.5-0.2c-0.2,1-0.4,1.8-0.5,2.3c-0.1,0.5-0.2,0.9-0.4,1.3c-0.1,0.3-0.3,0.6-0.5,0.8c-0.2,0.2-0.4,0.3-0.6,0.4
				c-0.4,0.2-0.9,0.2-1.6,0.2c-0.7,0-1.3-0.1-1.9-0.3c-0.6-0.2-1-0.5-1.4-0.8c-0.3-0.3-0.5-0.6-0.5-0.9c0-0.2,0-0.3,0.1-0.4
				c0.1-0.1,0.2-0.2,0.3-0.2c0.5,0,0.8-0.1,1-0.3c0.2-0.2,0.4-0.6,0.6-1.2c0.2-0.6,0.4-1.3,0.6-2.1c0.2-0.8,0.4-1.5,0.6-2.2
				c0.2-0.7,0.4-1.4,0.6-2.1c0.5-1.5,1.1-2.5,1.8-3c0.3-0.2,0.8-0.4,1.3-0.5c0.5-0.1,1-0.2,1.3-0.2c0.3,0,0.5,0,0.6,0
				c0.1,0,0.2,0,0.3,0.1c0.2,0.1,0.3,0.2,0.3,0.5c0,0.2,0,0.3-0.1,0.4C75.6,51.4,75.5,51.7,75.3,52.1z"/>
			<path fill="#FFFFFF" d="M91.8,52.5l3.4,0.2c0.1,0,0.2,0.1,0.3,0.2c0.1,0.1,0.1,0.2,0.1,0.4c0,0.5-0.2,1.4-0.5,2.6
				c-0.3,1.2-0.6,2.3-0.9,3.5c-0.3,1.2-0.5,1.9-0.5,2.3c0,0.4,0,0.6,0.1,0.7c0.1,0.1,0.2,0.2,0.4,0.2c0.2,0,0.6-0.2,1.2-0.5
				c0.6-0.3,1-0.6,1.2-0.7c0.2-0.2,0.4-0.2,0.5-0.2c0.2,0,0.3,0.1,0.3,0.4c0,0.5-0.7,1.3-2.2,2.1c-0.5,0.3-1.1,0.6-1.8,0.8
				c-0.7,0.2-1.4,0.3-2.2,0.3c-1.2,0-1.9-0.6-2.2-1.7c-0.8,1.2-1.8,1.7-3.1,1.7c-0.9,0-1.7-0.3-2.3-1c-0.7-0.7-1-1.8-1-3.3
				c0-1.6,0.3-3,0.9-4.4c0.7-1.5,1.6-2.5,2.8-3.1c0.6-0.3,1.3-0.5,2.1-0.5c1.1,0,2,0.4,2.6,1.2c0,0,0-0.1,0-0.2l0-0.5
				C91,52.7,91.3,52.5,91.8,52.5z M87.9,61.9c0.9,0,1.7-1.1,2.3-3.2c0.3-1,0.4-1.8,0.4-2.4s-0.1-1-0.2-1.3c-0.1-0.2-0.4-0.3-0.8-0.3
				c-0.4,0-0.8,0.3-1.3,0.8c-0.5,0.5-0.8,1.2-1.1,2.1c-0.3,0.8-0.4,1.6-0.4,2.3c0,0.7,0.1,1.2,0.3,1.5
				C87.3,61.7,87.6,61.9,87.9,61.9z"/>
			<path fill="#FFFFFF" d="M98.9,52.9l3.5-0.1c0.1,0,0.2,0.1,0.3,0.2c0.1,0.1,0.1,0.2,0.1,0.3c0,0.1,0,0.3-0.1,0.5
				c0,0.2-0.1,0.5-0.1,0.8c-0.1,0.3-0.1,0.5-0.1,0.6c0.4-0.7,0.9-1.3,1.5-1.8c0.6-0.5,1.1-0.8,1.5-0.8c0.9,0,1.4,0.3,1.4,0.9
				c0,0.6-0.1,1.3-0.4,2.2c-0.3,0.8-0.5,1.4-0.7,1.7c-0.1,0.1-0.2,0.2-0.4,0.2c-0.2,0-0.3-0.1-0.4-0.2c-0.6-0.7-1.3-1-2-1
				c-0.3,0-0.5,0-0.7,0.1c-0.2,1-0.5,2.4-0.9,4.4c-0.4,1.9-0.7,3-0.7,3.2c-0.1,0.3-0.2,0.5-0.4,0.5c-0.7,0-1.5,0.1-2.3,0.2
				c-0.8,0.1-1.3,0.2-1.4,0.2c-0.1,0-0.2,0-0.3-0.1c-0.1-0.1-0.1-0.2-0.1-0.4c0-0.1,0.1-0.6,0.3-1.5c0.2-0.9,0.4-1.8,0.7-2.8
				c0.3-1,0.5-2.1,0.7-3.2c0.2-1.2,0.3-2.1,0.3-2.9l0-0.4C98.1,53.1,98.4,52.9,98.9,52.9z"/>
			<path fill="#FFFFFF" d="M113.6,53l2-0.4c0.4,0,0.5,0.2,0.5,0.6c0,0.4-0.2,0.7-0.5,0.8c-0.3,0.1-1.1,0.2-2.4,0.4
				c-0.2,0.7-0.4,1.6-0.8,2.7c-0.7,2.4-1,3.8-1,4.3c0,0.5,0.2,0.8,0.7,0.8c1.4,0,2.7-0.3,3.8-1.1c0.2-0.1,0.3-0.2,0.4-0.2
				c0.2,0,0.3,0.1,0.3,0.4c0,0.2-0.1,0.5-0.4,0.7c-0.7,0.7-1.8,1.3-3.3,1.8c-1.5,0.5-2.8,0.7-4.1,0.7c-0.7,0-1.2-0.2-1.6-0.5
				c-0.4-0.3-0.6-0.8-0.6-1.4c0-0.6,0.3-1.7,0.8-3.3c0.6-1.8,1-3.4,1.2-4.7c-0.3,0-0.5,0-0.6,0c-0.3,0-0.4-0.2-0.4-0.5
				c0-0.3,0-0.4,0.1-0.5c0.1-0.1,0.2-0.2,0.3-0.2c0.1,0,0.2-0.1,0.3-0.1c0.1,0,0.2,0,0.3,0c0.1,0,0.2,0,0.3,0
				c0.1-0.6,0.1-1.1,0.1-1.6l0-0.4c0-0.3,0.3-0.6,0.8-0.7c0.2,0,0.8-0.2,1.8-0.6c1-0.3,1.6-0.5,1.8-0.5c0.4,0,0.5,0.2,0.5,0.6
				C113.9,51,113.8,51.9,113.6,53z"/>
			<path fill="#FFFFFF" d="M130.2,61.1c0.2,0,0.3,0.1,0.3,0.4c0,0.3-0.1,0.5-0.3,0.7c-0.2,0.2-0.4,0.4-0.8,0.7
				c-0.4,0.2-0.8,0.5-1.3,0.8c-0.5,0.3-1.1,0.5-1.8,0.8c-0.7,0.2-1.3,0.3-2,0.3c-1.5,0-2.2-0.5-2.2-1.5c0-0.6,0.2-1.8,0.7-3.5
				c0.5-1.7,0.7-2.8,0.7-3.4c0-0.7-0.3-1-1-1c-0.3,0-0.7,0.1-1.1,0.2c-0.2,1-0.5,2.6-1,4.7c-0.5,2.2-0.8,3.4-0.8,3.7
				c-0.1,0.3-0.2,0.4-0.4,0.4l-3.8,0.1c-0.1,0-0.1,0-0.2-0.1c-0.1-0.1-0.1-0.2-0.1-0.4c0-0.1,0.1-0.6,0.3-1.5
				c0.2-0.8,0.4-1.7,0.7-2.7c0.3-1,0.5-2,0.7-3.2c0.2-1.1,0.3-2.1,0.3-2.9l0-0.4c0-0.4,0.2-0.6,0.7-0.6l3.5-0.1
				c0.1,0,0.2,0.1,0.3,0.2c0.1,0.1,0.1,0.3,0.1,0.4s0,0.4-0.1,0.8c1.7-1.1,3.2-1.6,4.3-1.6c0.5,0,0.9,0.2,1.3,0.6
				c0.4,0.4,0.7,1.1,0.7,2c0,0.9-0.2,2.1-0.7,3.6c-0.5,1.5-0.7,2.4-0.7,2.7c0,0.7,0.2,1,0.6,1c0.2,0,0.6-0.1,1.2-0.4
				c0.6-0.3,1-0.5,1.2-0.6C129.9,61.2,130.1,61.1,130.2,61.1z"/>
			<path fill="#FFFFFF" d="M141.7,61.1c0.2,0,0.3,0.1,0.3,0.4c0,0.2-0.1,0.5-0.4,0.7c-0.2,0.2-0.5,0.4-0.9,0.7
				c-0.3,0.2-0.8,0.5-1.4,0.8c-1.4,0.7-3,1.1-4.8,1.1c-3.4,0-5-1.5-5-4.6c0-1.5,0.3-2.8,1-4c0.6-1.2,1.5-2.1,2.6-2.7
				c1.1-0.6,2.2-0.9,3.5-0.9c1.3,0,2.2,0.3,2.8,0.9c0.6,0.6,0.9,1.4,0.9,2.4c0,1-0.3,1.9-0.8,2.6c-0.6,0.7-1.3,1.2-2.2,1.5
				c-0.9,0.3-2,0.6-3.2,0.7c0.1,1.1,0.6,1.9,1.7,2.1c0.3,0.1,0.5,0.1,0.8,0.1c1.2,0,2.8-0.5,5-1.6C141.5,61.2,141.6,61.1,141.7,61.1
				z M133.9,59.3c0.9-0.4,1.5-0.9,2-1.6c0.5-0.7,0.8-1.6,0.8-2.6c0-0.3-0.1-0.5-0.2-0.7c-0.1-0.2-0.3-0.2-0.5-0.2
				c-0.2,0-0.5,0.2-0.8,0.5c-0.3,0.3-0.5,0.7-0.7,1.2C134.2,56.9,133.9,58.1,133.9,59.3z"/>
			<path fill="#FFFFFF" d="M143.4,52.9l3.5-0.1c0.1,0,0.2,0.1,0.3,0.2c0.1,0.1,0.1,0.2,0.1,0.3c0,0.1,0,0.3-0.1,0.5
				c0,0.2-0.1,0.5-0.1,0.8c-0.1,0.3-0.1,0.5-0.1,0.6c0.4-0.7,0.9-1.3,1.5-1.8c0.6-0.5,1.1-0.8,1.5-0.8c0.9,0,1.4,0.3,1.4,0.9
				c0,0.6-0.1,1.3-0.4,2.2c-0.3,0.8-0.5,1.4-0.7,1.7c-0.1,0.1-0.2,0.2-0.4,0.2c-0.2,0-0.3-0.1-0.4-0.2c-0.6-0.7-1.3-1-2-1
				c-0.3,0-0.5,0-0.7,0.1c-0.2,1-0.5,2.4-0.9,4.4c-0.4,1.9-0.7,3-0.7,3.2c-0.1,0.3-0.2,0.5-0.4,0.5c-0.7,0-1.5,0.1-2.3,0.2
				c-0.8,0.1-1.3,0.2-1.4,0.2c-0.1,0-0.2,0-0.3-0.1c-0.1-0.1-0.1-0.2-0.1-0.4c0-0.1,0.1-0.6,0.3-1.5c0.2-0.9,0.4-1.8,0.7-2.8
				c0.3-1,0.5-2.1,0.7-3.2c0.2-1.2,0.3-2.1,0.3-2.9l0-0.4C142.6,53.1,142.9,52.9,143.4,52.9z"/>
		</g>
	</g>
	<g>
		<path fill="#DBCE5D" d="M167,60.2c0,30.4-25.4,55.1-56.8,55.1c-31.4,0-56.8-24.7-56.8-55.1c0-30.4,25.4-55.1,56.8-55.1
			C141.5,5.1,167,29.8,167,60.2"/>
		<path fill="#630055" d="M160.5,60.2c0,26.9-22.5,48.7-50.3,48.7c-27.8,0-50.3-21.8-50.3-48.7c0-26.9,22.5-48.7,50.3-48.7
			C137.9,11.4,160.5,33.2,160.5,60.2"/>
		<rect x="59.9" y="43.5" fill="#DBCE5D" width="100.5" height="0.8"/>
		<rect x="59.9" y="74.4" fill="#DBCE5D" width="100.5" height="0.8"/>
		<path fill="#DBCE5D" d="M138.3,43.9c-5.7-9.3-16.2-15.5-28.1-15.5c-11.9,0-22.4,6.2-28.1,15.5H138.3z"/>
		<path fill="#FFFFFF" d="M145.6,58.4"/>
		<path fill="#FFFFFF" d="M146,58.6"/>
		<polygon fill="#DBCE5D" points="85.9,86.7 87,90 90.5,90 87.7,92 88.8,95.3 85.9,93.3 83.1,95.3 84.2,92 81.4,90 84.9,90 		"/>
		<polygon fill="#DBCE5D" points="134.3,86.7 135.4,90 138.9,90 136.1,92 137.1,95.3 134.3,93.3 131.5,95.3 132.6,92 129.8,90 
			133.3,90 		"/>
		<g>
			<path fill="#FFFFFF" d="M77.8,39.8l-1,1.3l-1.9-1.5l1-1.3c0.6,0.2,1.1,0.2,1.5-0.3c0.2-0.3,0.2-0.6,0-0.8
				c-0.1-0.1-0.3-0.1-0.5-0.1c-0.2,0-0.5,0.2-1,0.4c-0.6,0.3-1.1,0.5-1.4,0.6c-0.3,0.1-0.7,0.1-1,0.1c-0.4,0-0.7-0.2-1-0.4
				c-0.5-0.4-0.8-0.9-0.9-1.5c0-0.6,0.2-1.1,0.6-1.7c0.4-0.5,0.9-0.8,1.5-1l-0.4-0.3l1-1.3l1.7,1.3l-1,1.3c-0.6-0.2-1-0.1-1.4,0.3
				c-0.2,0.3-0.2,0.5,0,0.7c0.1,0.1,0.2,0.1,0.4,0.1c0.1,0,0.5-0.2,1-0.4c0.7-0.4,1.3-0.6,1.5-0.7c0.1,0,0.3-0.1,0.5-0.1
				c0.2,0,0.4,0,0.6,0c0.4,0.1,0.8,0.2,1.1,0.5c0.5,0.4,0.8,0.9,0.8,1.5c0.1,0.6-0.1,1.2-0.6,1.8c-0.4,0.5-0.9,0.9-1.6,1L77.8,39.8z
				"/>
			<path fill="#FFFFFF" d="M77.4,31.4L77,31.8l-1.2-1.3l2.9-2.5l1.2,1.3l-0.3,0.2l1.7,1.9c0.4,0.5,0.7,0.7,0.9,0.8
				c0.2,0.1,0.5,0,0.7-0.2c0.2-0.2,0.3-0.4,0.2-0.6c0-0.2-0.2-0.5-0.6-0.9l-1.8-2l-0.3,0.2l-1.2-1.3l2.1-1.9l1.2,1.3l-0.4,0.4l1.8,2
				c0.5,0.5,0.8,1,0.9,1.5c0.1,0.5,0.1,0.9-0.1,1.4c-0.2,0.5-0.5,1-1,1.4c-0.4,0.4-0.8,0.6-1.2,0.8c-0.4,0.2-0.8,0.3-1.2,0.2
				c-0.4,0-0.7-0.1-1-0.3c-0.3-0.2-0.7-0.6-1.2-1.1L77.4,31.4z"/>
			<path fill="#FFFFFF" d="M90.4,28.7l-3.8,2.2l-0.9-1.6l0.6-0.4l-1.9-3.4l-0.6,0.4l-0.9-1.6l4-2.3c0.9-0.5,1.6-0.8,2.2-0.9
				c0.5-0.1,1,0,1.4,0.2c0.4,0.2,0.7,0.5,0.9,0.9c0.3,0.5,0.4,0.9,0.3,1.3c-0.1,0.4-0.3,0.8-0.6,1.2c-0.3,0.4-0.9,0.8-1.7,1.2
				l-1,0.6l0.5,0.9l0.7-0.4L90.4,28.7z M86.9,24l0.7,1.2L88,25c0.3-0.2,0.6-0.4,0.7-0.5c0.1-0.2,0.1-0.4,0-0.6
				c-0.1-0.2-0.2-0.3-0.3-0.3c-0.1-0.1-0.3-0.1-0.4,0c-0.1,0-0.4,0.1-0.7,0.3L86.9,24z"/>
			<path fill="#FFFFFF" d="M98.4,25.4l-4.2,1.3l-0.5-1.7l0.7-0.2L93.2,21l-0.7,0.2L92,19.5l4.4-1.3c1-0.3,1.8-0.4,2.3-0.4
				c0.5,0.1,1,0.2,1.3,0.5c0.3,0.3,0.5,0.6,0.7,1c0.2,0.5,0.2,1,0,1.4c-0.2,0.4-0.4,0.8-0.8,1c-0.4,0.3-1,0.6-1.9,0.8l-1.1,0.3
				l0.3,1l0.7-0.2L98.4,25.4z M95.9,20l0.4,1.3l0.5-0.2c0.4-0.1,0.6-0.2,0.8-0.4c0.1-0.1,0.2-0.3,0.1-0.6c-0.1-0.2-0.1-0.3-0.3-0.4
				c-0.1-0.1-0.3-0.1-0.4-0.1c-0.1,0-0.4,0.1-0.7,0.2L95.9,20z"/>
			<path fill="#FFFFFF" d="M102.3,20.4c0-0.6,0.1-1.2,0.3-1.8c0.3-0.6,0.7-1.1,1.3-1.6c0.2-0.2,0.4-0.3,0.7-0.4
				c0.2-0.1,0.5-0.2,0.8-0.3c0.3-0.1,0.6-0.1,0.9-0.1c1.3-0.1,2.4,0.2,3.2,0.9c0.4,0.4,0.7,0.8,0.9,1.2c0.2,0.4,0.3,0.9,0.4,1.4
				c0.1,1-0.2,2-0.9,2.8c-0.7,0.8-1.7,1.3-3,1.4c-1.2,0.1-2.3-0.2-3.1-0.8C102.8,22.4,102.4,21.5,102.3,20.4z M105.5,20.1
				c0.1,0.8,0.2,1.4,0.4,1.7c0.2,0.3,0.4,0.4,0.8,0.4c0.3,0,0.6-0.2,0.7-0.5c0.1-0.3,0.2-0.9,0.1-1.7c-0.1-0.8-0.2-1.4-0.4-1.7
				c-0.2-0.3-0.4-0.4-0.8-0.4c-0.3,0-0.6,0.2-0.7,0.5C105.5,18.7,105.4,19.3,105.5,20.1z"/>
			<path fill="#FFFFFF" d="M115.7,24.1l-4-0.6l0.3-1.8l0.6,0.1l0.6-3.9l-0.6-0.1l0.3-1.8l4,0.6c0.4,0.1,0.7,0.1,1,0.2
				c0.3,0.1,0.6,0.1,0.8,0.2c0.2,0.1,0.4,0.1,0.6,0.2c0.5,0.2,0.9,0.5,1.2,0.9c0.3,0.4,0.4,0.9,0.3,1.4c-0.1,0.4-0.2,0.7-0.4,1
				c-0.2,0.3-0.5,0.5-0.9,0.6l0.8,1.8l0.5,0.1l-0.3,1.8l-2.7-0.4l-1.2-3.3l-0.9-0.1l-0.2,1.2l0.6,0.1L115.7,24.1z M115.9,18.2
				l-0.2,1.4l0.3,0c0.4,0.1,0.7,0.1,0.9,0.1c0.2,0,0.3-0.1,0.4-0.2c0.1-0.1,0.2-0.2,0.2-0.4c0-0.2,0-0.4-0.1-0.5
				c-0.1-0.1-0.2-0.2-0.4-0.3c-0.2,0-0.5-0.1-0.9-0.2L115.9,18.2z"/>
			<path fill="#FFFFFF" d="M125.7,26.8l-3.9-1.4l0.6-1.7l0.6,0.2l1.3-3.7l-0.8-0.3l-0.5,1.3l-1.3-0.5l1.1-3l7,2.5l-1.1,3l-1.3-0.5
				l0.5-1.3l-0.8-0.3l-1.3,3.7l0.6,0.2L125.7,26.8z"/>
			<path fill="#FFFFFF" d="M131.4,29.8l-3.7-2.1l0.9-1.6l0.6,0.3l1.9-3.4l-0.6-0.3l0.9-1.6l3.7,2.1l-0.9,1.6l-0.6-0.3l-1.9,3.4
				l0.6,0.3L131.4,29.8z"/>
			<path fill="#FFFFFF" d="M134.2,31.8l-2.4-1.9l1.1-1.4l0.5,0.4l2.5-3l-0.5-0.4l1.1-1.4l2.7,2.2l-0.4,4.7l1.3-1.6l-0.5-0.4l1.1-1.4
				l2.3,1.9l-1.1,1.4l-0.5-0.4L138,35l-1.9-1.6l0.4-5.5l-1.7,2l0.5,0.4L134.2,31.8z"/>
			<path fill="#FFFFFF" d="M144.4,38.6l-0.5-0.6l1.1-0.9l2.1,2.6c-0.6,0.5-1.2,0.8-1.5,1c-0.4,0.1-0.8,0.2-1.3,0.2
				c-0.5,0-1-0.2-1.4-0.5c-0.4-0.3-0.8-0.6-1.2-1.1c-0.5-0.7-0.9-1.4-1.1-2.1c-0.2-0.7-0.2-1.4,0.1-2.1c0.3-0.7,0.7-1.3,1.3-1.7
				c0.9-0.7,1.9-1,2.9-0.8c1,0.2,1.9,0.7,2.6,1.5c0.6,0.7,0.8,1.4,0.8,2.1l0.4-0.3l1.1,1.4l-2.1,1.6l-1.1-1.4
				c0.2-0.3,0.2-0.6,0.2-0.9c0-0.3-0.1-0.6-0.3-0.8c-0.3-0.4-0.6-0.6-1-0.5c-0.4,0-0.9,0.3-1.5,0.8c-0.6,0.5-1,0.9-1.1,1.3
				c-0.1,0.4,0,0.7,0.3,1.1C143.4,38.9,143.8,39,144.4,38.6z"/>
		</g>
		<g>
			<path fill="#FFFFFF" d="M96.6,97.7c0.2,0.4,0.7,0.7,1.1,0.7c0.8,0,1.2-1.2,1.2-3c0-1.6-0.4-2.6-1-3.6c-0.6-1-1.4-2.6-1.4-4.9
				c0-2.6,0.8-4.6,2-4.6c0.5,0,0.9,0.3,1,0.6l-0.2,1.7c-0.2-0.3-0.5-0.6-0.9-0.6c-0.7,0-1.1,1.3-1.1,2.5c0,1.7,0.4,2.4,1.1,3.6
				c0.9,1.5,1.3,3.1,1.3,5c0,3-0.9,4.9-2.1,4.9c-0.5,0-1-0.4-1.2-0.8L96.6,97.7z"/>
			<path fill="#FFFFFF" d="M106.3,92.5c-0.1-2.3-0.1-4.9-0.1-6.9h0c-0.2,1.9-0.4,4-0.6,6.1l-0.9,8.2h-0.5l-0.9-7.9
				c-0.3-2.2-0.5-4.4-0.6-6.4h0c0,2.1,0,4.5-0.1,7l-0.1,7.4h-0.8l0.4-17.5h0.9l0.9,8c0.3,2.3,0.4,4,0.6,6h0c0.1-2,0.3-3.7,0.6-6
				l0.8-8h0.9l0.4,17.5h-0.8L106.3,92.5z"/>
			<path fill="#FFFFFF" d="M110.3,94.8l-0.5,5.2H109l1.7-17.5h0.9l1.7,17.5h-0.8l-0.5-5.2H110.3z M111.8,93.2l-0.4-4.4
				c-0.1-1.2-0.2-2.7-0.3-4h0c-0.1,1.3-0.2,2.8-0.3,4l-0.4,4.4H111.8z"/>
			<path fill="#FFFFFF" d="M115.3,82.5h0.8v15.8h2.1v1.7h-2.9V82.5z"/>
			<path fill="#FFFFFF" d="M120.2,82.5h0.8v15.8h2.1v1.7h-2.9V82.5z"/>
		</g>
		<path fill="#FFFFFF" d="M151.1,59.8v0.4c0,0.1,0,0.3,0,0.4c0,0.1,0,0.3,0,0.4c0,0.1-0.1,0.3-0.1,0.4c0,0.1-0.1,0.3-0.1,0.4
			c0,0.1-0.1,0.3-0.1,0.4c-0.1,0.1-0.1,0.3-0.2,0.4c-0.1,0.1-0.1,0.2-0.2,0.4c-0.2,0.2-0.3,0.5-0.5,0.7c-0.2,0.2-0.3,0.4-0.5,0.6
			c-0.2,0.2-0.4,0.4-0.5,0.5c-0.2,0.2-0.4,0.3-0.6,0.5c-0.4,0.3-0.8,0.5-1.2,0.8c-0.2,0.1-0.4,0.2-0.6,0.3c-0.2,0.1-0.4,0.2-0.6,0.3
			c-0.4,0.2-0.8,0.4-1.3,0.6c-0.4,0.2-0.9,0.3-1.3,0.5c-0.4,0.2-0.9,0.3-1.3,0.4c-0.4,0.1-0.9,0.3-1.3,0.4c-0.9,0.3-1.7,0.5-2.6,0.7
			c-0.9,0.2-1.7,0.4-2.6,0.6c-0.9,0.2-1.7,0.4-2.6,0.6c-0.9,0.2-1.7,0.4-2.6,0.6c-0.9,0.2-1.7,0.4-2.6,0.6c-0.9,0.2-1.7,0.4-2.6,0.6
			l-0.6,0.2c-0.1,0-0.2,0.1-0.3,0.1c-0.1,0-0.2,0.1-0.3,0.1c-0.2,0.1-0.4,0.1-0.7,0.1c-0.2,0-0.4,0.1-0.7,0.1
			c-0.4,0.1-0.9,0.2-1.3,0.3c-0.4,0.1-0.9,0.2-1.3,0.3l-2.6,0.5c-0.4,0.1-0.9,0.2-1.3,0.3c-0.4,0.1-0.9,0.2-1.3,0.3
			c-0.9,0.2-1.7,0.4-2.6,0.6c-0.8,0.2-1.7,0.4-2.6,0.6c-0.2,0.1-0.4,0.1-0.6,0.1c-0.2,0-0.4,0.1-0.6,0.2c-0.2,0.1-0.4,0.1-0.6,0.1
			c-0.2,0-0.4,0.1-0.6,0.1c-0.2,0.1-0.4,0.1-0.6,0.2c-0.2,0-0.4,0.1-0.6,0.2c-0.2,0.1-0.4,0.1-0.6,0.2c-0.2,0-0.4,0.1-0.6,0.2
			c-0.4,0.1-0.8,0.2-1.3,0.3c-0.4,0.1-0.8,0.2-1.3,0.3c-0.2,0.1-0.4,0.1-0.6,0.2c-0.2,0.1-0.4,0.1-0.6,0.2c-0.2,0.1-0.4,0.1-0.6,0.2
			c-0.2,0.1-0.4,0.1-0.6,0.2c-0.1,0-0.2,0.1-0.3,0.1c-0.1,0-0.2,0.1-0.3,0.1l-0.6,0.2c-0.2,0.1-0.4,0.1-0.6,0.2
			c-0.2,0.1-0.4,0.1-0.6,0.2c-0.2,0.1-0.4,0.1-0.6,0.2c-0.2,0.1-0.4,0.1-0.6,0.2c-0.2,0.1-0.4,0.2-0.6,0.2c-0.2,0.1-0.4,0.2-0.6,0.2
			c-0.1,0-0.2,0.1-0.3,0.1c-0.1,0-0.2,0.1-0.3,0.1c-0.1,0-0.2,0.1-0.3,0.1c-0.1,0-0.2,0.1-0.3,0.1c-0.2,0.1-0.4,0.2-0.6,0.2
			c-0.2,0.1-0.4,0.2-0.5,0.3c-0.4,0.2-0.7,0.4-1,0.5l-0.5,0.3c-0.1-1.5-0.4-3-0.9-4.3c-0.5-1.3-1.2-2.5-2.1-3.5
			c-0.9-1-1.8-1.8-3-2.4c-1.1-0.6-2.3-0.9-3.6-0.9c-0.7,0-1.4,0.1-2.1,0.3c-0.7,0.2-1.3,0.4-1.9,0.8c0.2-0.2,0.3-0.3,0.5-0.5
			c0.2-0.1,0.3-0.3,0.5-0.4c0.3-0.3,0.7-0.6,1.1-0.8c0.4-0.2,0.7-0.5,1-0.6c0.3-0.2,0.6-0.3,1-0.5c0.3-0.1,0.6-0.3,0.9-0.4
			c0.3-0.1,0.6-0.2,0.9-0.3c0.3-0.1,0.6-0.2,0.8-0.3c0.3-0.1,0.6-0.2,0.8-0.2c0.3-0.1,0.5-0.1,0.8-0.2c0.3-0.1,0.5-0.1,0.8-0.2
			c0.3-0.1,0.5-0.1,0.8-0.2c0.3,0,0.5-0.1,0.8-0.1c0.3,0,0.5-0.1,0.7-0.1c0.2,0,0.5-0.1,0.7-0.1c0.5-0.1,1-0.1,1.5-0.2
			c0.1,0,0.2,0,0.4,0c0.1,0,0.2,0,0.4,0c0.1,0,0.2,0,0.4,0c0.1,0,0.2,0,0.4,0c0.2,0,0.5,0,0.7,0c0.2,0,0.5,0,0.7,0
			c0.2,0,0.5,0,0.7,0c0.2,0,0.5,0,0.7,0l1.4-0.1h0.7l0.7,0c0.2,0,0.5,0,0.7,0c0.2,0,0.5,0,0.7,0h1.4c0.5,0,0.9,0,1.4,0
			c0.4,0,0.9,0,1.3,0l1.3,0c0.2,0,0.4,0,0.7,0c0.2,0,0.4,0,0.7,0c0.2,0,0.4,0,0.7,0c0.2,0,0.4,0,0.7,0l1.3,0c0.9,0,1.8,0.1,2.7,0.1
			c0.9,0,1.8,0.1,2.6,0.1c0.4,0,0.9,0,1.3,0c0.4,0,0.9,0,1.3,0.1c0.4,0,0.9,0,1.3,0c0.4,0,0.9,0,1.3,0c0.4,0,0.9,0,1.3,0
			c0.4,0,0.9,0,1.3,0h1.3h0.6l0.7,0c0.9,0,1.8,0,2.6,0c0.9,0,1.8,0,2.6,0c0.9,0,1.7,0,2.6-0.1c0.9,0,1.7-0.1,2.6-0.1
			c0.9,0,1.7-0.1,2.6-0.2c0.4,0,0.9-0.1,1.3-0.1c0.4,0,0.9-0.1,1.3-0.2c0.4-0.1,0.8-0.1,1.3-0.2c0.4-0.1,0.8-0.1,1.3-0.2
			c0.4-0.1,0.8-0.2,1.3-0.3c0.4-0.1,0.8-0.2,1.2-0.4c0.2-0.1,0.4-0.1,0.6-0.2c0.2-0.1,0.4-0.1,0.6-0.2c0.2-0.1,0.4-0.2,0.6-0.3
			c0.2-0.1,0.4-0.2,0.6-0.3c0.4-0.2,0.7-0.5,1-0.7c0.2-0.1,0.3-0.3,0.5-0.4c0.1-0.2,0.3-0.3,0.4-0.5c0.1-0.2,0.2-0.3,0.3-0.5
			c0.1-0.2,0.2-0.4,0.3-0.6c0-0.1,0.1-0.2,0.1-0.3c0,0,0,0,0,0c0,0,0,0,0,0l0,0v0v0l0-0.1l0-0.1c0-0.1,0-0.2,0-0.3
			c0-0.1,0-0.2,0-0.3c0-0.5,0-0.9-0.1-1.4c0-0.1-0.1-0.2-0.1-0.3c0-0.1-0.1-0.2-0.1-0.3c-0.1-0.1-0.1-0.2-0.2-0.3
			c-0.1-0.1-0.1-0.2-0.2-0.2l0.4-0.5c0.2,0.2,0.4,0.4,0.5,0.6c0.1,0.1,0.1,0.2,0.2,0.4c0.1,0.1,0.1,0.3,0.2,0.4
			c0.1,0.3,0.2,0.5,0.2,0.8C151,59.2,151.1,59.5,151.1,59.8"/>
		<g>
			<path fill="#FFFFFF" d="M75.3,52.1c-0.3,0.7-0.8,2.7-1.5,6c0.2,0,0.4,0,0.7,0c1,0,1.8-0.5,2.5-1.5c0.7-1,1-2.3,1-3.9
				c0-2.4-1-3.5-2.9-3.5c-0.8,0-1.5,0.1-2.2,0.2c-0.7,0.2-1.3,0.3-1.7,0.5c-0.4,0.2-0.8,0.4-1.1,0.5c-0.3,0.2-0.6,0.2-0.7,0.2
				c-0.2,0-0.4-0.1-0.4-0.4c0-0.3,0.2-0.5,0.5-0.8c0.3-0.3,0.7-0.5,1.2-0.8c0.4-0.3,1-0.5,1.6-0.8c1.5-0.7,3-1,4.8-1
				c2.3,0,3.8,0.7,4.6,2.2c0.4,0.8,0.7,1.8,0.7,2.9c0,2.2-0.6,3.9-1.8,5.3c-1,1.2-2.4,2-4,2.3c-0.5,0.1-1,0.1-1.6,0.1
				c-0.6,0-1.1-0.1-1.5-0.2c-0.2,1-0.4,1.8-0.5,2.3c-0.1,0.5-0.2,0.9-0.4,1.3c-0.1,0.3-0.3,0.6-0.5,0.8c-0.2,0.2-0.4,0.3-0.6,0.4
				c-0.4,0.2-0.9,0.2-1.6,0.2c-0.7,0-1.3-0.1-1.9-0.3c-0.6-0.2-1-0.5-1.4-0.8c-0.3-0.3-0.5-0.6-0.5-0.9c0-0.2,0-0.3,0.1-0.4
				c0.1-0.1,0.2-0.2,0.3-0.2c0.5,0,0.8-0.1,1-0.3c0.2-0.2,0.4-0.6,0.6-1.2c0.2-0.6,0.4-1.3,0.6-2.1c0.2-0.8,0.4-1.5,0.6-2.2
				c0.2-0.7,0.4-1.4,0.6-2.1c0.5-1.5,1.1-2.5,1.8-3c0.3-0.2,0.8-0.4,1.3-0.5c0.5-0.1,1-0.2,1.3-0.2c0.3,0,0.5,0,0.6,0
				c0.1,0,0.2,0,0.3,0.1c0.2,0.1,0.3,0.2,0.3,0.5c0,0.2,0,0.3-0.1,0.4C75.6,51.4,75.5,51.7,75.3,52.1z"/>
			<path fill="#FFFFFF" d="M91.8,52.5l3.4,0.2c0.1,0,0.2,0.1,0.3,0.2c0.1,0.1,0.1,0.2,0.1,0.4c0,0.5-0.2,1.4-0.5,2.6
				c-0.3,1.2-0.6,2.3-0.9,3.5c-0.3,1.2-0.5,1.9-0.5,2.3c0,0.4,0,0.6,0.1,0.7c0.1,0.1,0.2,0.2,0.4,0.2c0.2,0,0.6-0.2,1.2-0.5
				c0.6-0.3,1-0.6,1.2-0.7c0.2-0.2,0.4-0.2,0.5-0.2c0.2,0,0.3,0.1,0.3,0.4c0,0.5-0.7,1.3-2.2,2.1c-0.5,0.3-1.1,0.6-1.8,0.8
				c-0.7,0.2-1.4,0.3-2.2,0.3c-1.2,0-1.9-0.6-2.2-1.7c-0.8,1.2-1.8,1.7-3.1,1.7c-0.9,0-1.7-0.3-2.3-1c-0.7-0.7-1-1.8-1-3.3
				c0-1.6,0.3-3,0.9-4.4c0.7-1.5,1.6-2.5,2.8-3.1c0.6-0.3,1.3-0.5,2.1-0.5c1.1,0,2,0.4,2.6,1.2c0,0,0-0.1,0-0.2l0-0.5
				C91,52.7,91.3,52.5,91.8,52.5z M87.9,61.9c0.9,0,1.7-1.1,2.3-3.2c0.3-1,0.4-1.8,0.4-2.4s-0.1-1-0.2-1.3c-0.1-0.2-0.4-0.3-0.8-0.3
				c-0.4,0-0.8,0.3-1.3,0.8c-0.5,0.5-0.8,1.2-1.1,2.1c-0.3,0.8-0.4,1.6-0.4,2.3c0,0.7,0.1,1.2,0.3,1.5
				C87.3,61.7,87.6,61.9,87.9,61.9z"/>
			<path fill="#FFFFFF" d="M98.9,52.9l3.5-0.1c0.1,0,0.2,0.1,0.3,0.2c0.1,0.1,0.1,0.2,0.1,0.3c0,0.1,0,0.3-0.1,0.5
				c0,0.2-0.1,0.5-0.1,0.8c-0.1,0.3-0.1,0.5-0.1,0.6c0.4-0.7,0.9-1.3,1.5-1.8c0.6-0.5,1.1-0.8,1.5-0.8c0.9,0,1.4,0.3,1.4,0.9
				c0,0.6-0.1,1.3-0.4,2.2c-0.3,0.8-0.5,1.4-0.7,1.7c-0.1,0.1-0.2,0.2-0.4,0.2c-0.2,0-0.3-0.1-0.4-0.2c-0.6-0.7-1.3-1-2-1
				c-0.3,0-0.5,0-0.7,0.1c-0.2,1-0.5,2.4-0.9,4.4c-0.4,1.9-0.7,3-0.7,3.2c-0.1,0.3-0.2,0.5-0.4,0.5c-0.7,0-1.5,0.1-2.3,0.2
				c-0.8,0.1-1.3,0.2-1.4,0.2c-0.1,0-0.2,0-0.3-0.1c-0.1-0.1-0.1-0.2-0.1-0.4c0-0.1,0.1-0.6,0.3-1.5c0.2-0.9,0.4-1.8,0.7-2.8
				c0.3-1,0.5-2.1,0.7-3.2c0.2-1.2,0.3-2.1,0.3-2.9l0-0.4C98.1,53.1,98.4,52.9,98.9,52.9z"/>
			<path fill="#FFFFFF" d="M113.6,53l2-0.4c0.4,0,0.5,0.2,0.5,0.6c0,0.4-0.2,0.7-0.5,0.8c-0.3,0.1-1.1,0.2-2.4,0.4
				c-0.2,0.7-0.4,1.6-0.8,2.7c-0.7,2.4-1,3.8-1,4.3c0,0.5,0.2,0.8,0.7,0.8c1.4,0,2.7-0.3,3.8-1.1c0.2-0.1,0.3-0.2,0.4-0.2
				c0.2,0,0.3,0.1,0.3,0.4c0,0.2-0.1,0.5-0.4,0.7c-0.7,0.7-1.8,1.3-3.3,1.8c-1.5,0.5-2.8,0.7-4.1,0.7c-0.7,0-1.2-0.2-1.6-0.5
				c-0.4-0.3-0.6-0.8-0.6-1.4c0-0.6,0.3-1.7,0.8-3.3c0.6-1.8,1-3.4,1.2-4.7c-0.3,0-0.5,0-0.6,0c-0.3,0-0.4-0.2-0.4-0.5
				c0-0.3,0-0.4,0.1-0.5c0.1-0.1,0.2-0.2,0.3-0.2c0.1,0,0.2-0.1,0.3-0.1c0.1,0,0.2,0,0.3,0c0.1,0,0.2,0,0.3,0
				c0.1-0.6,0.1-1.1,0.1-1.6l0-0.4c0-0.3,0.3-0.6,0.8-0.7c0.2,0,0.8-0.2,1.8-0.6c1-0.3,1.6-0.5,1.8-0.5c0.4,0,0.5,0.2,0.5,0.6
				C113.9,51,113.8,51.9,113.6,53z"/>
			<path fill="#FFFFFF" d="M130.2,61.1c0.2,0,0.3,0.1,0.3,0.4c0,0.3-0.1,0.5-0.3,0.7c-0.2,0.2-0.4,0.4-0.8,0.7
				c-0.4,0.2-0.8,0.5-1.3,0.8c-0.5,0.3-1.1,0.5-1.8,0.8c-0.7,0.2-1.3,0.3-2,0.3c-1.5,0-2.2-0.5-2.2-1.5c0-0.6,0.2-1.8,0.7-3.5
				c0.5-1.7,0.7-2.8,0.7-3.4c0-0.7-0.3-1-1-1c-0.3,0-0.7,0.1-1.1,0.2c-0.2,1-0.5,2.6-1,4.7c-0.5,2.2-0.8,3.4-0.8,3.7
				c-0.1,0.3-0.2,0.4-0.4,0.4l-3.8,0.1c-0.1,0-0.1,0-0.2-0.1c-0.1-0.1-0.1-0.2-0.1-0.4c0-0.1,0.1-0.6,0.3-1.5
				c0.2-0.8,0.4-1.7,0.7-2.7c0.3-1,0.5-2,0.7-3.2c0.2-1.1,0.3-2.1,0.3-2.9l0-0.4c0-0.4,0.2-0.6,0.7-0.6l3.5-0.1
				c0.1,0,0.2,0.1,0.3,0.2c0.1,0.1,0.1,0.3,0.1,0.4s0,0.4-0.1,0.8c1.7-1.1,3.2-1.6,4.3-1.6c0.5,0,0.9,0.2,1.3,0.6
				c0.4,0.4,0.7,1.1,0.7,2c0,0.9-0.2,2.1-0.7,3.6c-0.5,1.5-0.7,2.4-0.7,2.7c0,0.7,0.2,1,0.6,1c0.2,0,0.6-0.1,1.2-0.4
				c0.6-0.3,1-0.5,1.2-0.6C129.9,61.2,130.1,61.1,130.2,61.1z"/>
			<path fill="#FFFFFF" d="M141.7,61.1c0.2,0,0.3,0.1,0.3,0.4c0,0.2-0.1,0.5-0.4,0.7c-0.2,0.2-0.5,0.4-0.9,0.7
				c-0.3,0.2-0.8,0.5-1.4,0.8c-1.4,0.7-3,1.1-4.8,1.1c-3.4,0-5-1.5-5-4.6c0-1.5,0.3-2.8,1-4c0.6-1.2,1.5-2.1,2.6-2.7
				c1.1-0.6,2.2-0.9,3.5-0.9c1.3,0,2.2,0.3,2.8,0.9c0.6,0.6,0.9,1.4,0.9,2.4c0,1-0.3,1.9-0.8,2.6c-0.6,0.7-1.3,1.2-2.2,1.5
				c-0.9,0.3-2,0.6-3.2,0.7c0.1,1.1,0.6,1.9,1.7,2.1c0.3,0.1,0.5,0.1,0.8,0.1c1.2,0,2.8-0.5,5-1.6C141.5,61.2,141.6,61.1,141.7,61.1
				z M133.9,59.3c0.9-0.4,1.5-0.9,2-1.6c0.5-0.7,0.8-1.6,0.8-2.6c0-0.3-0.1-0.5-0.2-0.7c-0.1-0.2-0.3-0.2-0.5-0.2
				c-0.2,0-0.5,0.2-0.8,0.5c-0.3,0.3-0.5,0.7-0.7,1.2C134.2,56.9,133.9,58.1,133.9,59.3z"/>
			<path fill="#FFFFFF" d="M143.4,52.9l3.5-0.1c0.1,0,0.2,0.1,0.3,0.2c0.1,0.1,0.1,0.2,0.1,0.3c0,0.1,0,0.3-0.1,0.5
				c0,0.2-0.1,0.5-0.1,0.8c-0.1,0.3-0.1,0.5-0.1,0.6c0.4-0.7,0.9-1.3,1.5-1.8c0.6-0.5,1.1-0.8,1.5-0.8c0.9,0,1.4,0.3,1.4,0.9
				c0,0.6-0.1,1.3-0.4,2.2c-0.3,0.8-0.5,1.4-0.7,1.7c-0.1,0.1-0.2,0.2-0.4,0.2c-0.2,0-0.3-0.1-0.4-0.2c-0.6-0.7-1.3-1-2-1
				c-0.3,0-0.5,0-0.7,0.1c-0.2,1-0.5,2.4-0.9,4.4c-0.4,1.9-0.7,3-0.7,3.2c-0.1,0.3-0.2,0.5-0.4,0.5c-0.7,0-1.5,0.1-2.3,0.2
				c-0.8,0.1-1.3,0.2-1.4,0.2c-0.1,0-0.2,0-0.3-0.1c-0.1-0.1-0.1-0.2-0.1-0.4c0-0.1,0.1-0.6,0.3-1.5c0.2-0.9,0.4-1.8,0.7-2.8
				c0.3-1,0.5-2.1,0.7-3.2c0.2-1.2,0.3-2.1,0.3-2.9l0-0.4C142.6,53.1,142.9,52.9,143.4,52.9z"/>
		</g>
	</g>
</g>
<g id="Layer_3">
</g>
</svg>
