<?xml version="1.0" encoding="utf-8"?>
<!-- Generator: Adobe Illustrator 18.1.0, SVG Export Plug-In . SVG Version: 6.00 Build 0)  -->
<svg version="1.1" xmlns="http://www.w3.org/2000/svg" xmlns:xlink="http://www.w3.org/1999/xlink" x="0px" y="0px"
	 viewBox="0 0 220 120" enable-background="new 0 0 220 120" xml:space="preserve">
<g id="Format__x2F__Guides">
</g>
<g id="Logos">
	<g>
		<polygon fill="#3E8EDE" points="167.1,30.4 150.1,13.4 69.5,13.4 52.6,30.3 52.6,86.4 69.7,103.5 150,103.5 167.1,86.4 		"/>
		<rect x="52.6" y="37.1" fill="#630055" width="114.6" height="41.6"/>
		<rect x="52.6" y="50.1" fill="#FFFFFF" width="7.7" height="1.7"/>
		<rect x="52.6" y="55" fill="#FFFFFF" width="7.7" height="1.7"/>
		<rect x="52.6" y="59.9" fill="#FFFFFF" width="7.7" height="1.7"/>
		<rect x="52.6" y="64.8" fill="#FFFFFF" width="7.7" height="1.7"/>
		<rect x="159.5" y="50.1" fill="#FFFFFF" width="7.7" height="1.7"/>
		<rect x="159.5" y="55" fill="#FFFFFF" width="7.7" height="1.7"/>
		<rect x="159.5" y="59.9" fill="#FFFFFF" width="7.7" height="1.7"/>
		<rect x="159.5" y="64.8" fill="#FFFFFF" width="7.7" height="1.7"/>
		
			<rect x="94.2" y="76.9" transform="matrix(0.7071 0.7071 -0.7071 0.7071 97.5976 -50.5943)" fill="#3E8EDE" width="31.2" height="31.2"/>
		
			<rect x="94.2" y="11.2" transform="matrix(0.7071 0.7071 -0.7071 0.7071 51.1746 -69.8239)" fill="#3E8EDE" width="31.2" height="31.2"/>
		
			<rect x="96.9" y="13.9" transform="matrix(0.7071 0.7071 -0.7071 0.7071 51.173 -69.8234)" fill="#630055" width="26" height="26"/>
		<g>
			<path fill="#FFFFFF" d="M71.2,50h8.4v3.2h-2.1v11.3h4.3c0.1,0,0.2,0,0.3-0.1c0.1-0.1,0.2-0.1,0.3-0.2c0.1-0.1,0.1-0.2,0.2-0.3
				c0.1-0.1,0.1-0.2,0.1-0.3v-2.4h4.2v6.5H71.2v-3.2h2V53.2h-2V50z"/>
			<path fill="#FFFFFF" d="M91.2,50h15.6V56h-4.2v-2.5h-5V57h3.9v3.4h-3.9v4.1h5v-3.2h4.2v6.4H91.2v-3.2h2.1v-11h-2.1V50z"/>
			<path fill="#FFFFFF" d="M121.8,64.5h2l-0.9-2.6h-6l-0.9,2.6h2.1v3.2h-7.4v-3.2h1.5l5.3-14.6h5.2l5.2,14.6h1.4v3.2h-7.4V64.5z
				 M117.8,59h4l-2-5.8L117.8,59z"/>
			<path fill="#FFFFFF" d="M133.2,50h7.5c0.9,0,1.8,0.1,2.6,0.3c0.8,0.2,1.6,0.5,2.3,0.9c0.7,0.4,1.4,0.8,1.9,1.4
				c0.6,0.5,1.1,1.1,1.5,1.8c0.4,0.7,0.7,1.4,1,2.1c0.2,0.8,0.3,1.5,0.3,2.4c0,0.8-0.1,1.6-0.3,2.4c-0.2,0.8-0.5,1.5-1,2.1
				c-0.4,0.7-0.9,1.3-1.5,1.8c-0.6,0.5-1.2,1-1.9,1.4c-0.7,0.4-1.5,0.7-2.3,0.9c-0.8,0.2-1.7,0.3-2.6,0.3h-7.5v-3.2h1.6V53.2h-1.6
				V50z M139,53.2v11.3h1.6c0.7,0,1.4-0.1,2-0.4c0.6-0.3,1.2-0.7,1.6-1.2c0.5-0.5,0.8-1.1,1.1-1.8c0.3-0.7,0.4-1.4,0.4-2.2
				c0-0.8-0.1-1.5-0.4-2.2c-0.3-0.7-0.6-1.3-1.1-1.8c-0.5-0.5-1-0.9-1.6-1.2c-0.6-0.3-1.3-0.4-2-0.4H139z"/>
		</g>
		<g>
			<path fill="#FFFFFF" d="M74.8,88.2c0,0.5-0.1,0.8-0.3,1.1c-0.2,0.3-0.4,0.6-0.7,0.8c-0.3,0.2-0.6,0.3-1,0.4
				c-0.4,0.1-0.8,0.1-1.2,0.1h-0.9v2.9h-1.9v-7.8h2.9c0.4,0,0.8,0,1.2,0.1c0.4,0.1,0.7,0.2,1,0.4c0.3,0.2,0.5,0.4,0.6,0.7
				C74.7,87.4,74.8,87.7,74.8,88.2z M72.9,88.2c0-0.2,0-0.3-0.1-0.5c-0.1-0.1-0.2-0.2-0.3-0.3c-0.1-0.1-0.3-0.1-0.4-0.1
				c-0.2,0-0.3,0-0.5,0h-0.8v1.8h0.8c0.2,0,0.3,0,0.5,0c0.2,0,0.3-0.1,0.4-0.2c0.1-0.1,0.2-0.2,0.3-0.3
				C72.8,88.5,72.9,88.4,72.9,88.2z"/>
			<path fill="#FFFFFF" d="M86,93.6L85.4,92h-3l-0.6,1.5h-2l3.3-7.8h1.8l3.2,7.8H86z M83.9,87.9l-1,2.7h2L83.9,87.9z"/>
			<path fill="#FFFFFF" d="M98.4,93.6l-1.7-3.1h-0.6v3.1h-1.8v-7.8h3c0.4,0,0.7,0,1.1,0.1c0.4,0.1,0.7,0.2,1,0.4
				c0.3,0.2,0.5,0.4,0.7,0.7c0.2,0.3,0.3,0.7,0.3,1.1c0,0.5-0.1,1-0.4,1.3c-0.3,0.4-0.7,0.6-1.2,0.8l2,3.3H98.4z M98.3,88.2
				c0-0.2,0-0.3-0.1-0.4c-0.1-0.1-0.2-0.2-0.3-0.3c-0.1-0.1-0.3-0.1-0.4-0.1c-0.2,0-0.3,0-0.4,0h-1v1.8H97c0.2,0,0.3,0,0.5,0
				c0.2,0,0.3-0.1,0.4-0.1c0.1-0.1,0.2-0.2,0.3-0.3C98.3,88.5,98.3,88.4,98.3,88.2z"/>
			<path fill="#FFFFFF" d="M110.2,87.4v6.2h-1.9v-6.2h-2.2v-1.6h6.3v1.6H110.2z"/>
			<path fill="#FFFFFF" d="M123.8,93.6l-3.1-5.1h0l0,5.1h-1.8v-7.8h2.1l3.1,5.1h0l0-5.1h1.8v7.8H123.8z"/>
			<path fill="#FFFFFF" d="M133,93.6v-7.8h5.2v1.6h-3.4v1.5h3.2v1.5h-3.2V92h3.6v1.6H133z"/>
			<path fill="#FFFFFF" d="M149.3,93.6l-1.7-3.1H147v3.1h-1.8v-7.8h3c0.4,0,0.7,0,1.1,0.1c0.4,0.1,0.7,0.2,1,0.4
				c0.3,0.2,0.5,0.4,0.7,0.7c0.2,0.3,0.3,0.7,0.3,1.1c0,0.5-0.1,1-0.4,1.3c-0.3,0.4-0.7,0.6-1.2,0.8l2,3.3H149.3z M149.3,88.2
				c0-0.2,0-0.3-0.1-0.4c-0.1-0.1-0.2-0.2-0.3-0.3c-0.1-0.1-0.3-0.1-0.4-0.1c-0.2,0-0.3,0-0.4,0h-1v1.8h0.9c0.2,0,0.3,0,0.5,0
				c0.2,0,0.3-0.1,0.4-0.1c0.1-0.1,0.2-0.2,0.3-0.3C149.2,88.5,149.3,88.4,149.3,88.2z"/>
		</g>
		<g>
			<path fill="#FFFFFF" d="M99.6,22.6c0-0.1-0.1-0.2-0.1-0.3l-0.4-0.5c0-0.1-0.1-0.1-0.1-0.2c0,0,0-0.1,0.1-0.1h1.7
				c0,0,0.1,0,0.1,0.1c0,0.1,0,0.1-0.1,0.1l-0.3,0.4c-0.1,0.1-0.1,0.2-0.1,0.3l0.5,2.6h0l0.6-2.6c0-0.1,0-0.2-0.1-0.3l-0.4-0.4
				c0,0-0.1-0.1-0.1-0.1c0,0,0.1-0.1,0.1-0.1h1.6c0,0,0.1,0,0.1,0.1c0,0.1,0,0.1-0.1,0.2l-0.4,0.5c-0.1,0.1-0.1,0.2-0.1,0.3l-1,4
				l0.9,4.2c0,0.2,0.1,0.3,0.2,0.4l0.4,0.5c0.1,0.1,0.1,0.2,0.1,0.2c0,0,0,0.1-0.1,0.1H101c0,0-0.1,0-0.1-0.1c0-0.1,0-0.1,0.1-0.2
				l0.3-0.5c0-0.1,0.1-0.2,0-0.3l-0.5-2.5h0l-0.5,2.4c0,0.1,0,0.2,0,0.3l0.4,0.5c0.1,0.1,0.1,0.1,0.1,0.2c0,0,0,0.1-0.1,0.1h-1.6
				c-0.1,0-0.1,0-0.1-0.1c0-0.1,0-0.1,0.1-0.2l0.4-0.5c0.1-0.1,0.1-0.2,0.2-0.4l0.9-3.8L99.6,22.6z"/>
			<path fill="#FFFFFF" d="M103.7,22.6c0-0.2,0-0.3-0.1-0.4l-0.3-0.4c0,0-0.1-0.1-0.1-0.1c0,0,0-0.1,0.1-0.1h1.7c0,0,0.1,0,0.1,0.1
				c0,0-0.1,0.1-0.1,0.1l-0.3,0.4c-0.1,0.1-0.1,0.2-0.1,0.4v8.6h0.4c0.1,0,0.2,0,0.3-0.2l0.7-2.7c0-0.1,0-0.1,0.1-0.1
				c0,0,0.1,0,0.1,0.1v3.4c0,0.1,0,0.2-0.1,0.2h-2.7c0,0-0.1,0-0.1-0.1c0,0,0.1-0.1,0.1-0.1l0.3-0.4c0.1-0.1,0.1-0.2,0.1-0.4V22.6z"
				/>
			<path fill="#FFFFFF" d="M108.6,29.6c0-0.1,0-0.1-0.1-0.1h-0.8c0,0-0.1,0-0.1,0.1l-0.2,1.5c0,0.1,0,0.2,0.1,0.2l0.2,0.3
				c0,0.1,0.1,0.1,0.1,0.2c0,0,0,0.1-0.1,0.1h-1.3c0,0-0.1,0-0.1-0.1c0,0,0-0.1,0.1-0.1l0.3-0.4c0.1-0.1,0.1-0.2,0.1-0.3l1-9.2
				c0-0.1,0-0.1,0.1-0.1h0.4c0.1,0,0.1,0.1,0.1,0.2l1,9.2c0,0.1,0,0.3,0.1,0.4l0.3,0.4c0,0,0.1,0.1,0.1,0.1c0,0,0,0.1-0.1,0.1h-1.6
				c-0.1,0-0.1,0-0.1-0.1c0,0,0-0.1,0.1-0.1l0.3-0.4c0-0.1,0.1-0.2,0.1-0.3L108.6,29.6z M108.4,28.8
				C108.5,28.8,108.5,28.7,108.4,28.8l-0.3-3.5h0l-0.4,3.4c0,0.1,0,0.1,0,0.1H108.4z"/>
			<path fill="#FFFFFF" d="M111.7,30.9c0,0.2,0,0.3,0.1,0.4l0.3,0.4c0,0,0.1,0.1,0.1,0.1c0,0,0,0.1-0.1,0.1h-1.7c0,0-0.1,0-0.1-0.1
				c0,0,0.1-0.1,0.1-0.1l0.3-0.4c0.1-0.1,0.1-0.2,0.1-0.4v-8.3c0-0.2,0-0.3-0.1-0.4l-0.3-0.4c0,0-0.1-0.1-0.1-0.1c0,0,0-0.1,0.1-0.1
				h1.4c1.1,0,1.7,0.8,1.7,2.5c0,1.5-0.4,2.1-0.8,2.4c0.4,0.2,0.7,0.8,0.7,1.5V31c0,0.1,0,0.2,0.1,0.2l0.4,0.5
				c0,0.1,0.1,0.1,0.1,0.2c0,0-0.1,0-0.1,0h-0.6c-0.5,0-0.7-0.4-0.7-0.9v-2.9c0-0.6-0.3-1.1-0.7-1.1h-0.2V30.9z M111.7,26.3h0.2
				c0.5,0,0.8-0.5,0.8-2.2c0-1.4-0.2-1.9-0.8-1.9h-0.2V26.3z"/>
			<path fill="#FFFFFF" d="M116.3,27.5c0-0.1,0-0.2-0.1-0.3l-0.3-0.3c0-0.1-0.1-0.1-0.1-0.1c0-0.1,0-0.1,0.1-0.1h1.6
				c0,0,0.1,0,0.1,0.1c0,0.1,0,0.1-0.1,0.1l-0.3,0.3c-0.1,0.1-0.1,0.2-0.1,0.3v4.3c0,0,0,0.1-0.1,0.1c0,0-0.1,0-0.1-0.1l-0.3-0.4
				c0,0-0.1-0.1-0.1-0.1c0,0-0.1,0-0.1,0.1c-0.2,0.3-0.5,0.4-0.7,0.4c-1.4,0-1.4-3.1-1.4-5.4c0-1.7,0.1-4.9,1.4-4.9
				c0.4,0,0.6,0.2,0.7,0.3c0,0,0.1,0.1,0.2,0.1c0.1,0,0.2-0.1,0.3-0.2c0.1-0.1,0.2-0.2,0.2-0.2c0.1,0,0.1,0.1,0.1,0.2v3.3
				c0,0.1,0,0.1-0.1,0.1c0,0-0.1-0.1-0.1-0.1c-0.2-1-0.7-2.8-1.2-2.8c-0.5,0-0.6,1.3-0.6,4.2c0,4,0.1,4.7,0.5,4.7
				c0.3,0,0.6-0.5,0.6-1.8V27.5z"/>
			<path fill="#FFFFFF" d="M119.2,26.3h0.2c0.1,0,0.1,0,0.1-0.1l0.4-1c0-0.1,0-0.1,0.1-0.1c0,0,0,0,0,0.1v2.9c0,0,0,0.1,0,0.1
				c0,0-0.1,0-0.1-0.1l-0.4-1c0-0.1-0.1-0.1-0.1-0.1h-0.2v4.2h0.6c0.1,0,0.3-0.1,0.3-0.2l0.6-2.6c0-0.1,0-0.1,0.1-0.1
				c0,0,0.1,0,0.1,0.1v3.4c0,0.1,0,0.1-0.1,0.1h-2.8c0,0-0.1,0-0.1-0.1c0,0,0.1-0.1,0.1-0.1l0.3-0.4c0.1-0.1,0.1-0.2,0.1-0.4v-8.3
				c0-0.2,0-0.3-0.1-0.4l-0.3-0.4c0,0-0.1-0.1-0.1-0.1c0,0,0-0.1,0.1-0.1h2.8c0,0,0.1,0.1,0.1,0.1v3.4c0,0.1,0,0.1-0.1,0.1
				c0,0-0.1,0-0.1-0.1l-0.6-2.6c0-0.2-0.1-0.3-0.3-0.3h-0.6V26.3z"/>
		</g>
	</g>
	<g>
		<polygon fill="#3E8EDE" points="167.1,30.4 150.1,13.4 69.5,13.4 52.6,30.3 52.6,86.4 69.7,103.5 150,103.5 167.1,86.4 		"/>
		<rect x="52.6" y="37.1" fill="#630055" width="114.6" height="41.6"/>
		<rect x="52.6" y="50.1" fill="#FFFFFF" width="7.7" height="1.7"/>
		<rect x="52.6" y="55" fill="#FFFFFF" width="7.7" height="1.7"/>
		<rect x="52.6" y="59.9" fill="#FFFFFF" width="7.7" height="1.7"/>
		<rect x="52.6" y="64.8" fill="#FFFFFF" width="7.7" height="1.7"/>
		<rect x="159.5" y="50.1" fill="#FFFFFF" width="7.7" height="1.7"/>
		<rect x="159.5" y="55" fill="#FFFFFF" width="7.7" height="1.7"/>
		<rect x="159.5" y="59.9" fill="#FFFFFF" width="7.7" height="1.7"/>
		<rect x="159.5" y="64.8" fill="#FFFFFF" width="7.7" height="1.7"/>
		
			<rect x="94.2" y="76.9" transform="matrix(0.7071 0.7071 -0.7071 0.7071 97.5976 -50.5943)" fill="#3E8EDE" width="31.2" height="31.2"/>
		
			<rect x="94.2" y="11.2" transform="matrix(0.7071 0.7071 -0.7071 0.7071 51.1746 -69.8239)" fill="#3E8EDE" width="31.2" height="31.2"/>
		
			<rect x="96.9" y="13.9" transform="matrix(0.7071 0.7071 -0.7071 0.7071 51.173 -69.8234)" fill="#630055" width="26" height="26"/>
		<g>
			<path fill="#FFFFFF" d="M71.2,50h8.4v3.2h-2.1v11.3h4.3c0.1,0,0.2,0,0.3-0.1c0.1-0.1,0.2-0.1,0.3-0.2c0.1-0.1,0.1-0.2,0.2-0.3
				c0.1-0.1,0.1-0.2,0.1-0.3v-2.4h4.2v6.5H71.2v-3.2h2V53.2h-2V50z"/>
			<path fill="#FFFFFF" d="M91.2,50h15.6V56h-4.2v-2.5h-5V57h3.9v3.4h-3.9v4.1h5v-3.2h4.2v6.4H91.2v-3.2h2.1v-11h-2.1V50z"/>
			<path fill="#FFFFFF" d="M121.8,64.5h2l-0.9-2.6h-6l-0.9,2.6h2.1v3.2h-7.4v-3.2h1.5l5.3-14.6h5.2l5.2,14.6h1.4v3.2h-7.4V64.5z
				 M117.8,59h4l-2-5.8L117.8,59z"/>
			<path fill="#FFFFFF" d="M133.2,50h7.5c0.9,0,1.8,0.1,2.6,0.3c0.8,0.2,1.6,0.5,2.3,0.9c0.7,0.4,1.4,0.8,1.9,1.4
				c0.6,0.5,1.1,1.1,1.5,1.8c0.4,0.7,0.7,1.4,1,2.1c0.2,0.8,0.3,1.5,0.3,2.4c0,0.8-0.1,1.6-0.3,2.4c-0.2,0.8-0.5,1.5-1,2.1
				c-0.4,0.7-0.9,1.3-1.5,1.8c-0.6,0.5-1.2,1-1.9,1.4c-0.7,0.4-1.5,0.7-2.3,0.9c-0.8,0.2-1.7,0.3-2.6,0.3h-7.5v-3.2h1.6V53.2h-1.6
				V50z M139,53.2v11.3h1.6c0.7,0,1.4-0.1,2-0.4c0.6-0.3,1.2-0.7,1.6-1.2c0.5-0.5,0.8-1.1,1.1-1.8c0.3-0.7,0.4-1.4,0.4-2.2
				c0-0.8-0.1-1.5-0.4-2.2c-0.3-0.7-0.6-1.3-1.1-1.8c-0.5-0.5-1-0.9-1.6-1.2c-0.6-0.3-1.3-0.4-2-0.4H139z"/>
		</g>
		<g>
			<path fill="#FFFFFF" d="M74.8,88.2c0,0.5-0.1,0.8-0.3,1.1c-0.2,0.3-0.4,0.6-0.7,0.8c-0.3,0.2-0.6,0.3-1,0.4
				c-0.4,0.1-0.8,0.1-1.2,0.1h-0.9v2.9h-1.9v-7.8h2.9c0.4,0,0.8,0,1.2,0.1c0.4,0.1,0.7,0.2,1,0.4c0.3,0.2,0.5,0.4,0.6,0.7
				C74.7,87.4,74.8,87.7,74.8,88.2z M72.9,88.2c0-0.2,0-0.3-0.1-0.5c-0.1-0.1-0.2-0.2-0.3-0.3c-0.1-0.1-0.3-0.1-0.4-0.1
				c-0.2,0-0.3,0-0.5,0h-0.8v1.8h0.8c0.2,0,0.3,0,0.5,0c0.2,0,0.3-0.1,0.4-0.2c0.1-0.1,0.2-0.2,0.3-0.3
				C72.8,88.5,72.9,88.4,72.9,88.2z"/>
			<path fill="#FFFFFF" d="M86,93.6L85.4,92h-3l-0.6,1.5h-2l3.3-7.8h1.8l3.2,7.8H86z M83.9,87.9l-1,2.7h2L83.9,87.9z"/>
			<path fill="#FFFFFF" d="M98.4,93.6l-1.7-3.1h-0.6v3.1h-1.8v-7.8h3c0.4,0,0.7,0,1.1,0.1c0.4,0.1,0.7,0.2,1,0.4
				c0.3,0.2,0.5,0.4,0.7,0.7c0.2,0.3,0.3,0.7,0.3,1.1c0,0.5-0.1,1-0.4,1.3c-0.3,0.4-0.7,0.6-1.2,0.8l2,3.3H98.4z M98.3,88.2
				c0-0.2,0-0.3-0.1-0.4c-0.1-0.1-0.2-0.2-0.3-0.3c-0.1-0.1-0.3-0.1-0.4-0.1c-0.2,0-0.3,0-0.4,0h-1v1.8H97c0.2,0,0.3,0,0.5,0
				c0.2,0,0.3-0.1,0.4-0.1c0.1-0.1,0.2-0.2,0.3-0.3C98.3,88.5,98.3,88.4,98.3,88.2z"/>
			<path fill="#FFFFFF" d="M110.2,87.4v6.2h-1.9v-6.2h-2.2v-1.6h6.3v1.6H110.2z"/>
			<path fill="#FFFFFF" d="M123.8,93.6l-3.1-5.1h0l0,5.1h-1.8v-7.8h2.1l3.1,5.1h0l0-5.1h1.8v7.8H123.8z"/>
			<path fill="#FFFFFF" d="M133,93.6v-7.8h5.2v1.6h-3.4v1.5h3.2v1.5h-3.2V92h3.6v1.6H133z"/>
			<path fill="#FFFFFF" d="M149.3,93.6l-1.7-3.1H147v3.1h-1.8v-7.8h3c0.4,0,0.7,0,1.1,0.1c0.4,0.1,0.7,0.2,1,0.4
				c0.3,0.2,0.5,0.4,0.7,0.7c0.2,0.3,0.3,0.7,0.3,1.1c0,0.5-0.1,1-0.4,1.3c-0.3,0.4-0.7,0.6-1.2,0.8l2,3.3H149.3z M149.3,88.2
				c0-0.2,0-0.3-0.1-0.4c-0.1-0.1-0.2-0.2-0.3-0.3c-0.1-0.1-0.3-0.1-0.4-0.1c-0.2,0-0.3,0-0.4,0h-1v1.8h0.9c0.2,0,0.3,0,0.5,0
				c0.2,0,0.3-0.1,0.4-0.1c0.1-0.1,0.2-0.2,0.3-0.3C149.2,88.5,149.3,88.4,149.3,88.2z"/>
		</g>
		<g>
			<path fill="#FFFFFF" d="M99.6,22.6c0-0.1-0.1-0.2-0.1-0.3l-0.4-0.5c0-0.1-0.1-0.1-0.1-0.2c0,0,0-0.1,0.1-0.1h1.7
				c0,0,0.1,0,0.1,0.1c0,0.1,0,0.1-0.1,0.1l-0.3,0.4c-0.1,0.1-0.1,0.2-0.1,0.3l0.5,2.6h0l0.6-2.6c0-0.1,0-0.2-0.1-0.3l-0.4-0.4
				c0,0-0.1-0.1-0.1-0.1c0,0,0.1-0.1,0.1-0.1h1.6c0,0,0.1,0,0.1,0.1c0,0.1,0,0.1-0.1,0.2l-0.4,0.5c-0.1,0.1-0.1,0.2-0.1,0.3l-1,4
				l0.9,4.2c0,0.2,0.1,0.3,0.2,0.4l0.4,0.5c0.1,0.1,0.1,0.2,0.1,0.2c0,0,0,0.1-0.1,0.1H101c0,0-0.1,0-0.1-0.1c0-0.1,0-0.1,0.1-0.2
				l0.3-0.5c0-0.1,0.1-0.2,0-0.3l-0.5-2.5h0l-0.5,2.4c0,0.1,0,0.2,0,0.3l0.4,0.5c0.1,0.1,0.1,0.1,0.1,0.2c0,0,0,0.1-0.1,0.1h-1.6
				c-0.1,0-0.1,0-0.1-0.1c0-0.1,0-0.1,0.1-0.2l0.4-0.5c0.1-0.1,0.1-0.2,0.2-0.4l0.9-3.8L99.6,22.6z"/>
			<path fill="#FFFFFF" d="M103.7,22.6c0-0.2,0-0.3-0.1-0.4l-0.3-0.4c0,0-0.1-0.1-0.1-0.1c0,0,0-0.1,0.1-0.1h1.7c0,0,0.1,0,0.1,0.1
				c0,0-0.1,0.1-0.1,0.1l-0.3,0.4c-0.1,0.1-0.1,0.2-0.1,0.4v8.6h0.4c0.1,0,0.2,0,0.3-0.2l0.7-2.7c0-0.1,0-0.1,0.1-0.1
				c0,0,0.1,0,0.1,0.1v3.4c0,0.1,0,0.2-0.1,0.2h-2.7c0,0-0.1,0-0.1-0.1c0,0,0.1-0.1,0.1-0.1l0.3-0.4c0.1-0.1,0.1-0.2,0.1-0.4V22.6z"
				/>
			<path fill="#FFFFFF" d="M108.6,29.6c0-0.1,0-0.1-0.1-0.1h-0.8c0,0-0.1,0-0.1,0.1l-0.2,1.5c0,0.1,0,0.2,0.1,0.2l0.2,0.3
				c0,0.1,0.1,0.1,0.1,0.2c0,0,0,0.1-0.1,0.1h-1.3c0,0-0.1,0-0.1-0.1c0,0,0-0.1,0.1-0.1l0.3-0.4c0.1-0.1,0.1-0.2,0.1-0.3l1-9.2
				c0-0.1,0-0.1,0.1-0.1h0.4c0.1,0,0.1,0.1,0.1,0.2l1,9.2c0,0.1,0,0.3,0.1,0.4l0.3,0.4c0,0,0.1,0.1,0.1,0.1c0,0,0,0.1-0.1,0.1h-1.6
				c-0.1,0-0.1,0-0.1-0.1c0,0,0-0.1,0.1-0.1l0.3-0.4c0-0.1,0.1-0.2,0.1-0.3L108.6,29.6z M108.4,28.8
				C108.5,28.8,108.5,28.7,108.4,28.8l-0.3-3.5h0l-0.4,3.4c0,0.1,0,0.1,0,0.1H108.4z"/>
			<path fill="#FFFFFF" d="M111.7,30.9c0,0.2,0,0.3,0.1,0.4l0.3,0.4c0,0,0.1,0.1,0.1,0.1c0,0,0,0.1-0.1,0.1h-1.7c0,0-0.1,0-0.1-0.1
				c0,0,0.1-0.1,0.1-0.1l0.3-0.4c0.1-0.1,0.1-0.2,0.1-0.4v-8.3c0-0.2,0-0.3-0.1-0.4l-0.3-0.4c0,0-0.1-0.1-0.1-0.1c0,0,0-0.1,0.1-0.1
				h1.4c1.1,0,1.7,0.8,1.7,2.5c0,1.5-0.4,2.1-0.8,2.4c0.4,0.2,0.7,0.8,0.7,1.5V31c0,0.1,0,0.2,0.1,0.2l0.4,0.5
				c0,0.1,0.1,0.1,0.1,0.2c0,0-0.1,0-0.1,0h-0.6c-0.5,0-0.7-0.4-0.7-0.9v-2.9c0-0.6-0.3-1.1-0.7-1.1h-0.2V30.9z M111.7,26.3h0.2
				c0.5,0,0.8-0.5,0.8-2.2c0-1.4-0.2-1.9-0.8-1.9h-0.2V26.3z"/>
			<path fill="#FFFFFF" d="M116.3,27.5c0-0.1,0-0.2-0.1-0.3l-0.3-0.3c0-0.1-0.1-0.1-0.1-0.1c0-0.1,0-0.1,0.1-0.1h1.6
				c0,0,0.1,0,0.1,0.1c0,0.1,0,0.1-0.1,0.1l-0.3,0.3c-0.1,0.1-0.1,0.2-0.1,0.3v4.3c0,0,0,0.1-0.1,0.1c0,0-0.1,0-0.1-0.1l-0.3-0.4
				c0,0-0.1-0.1-0.1-0.1c0,0-0.1,0-0.1,0.1c-0.2,0.3-0.5,0.4-0.7,0.4c-1.4,0-1.4-3.1-1.4-5.4c0-1.7,0.1-4.9,1.4-4.9
				c0.4,0,0.6,0.2,0.7,0.3c0,0,0.1,0.1,0.2,0.1c0.1,0,0.2-0.1,0.3-0.2c0.1-0.1,0.2-0.2,0.2-0.2c0.1,0,0.1,0.1,0.1,0.2v3.3
				c0,0.1,0,0.1-0.1,0.1c0,0-0.1-0.1-0.1-0.1c-0.2-1-0.7-2.8-1.2-2.8c-0.5,0-0.6,1.3-0.6,4.2c0,4,0.1,4.7,0.5,4.7
				c0.3,0,0.6-0.5,0.6-1.8V27.5z"/>
			<path fill="#FFFFFF" d="M119.2,26.3h0.2c0.1,0,0.1,0,0.1-0.1l0.4-1c0-0.1,0-0.1,0.1-0.1c0,0,0,0,0,0.1v2.9c0,0,0,0.1,0,0.1
				c0,0-0.1,0-0.1-0.1l-0.4-1c0-0.1-0.1-0.1-0.1-0.1h-0.2v4.2h0.6c0.1,0,0.3-0.1,0.3-0.2l0.6-2.6c0-0.1,0-0.1,0.1-0.1
				c0,0,0.1,0,0.1,0.1v3.4c0,0.1,0,0.1-0.1,0.1h-2.8c0,0-0.1,0-0.1-0.1c0,0,0.1-0.1,0.1-0.1l0.3-0.4c0.1-0.1,0.1-0.2,0.1-0.4v-8.3
				c0-0.2,0-0.3-0.1-0.4l-0.3-0.4c0,0-0.1-0.1-0.1-0.1c0,0,0-0.1,0.1-0.1h2.8c0,0,0.1,0.1,0.1,0.1v3.4c0,0.1,0,0.1-0.1,0.1
				c0,0-0.1,0-0.1-0.1l-0.6-2.6c0-0.2-0.1-0.3-0.3-0.3h-0.6V26.3z"/>
		</g>
	</g>
</g>
<g id="Layer_3">
</g>
</svg>
