<?xml version="1.0" encoding="utf-8"?>
<!-- Generator: Adobe Illustrator 18.1.0, SVG Export Plug-In . SVG Version: 6.00 Build 0)  -->
<svg version="1.1" xmlns="http://www.w3.org/2000/svg" xmlns:xlink="http://www.w3.org/1999/xlink" x="0px" y="0px"
	 viewBox="0 0 220 120" enable-background="new 0 0 220 120" xml:space="preserve">
<g id="Format__x2F__Guides">
</g>
<g id="Logos">
	<g>
		<g>
			<defs>
				<rect id="SVGID_11_" x="54.3" y="4.9" width="111.4" height="110.2"/>
			</defs>
			<clipPath id="SVGID_2_">
				<use xlink:href="#SVGID_11_"  overflow="visible"/>
			</clipPath>
			<path clip-path="url(#SVGID_2_)" fill="#630055" d="M54.6,88.6l0.2-0.6h0.5h-0.5L54.6,88.6l-0.3-0.2V31.6L110,4.9l55.7,26.7v56.8
				L110,115.1L54.6,88.6z M110,113.7l54.7-26.2V32.5L110,6.2L55.3,32.5v55.1L110,113.7z"/>
		</g>
	</g>
	<g>
		<g>
			<defs>
				<rect id="SVGID_13_" x="56.4" y="7.8" width="107.2" height="104.4"/>
			</defs>
			<clipPath id="SVGID_4_">
				<use xlink:href="#SVGID_13_"  overflow="visible"/>
			</clipPath>
			<path clip-path="url(#SVGID_4_)" fill="#630055" d="M56.7,86.6l0.2-0.6h0.5h-0.5L56.7,86.6l-0.3-0.2v-53L110,7.8l53.6,25.7v53
				L110,112.2L56.7,86.6z M110,110.8l52.6-25.2V34.4L110,9.1L57.4,34.4v51.2L110,110.8z"/>
		</g>
	</g>
	<polygon fill="#630055" points="58.3,35.2 110,10.4 161.7,35.2 161.7,84.8 110,109.6 58.3,84.8 	"/>
	<rect x="83.3" y="50.9" fill="#FFFFFF" width="20" height="0.5"/>
	<rect x="116.7" y="50.9" fill="#FFFFFF" width="20" height="0.5"/>
	<path fill="#FFFFFF" d="M114.9,50.5c0.7-0.8,1.3-1.4,1.2-2.3c-0.1-0.9-0.6-1.8-1.9-1.8c-1.2,0-3.2,1.4-3.5,4h-0.6
		c0-0.5,0.1-1,0.2-1.5c0.3-1.4,1.3-2.3,1.3-3.6c0-1.3-0.5-1.7-1-2.4c-0.5-0.6-0.7-1.1-0.7-1.1s-0.2,0.5-0.7,1.1
		c-0.5,0.6-1,1.1-1,2.4c0,1.3,1,2.2,1.3,3.6c0.1,0.5,0.2,1.1,0.2,1.5h-0.6c-0.3-2.7-2.2-4-3.5-4c-1.3,0-1.8,0.9-1.9,1.8
		c-0.1,0.9,0.5,1.5,1.2,2.3c0.7,0.8,0.5,1.3-0.4,1.4c1,0.6,1.9-0.2,1.9-1c0-0.9-0.8-1.4-0.8-1.9c-0.1-0.5,0.3-1.1,1-1
		c1.4,0.2,1.9,1.6,2,2.5h-0.3c-0.3,0-0.5,0.2-0.5,0.4c0,0.2,0.2,0.4,0.5,0.4h0.4c0,1.1-0.4,1.7-0.9,1.7c-0.5,0-0.6-0.5-0.3-0.5
		c-0.3-0.6-1.1-0.4-1.3,0.2c-0.1,0.6,0.4,1.1,1,1.2c0.6,0,1.7-0.1,1.9-2.5h0.6c0,0.2,0,0.8-0.3,1.8c-0.4,1.1-0.2,1.4,0.4,2.4
		c0.7-0.9,0.8-1.3,0.4-2.4c-0.3-0.9-0.3-1.6-0.3-1.8h0.6c0.2,2.4,1.3,2.6,1.9,2.5c0.6,0,1.1-0.6,1-1.2c-0.1-0.5-0.9-0.8-1.3-0.2
		c0.3,0.1,0.3,0.6-0.3,0.5c-0.5,0-0.8-0.7-0.9-1.7h0.5c0.3,0,0.5-0.2,0.5-0.4c0-0.2-0.2-0.4-0.5-0.4h-0.4c0.1-0.9,0.7-2.3,2-2.5
		c0.7-0.1,1,0.5,1,1c-0.1,0.5-0.8,1-0.8,1.9c0,0.9,0.8,1.7,1.9,1C114.4,51.8,114.2,51.3,114.9,50.5"/>
	<g>
		<g>
			<path fill="#FE5901" d="M74.5,67.9c0,0.4,0,0.5-0.2,0.9c3.1,0,4.8-1.1,4.8-3.2c0-1.8-1.7-2.9-4.7-2.9c-2.1,0-4.1,0.4-6.2,1.4
				l0.4-3.9c1.9-0.7,4-1.1,6-1.1c4.9,0,8.1,2.5,8.1,6.4c0,4.1-3.2,6.8-8.3,6.9H74l-0.6,5.2h-3.7l1.6-13.7H75L74.5,67.9z"/>
			<path fill="#FE5901" d="M95.2,65.8l-0.7,6.5c0,0.5-0.1,0.7-0.1,1c0,0.6,0.2,0.8,0.7,0.8c0.4,0,0.7-0.1,1.4-0.4L96,77
				c-0.8,0.5-1.4,0.7-2.2,0.7c-1.2,0-2-0.5-2.7-1.6c-1.2,1.4-2.3,1.9-3.9,1.9c-2.5,0-4.1-1.8-4.1-4.6c0-4.1,2.8-7.8,5.8-7.8
				c1,0,1.6,0.2,2.7,1.1l0.1,0c0-0.1-0.1-0.2-0.1-0.3l0-0.1l0-0.3H95.2z M89.7,69.1c-1.5,0-2.9,2-2.9,4c0,0.9,0.5,1.6,1.2,1.6
				c1.1,0,2.2-1.5,3.3-4.3C90.9,69.5,90.3,69.1,89.7,69.1z"/>
			<path fill="#FE5901" d="M96.9,75.1c0.3-0.8,0.6-1.5,1-3c0.4-1.4,0.5-1.9,0.7-2.7c-0.5-0.7-0.6-1-0.6-1.7c0-0.9,0.3-1.8,0.8-2.9
				c0.4,0,0.6,0,0.9,0c0.9,0,1.5,0,2,0.2c0.1,0.6,0.1,0.8,0.2,1.4c0.7,0,1,0,1.6,0c1.7,0,2.6-0.1,3.8-0.4l-1.1,6.4l-0.1,0.7
				c0,0.3,0,0.5,0,0.7c0,0.5,0.2,0.8,0.6,0.8c0.5,0,0.9-0.1,1.4-0.4l-0.4,3.3c-0.8,0.4-1.5,0.6-2.3,0.6c-1.7,0-2.8-1.3-2.8-3.4
				c0-0.5,0-0.9,0.2-2.1l0.3-1.9c0-0.4,0.1-0.5,0.2-0.9c-0.8,0-1,0-1.9,0c-0.5,2.3-1,3.8-1.6,5.4L96.9,75.1z"/>
			<path fill="#FE5901" d="M115.5,69.2h-1.9l-0.3,3c0,0.4-0.1,1.2-0.1,1.4c0,0.5,0.2,0.8,0.7,0.8c0.4,0,0.8-0.1,1.8-0.7l-0.4,3.3
				c-1,0.6-1.8,0.9-2.7,0.9c-1.7,0-2.9-1.3-2.9-3.3c0-0.6,0-1,0.1-1.7l0.3-3c0-0.4,0-0.5,0.1-0.8c-0.3,0-0.4,0-0.8,0h-0.8l0.4-3.4
				h1.5l0.5-4.1h3.4l-0.4,3.4c0,0.4,0,0.5-0.1,0.8c0.3,0,0.4,0,0.8,0h1.1L115.5,69.2z"/>
			<path fill="#FE5901" d="M121.2,65.8l-0.1,1c0,0.4-0.1,0.7-0.4,1.4l0.1,0c1.5-2.1,2.8-2.9,4.3-2.9c1.7,0,2.9,1.2,2.9,2.8
				c0,0.3,0,1.1-0.1,1.4l-0.3,2.5c-0.1,0.7-0.1,1-0.1,1.2c0,0.7,0.2,0.9,0.8,0.9c0.4,0,0.9-0.2,1.3-0.5l-0.4,3.3
				c-0.6,0.4-1.6,0.7-2.3,0.7c-1.8,0-3-1.2-3-3.1c0-0.3,0-0.5,0-0.8l0.1-0.7l0.2-1.9c0-0.2,0-0.4,0.1-0.5c0-0.2,0-0.3,0-0.4
				c0-0.5-0.1-0.7-0.5-0.7c-0.5,0-1.1,0.6-1.9,1.8c-1,1.6-1.7,3.4-2.1,6.1h-3.5l1.3-11.7H121.2z"/>
			<path fill="#FE5901" d="M141.1,76.5c-1.7,1-3.5,1.5-5.1,1.5c-3.3,0-5.5-2.2-5.5-5.6c0-3.7,2.8-6.9,6.2-6.9c2.3,0,4.1,1.7,4.1,3.9
				c0,2.5-2,3.9-6.3,4.4l0,0.1c0.5,0.6,1.1,0.8,2,0.8c1.5,0,3.4-0.7,5.2-1.9L141.1,76.5z M137,69.3c0-0.3-0.3-0.6-0.6-0.6
				c-0.8,0-1.9,1.1-2.2,2.4C135.6,71,137,70.2,137,69.3z"/>
			<path fill="#FE5901" d="M142,75.1c0.3-0.8,0.6-1.5,1-3c0.4-1.4,0.5-1.9,0.7-2.7c-0.5-0.7-0.6-1-0.6-1.7c0-0.9,0.3-1.8,0.8-2.9
				c0.4,0,0.6,0,0.9,0c0.9,0,1.5,0,2,0.2c0.1,0.6,0.1,0.8,0.2,1.4c0.7,0,1,0,1.6,0c1.7,0,2.6-0.1,3.8-0.4l-1.1,6.4l-0.1,0.7
				c0,0.3,0,0.5,0,0.7c0,0.5,0.2,0.8,0.6,0.8c0.5,0,0.9-0.1,1.4-0.4l-0.4,3.3c-0.8,0.4-1.5,0.6-2.3,0.6c-1.7,0-2.8-1.3-2.8-3.4
				c0-0.5,0-0.9,0.2-2.1l0.3-1.9c0-0.4,0.1-0.5,0.2-0.9c-0.8,0-1,0-1.9,0c-0.5,2.3-1,3.8-1.6,5.4L142,75.1z"/>
		</g>
		<g>
			<path fill="#FFFFFF" stroke="#630055" stroke-width="0.5" stroke-miterlimit="10" d="M73.2,66.6c0,0.4,0,0.5-0.2,0.9
				c3.1,0,4.8-1.1,4.8-3.2c0-1.8-1.7-2.9-4.7-2.9c-2.1,0-4.1,0.4-6.2,1.4l0.4-3.9c1.9-0.7,4-1.1,6-1.1c4.9,0,8.1,2.5,8.1,6.4
				c0,4.1-3.2,6.8-8.3,6.9h-0.6l-0.6,5.2h-3.7l1.6-13.7h3.7L73.2,66.6z"/>
			<path fill="#FFFFFF" stroke="#630055" stroke-width="0.5" stroke-miterlimit="10" d="M93.8,64.5l-0.7,6.5c0,0.5-0.1,0.7-0.1,1
				c0,0.6,0.2,0.8,0.7,0.8c0.4,0,0.7-0.1,1.4-0.4l-0.4,3.2c-0.8,0.5-1.4,0.7-2.2,0.7c-1.2,0-2-0.5-2.7-1.6c-1.2,1.4-2.3,1.9-3.9,1.9
				c-2.5,0-4.1-1.8-4.1-4.6c0-4.1,2.8-7.8,5.8-7.8c1,0,1.6,0.2,2.7,1.1l0.1,0c0-0.1-0.1-0.2-0.1-0.3l0-0.1l0-0.3H93.8z M88.3,67.8
				c-1.5,0-2.9,2-2.9,4c0,0.9,0.5,1.6,1.2,1.6c1.1,0,2.2-1.5,3.3-4.3C89.5,68.2,89,67.8,88.3,67.8z"/>
			<path fill="#FFFFFF" stroke="#630055" stroke-width="0.5" stroke-miterlimit="10" d="M95.6,73.8c0.3-0.8,0.6-1.5,1-3
				c0.4-1.4,0.5-1.9,0.7-2.7c-0.5-0.7-0.6-1-0.6-1.7c0-0.9,0.3-1.8,0.8-2.9c0.4,0,0.6,0,0.9,0c0.9,0,1.5,0,2,0.2
				c0.1,0.6,0.1,0.8,0.2,1.4c0.7,0,1,0,1.6,0c1.7,0,2.6-0.1,3.8-0.4l-1.1,6.4l-0.1,0.7c0,0.3,0,0.5,0,0.7c0,0.5,0.2,0.8,0.6,0.8
				c0.5,0,0.9-0.1,1.4-0.4l-0.4,3.3c-0.8,0.4-1.5,0.6-2.3,0.6c-1.7,0-2.8-1.3-2.8-3.4c0-0.5,0-0.9,0.2-2.1l0.3-1.9
				c0-0.4,0.1-0.5,0.2-0.9c-0.8,0-1,0-1.9,0c-0.5,2.3-1,3.8-1.6,5.4L95.6,73.8z"/>
			<path fill="#FFFFFF" stroke="#630055" stroke-width="0.5" stroke-miterlimit="10" d="M114.2,67.9h-1.9l-0.3,3
				c0,0.4-0.1,1.2-0.1,1.4c0,0.5,0.2,0.8,0.7,0.8c0.4,0,0.8-0.1,1.8-0.7l-0.4,3.3c-1,0.6-1.8,0.9-2.7,0.9c-1.7,0-2.9-1.3-2.9-3.3
				c0-0.6,0-1,0.1-1.7l0.3-3c0-0.4,0-0.5,0.1-0.8c-0.3,0-0.4,0-0.8,0h-0.8l0.4-3.4h1.5l0.5-4.1h3.4l-0.4,3.4c0,0.4,0,0.5-0.1,0.8
				c0.3,0,0.4,0,0.8,0h1.1L114.2,67.9z"/>
			<path fill="#FFFFFF" stroke="#630055" stroke-width="0.5" stroke-miterlimit="10" d="M119.9,64.5l-0.1,1c0,0.4-0.1,0.7-0.4,1.4
				l0.1,0c1.5-2.1,2.8-2.9,4.3-2.9c1.7,0,2.9,1.2,2.9,2.8c0,0.3,0,1.1-0.1,1.4l-0.3,2.5c-0.1,0.7-0.1,1-0.1,1.2
				c0,0.7,0.2,0.9,0.8,0.9c0.4,0,0.9-0.2,1.3-0.5l-0.4,3.3c-0.6,0.4-1.6,0.7-2.3,0.7c-1.8,0-3-1.2-3-3.1c0-0.3,0-0.5,0-0.8l0.1-0.7
				L123,70c0-0.2,0-0.4,0.1-0.5c0-0.2,0-0.3,0-0.4c0-0.5-0.1-0.7-0.5-0.7c-0.5,0-1.1,0.6-1.9,1.8c-1,1.6-1.7,3.4-2.1,6.1h-3.5
				l1.3-11.7H119.9z"/>
			<path fill="#FFFFFF" stroke="#630055" stroke-width="0.5" stroke-miterlimit="10" d="M139.8,75.1c-1.7,1-3.5,1.5-5.1,1.5
				c-3.3,0-5.5-2.2-5.5-5.6c0-3.7,2.8-6.9,6.2-6.9c2.3,0,4.1,1.7,4.1,3.9c0,2.5-2,3.9-6.3,4.4l0,0.1c0.5,0.6,1.1,0.8,2,0.8
				c1.5,0,3.4-0.7,5.2-1.9L139.8,75.1z M135.7,67.9c0-0.3-0.3-0.6-0.6-0.6c-0.8,0-1.9,1.1-2.2,2.4C134.3,69.7,135.7,68.9,135.7,67.9
				z"/>
			<path fill="#FFFFFF" stroke="#630055" stroke-width="0.5" stroke-miterlimit="10" d="M140.7,73.8c0.3-0.8,0.6-1.5,1-3
				c0.4-1.4,0.5-1.9,0.7-2.7c-0.5-0.7-0.6-1-0.6-1.7c0-0.9,0.3-1.8,0.8-2.9c0.4,0,0.6,0,0.9,0c0.9,0,1.5,0,2,0.2
				c0.1,0.6,0.1,0.8,0.2,1.4c0.7,0,1,0,1.6,0c1.7,0,2.6-0.1,3.8-0.4l-1.1,6.4l-0.1,0.7c0,0.3,0,0.5,0,0.7c0,0.5,0.2,0.8,0.6,0.8
				c0.5,0,0.9-0.1,1.4-0.4l-0.4,3.3c-0.8,0.4-1.5,0.6-2.3,0.6c-1.7,0-2.8-1.3-2.8-3.4c0-0.5,0-0.9,0.2-2.1l0.3-1.9
				c0-0.4,0.1-0.5,0.2-0.9c-0.8,0-1,0-1.9,0c-0.5,2.3-1,3.8-1.6,5.4L140.7,73.8z"/>
		</g>
	</g>
	<g>
		<g>
			<path fill="#FE5901" d="M70.5,43.5l0.8-0.9l2,1.8l-0.8,0.9c-0.9-0.4-1.7-0.3-2.3,0.4c-0.5,0.5-0.6,1.1-0.5,1.7
				c0.1,0.6,0.5,1.1,1,1.6c0.5,0.5,1.1,0.7,1.7,0.8c0.6,0,1.1-0.2,1.5-0.6c0.3-0.4,0.5-0.8,0.5-1.3c0-0.5-0.2-1-0.6-1.5l1.5-0.6
				c1,1.6,0.8,3-0.4,4.4c-0.9,1-1.8,1.4-2.8,1.4c-1,0-1.9-0.4-2.7-1.1c-0.6-0.5-1-1.1-1.2-1.8s-0.3-1.3-0.1-1.9
				c0.2-0.6,0.5-1.2,0.9-1.7c0.6-0.6,1.2-1,2-1.1L70.5,43.5z"/>
			<path fill="#FE5901" d="M76.2,38.4c1-0.8,2-1,3-0.9c1,0.2,1.9,0.7,2.5,1.5c0.7,0.9,0.9,1.8,0.8,2.8c-0.1,1-0.7,1.9-1.6,2.7
				c-1,0.8-2,1.1-3.1,0.9c-1-0.2-1.8-0.7-2.5-1.5c-0.7-0.9-0.9-1.8-0.8-2.8S75.2,39.1,76.2,38.4z M77,39.5c-0.4,0.3-0.7,0.8-0.7,1.4
				c0,0.6,0.2,1.2,0.7,1.9c0.5,0.6,1,1,1.5,1.1s1.1,0,1.5-0.3c0.4-0.3,0.7-0.8,0.7-1.4c0-0.6-0.2-1.2-0.7-1.9
				c-0.4-0.6-1-0.9-1.5-1.1C78,39,77.5,39.1,77,39.5z"/>
			<path fill="#FE5901" d="M84.6,41.7L84,40.6l0.9-0.4l-2.3-4.5l-0.9,0.4L81.2,35l2.7-1.4l4.5,3l-1.6-3.1L86,34l-0.6-1.1l2.9-1.4
				l0.6,1.1L88,33l2.9,5.7l-1.4,0.7l-5.3-3.6l1.9,3.8l0.8-0.4l0.6,1.1L84.6,41.7z"/>
			<path fill="#FE5901" d="M93.3,37.7l-0.4-1.2l1-0.3l-1.5-4.8l-1,0.3l0.5,1.7l-1.2,0.4l-0.9-2.9l6.2-1.9l0.9,2.9l-1.2,0.4l-0.5-1.7
				l-1.1,0.3l1.5,4.8l1-0.3l0.4,1.2L93.3,37.7z"/>
			<path fill="#FE5901" d="M106,33.6l0.2,1.3l-2.2,0.3l-2.1-3l-0.8,0.1l0.3,2l0.9-0.1l0.2,1.3L98.8,36l-0.2-1.3l1-0.1l-0.7-5l-1,0.1
				l-0.2-1.3l4.3-0.6c0.8-0.1,1.4,0,1.8,0.4s0.7,0.8,0.8,1.4c0.1,0.9-0.2,1.5-1,2l1.5,2.1L106,33.6z M101,31.1l0.6-0.1
				c0.8-0.1,1.1-0.5,1-1.1c0-0.3-0.2-0.5-0.4-0.6c-0.2-0.1-0.5-0.2-0.8-0.1l-0.8,0.1L101,31.1z"/>
			<path fill="#FE5901" d="M106.4,35l0-1.3l1.1,0l-0.1-5l-1.1,0l0-1.3l4.1-0.1l0,1.3l-1.1,0l0.1,5l1.1,0l0,1.3L106.4,35z"/>
			<path fill="#FE5901" d="M111,34.8l0.1-1.3l0.9,0.1l0.5-5l-0.9-0.1l0.1-1.3l3.3,0.3c0.7,0.1,1.3,0.2,1.6,0.3s0.6,0.4,0.8,0.7
				c0.2,0.4,0.3,0.8,0.3,1.2c-0.1,0.7-0.5,1.2-1.2,1.5c0.8,0.4,1.2,1.1,1.1,1.9c0,0.5-0.2,0.9-0.5,1.2c-0.3,0.3-0.7,0.5-1.1,0.6
				c-0.4,0.1-1,0.1-1.8,0L111,34.8z M113.9,33.8l0.5,0.1c0.5,0,0.8,0,1-0.1c0.2-0.1,0.3-0.4,0.4-0.7c0-0.4,0-0.7-0.2-0.8
				c-0.2-0.2-0.5-0.3-0.9-0.3l-0.5-0.1L113.9,33.8z M114.2,30.5l0.5,0.1c0.4,0,0.6,0,0.8-0.1s0.3-0.3,0.3-0.7c0-0.3,0-0.5-0.2-0.7
				c-0.2-0.1-0.4-0.2-0.9-0.3l-0.5,0L114.2,30.5z"/>
			<path fill="#FE5901" d="M119.5,29.4l0.3-1.2l3.3,0.8l-0.3,1.2l-0.7-0.2l-0.8,3.3c-0.1,0.4-0.2,0.8-0.2,1s0,0.4,0.2,0.6
				c0.1,0.2,0.3,0.3,0.5,0.3c0.2,0.1,0.4,0,0.6,0s0.3-0.2,0.4-0.4c0.1-0.2,0.2-0.5,0.3-1.1l0.8-3.2l-0.7-0.2l0.3-1.2l2.8,0.7
				l-0.3,1.2l-0.9-0.2l-0.9,3.7c-0.1,0.5-0.2,0.9-0.3,1.1c-0.1,0.2-0.3,0.4-0.5,0.6c-0.2,0.2-0.5,0.3-0.9,0.3
				c-0.4,0.1-0.8,0-1.2-0.1c-0.5-0.1-0.9-0.3-1.3-0.6s-0.5-0.5-0.7-0.8c-0.1-0.3-0.2-0.6-0.2-0.8c0-0.3,0.1-0.7,0.2-1.3l0.8-3.3
				L119.5,29.4z"/>
			<path fill="#FE5901" d="M126.2,37.8l0.5-1.2l1,0.4l1.9-4.6l-1-0.4l-0.7,1.6l-1.1-0.5l1.2-2.8l6,2.5l-1.2,2.8l-1.1-0.5l0.7-1.6
				l-1-0.4l-1.9,4.6l1,0.4l-0.5,1.2L126.2,37.8z"/>
			<path fill="#FE5901" d="M131.5,40.2l0.6-1.1l0.9,0.5l2.5-4.3l-0.9-0.5l0.6-1.1l3.5,2l-0.6,1.1l-1-0.5l-2.5,4.3l1,0.5l-0.6,1.1
				L131.5,40.2z"/>
			<path fill="#FE5901" d="M135.4,42.4l0.8-1l0.8,0.6l3.1-4l-0.8-0.6l0.8-1l2.4,1.9l-0.8,5.3l2.1-2.7l-0.7-0.6l0.8-1l2.5,2l-0.8,1
				l-0.8-0.6l-3.9,5l-1.3-1l1-6.3l-2.6,3.4l0.7,0.6l-0.8,1L135.4,42.4z"/>
			<path fill="#FE5901" d="M147,49.3l1-0.8l2.2,2.5c-0.7,0.6-1.3,1-2,1.1c-0.6,0.1-1.2,0.1-1.9-0.2c-0.6-0.2-1.2-0.7-1.7-1.2
				c-0.9-1-1.2-2-1.1-3c0.1-1,0.6-1.9,1.4-2.6c0.6-0.5,1.2-0.8,1.9-1c0.7-0.1,1.3-0.1,1.9,0.1s1.1,0.6,1.6,1.1
				c0.6,0.7,0.9,1.4,0.9,2.2l0.5-0.4l0.8,0.9l-2,1.8l-0.8-0.9c0.3-0.4,0.4-0.8,0.3-1.3c-0.1-0.5-0.2-0.8-0.5-1.2
				c-0.4-0.4-0.9-0.7-1.4-0.7c-0.6,0-1.2,0.2-1.7,0.7c-0.6,0.6-1,1.2-1.1,1.8c-0.1,0.6,0.1,1.1,0.5,1.6c0.3,0.3,0.6,0.5,1,0.6
				c0.4,0.1,0.7,0,1.1-0.2L147,49.3z"/>
		</g>
		<g>
			<path fill="#FFFFFF" stroke="#630055" stroke-width="0.5" stroke-miterlimit="10" d="M70.5,42.4l0.8-0.9l2,1.8l-0.8,0.9
				c-0.9-0.4-1.7-0.3-2.3,0.4c-0.5,0.5-0.6,1.1-0.5,1.7c0.1,0.6,0.5,1.1,1,1.6c0.5,0.5,1.1,0.7,1.7,0.8c0.6,0,1.1-0.2,1.5-0.6
				c0.3-0.4,0.5-0.8,0.5-1.3c0-0.5-0.2-1-0.6-1.5l1.5-0.6c1,1.6,0.8,3-0.4,4.4c-0.9,1-1.8,1.4-2.8,1.4c-1,0-1.9-0.4-2.7-1.1
				c-0.6-0.5-1-1.1-1.2-1.8s-0.3-1.3-0.1-1.9c0.2-0.6,0.5-1.2,0.9-1.7c0.6-0.6,1.2-1,2-1.1L70.5,42.4z"/>
			<path fill="#FFFFFF" stroke="#630055" stroke-width="0.5" stroke-miterlimit="10" d="M76.2,37.3c1-0.8,2-1,3-0.9
				c1,0.2,1.9,0.7,2.5,1.5c0.7,0.9,0.9,1.8,0.8,2.8c-0.1,1-0.7,1.9-1.6,2.7c-1,0.8-2,1.1-3.1,0.9c-1-0.2-1.8-0.7-2.5-1.5
				c-0.7-0.9-0.9-1.8-0.8-2.8S75.2,38,76.2,37.3z M77,38.4c-0.4,0.3-0.7,0.8-0.7,1.4c0,0.6,0.2,1.2,0.7,1.9c0.5,0.6,1,1,1.5,1.1
				s1.1,0,1.5-0.3c0.4-0.3,0.7-0.8,0.7-1.4c0-0.6-0.2-1.2-0.7-1.9c-0.4-0.6-1-0.9-1.5-1.1C78,37.9,77.5,38,77,38.4z"/>
			<path fill="#FFFFFF" stroke="#630055" stroke-width="0.5" stroke-miterlimit="10" d="M84.6,40.6L84,39.4l0.9-0.4l-2.3-4.5
				L81.8,35l-0.6-1.1l2.7-1.4l4.5,3l-1.6-3.1L86,32.8l-0.6-1.1l2.9-1.4l0.6,1.1L88,31.8l2.9,5.7l-1.4,0.7l-5.3-3.6l1.9,3.8l0.8-0.4
				l0.6,1.1L84.6,40.6z"/>
			<path fill="#FFFFFF" stroke="#630055" stroke-width="0.5" stroke-miterlimit="10" d="M93.3,36.6l-0.4-1.2l1-0.3l-1.5-4.8l-1,0.3
				l0.5,1.7l-1.2,0.4l-0.9-2.9l6.2-1.9l0.9,2.9L95.8,31l-0.5-1.7l-1.1,0.3l1.5,4.8l1-0.3l0.4,1.2L93.3,36.6z"/>
			<path fill="#FFFFFF" stroke="#630055" stroke-width="0.5" stroke-miterlimit="10" d="M106,32.5l0.2,1.3l-2.2,0.3l-2.1-3l-0.8,0.1
				l0.3,2l0.9-0.1l0.2,1.3l-3.7,0.6l-0.2-1.3l1-0.1l-0.7-5l-1,0.1l-0.2-1.3l4.3-0.6c0.8-0.1,1.4,0,1.8,0.4s0.7,0.8,0.8,1.4
				c0.1,0.9-0.2,1.5-1,2l1.5,2.1L106,32.5z M101,29.9l0.6-0.1c0.8-0.1,1.1-0.5,1-1.1c0-0.3-0.2-0.5-0.4-0.6
				c-0.2-0.1-0.5-0.2-0.8-0.1l-0.8,0.1L101,29.9z"/>
			<path fill="#FFFFFF" stroke="#630055" stroke-width="0.5" stroke-miterlimit="10" d="M106.4,33.8l0-1.3l1.1,0l-0.1-5l-1.1,0
				l0-1.3l4.1-0.1l0,1.3l-1.1,0l0.1,5l1.1,0l0,1.3L106.4,33.8z"/>
			<path fill="#FFFFFF" stroke="#630055" stroke-width="0.5" stroke-miterlimit="10" d="M111,33.7l0.1-1.3l0.9,0.1l0.5-5l-0.9-0.1
				l0.1-1.3l3.3,0.3c0.7,0.1,1.3,0.2,1.6,0.3s0.6,0.4,0.8,0.7c0.2,0.4,0.3,0.8,0.3,1.2c-0.1,0.7-0.5,1.2-1.2,1.5
				c0.8,0.4,1.2,1.1,1.1,1.9c0,0.5-0.2,0.9-0.5,1.2c-0.3,0.3-0.7,0.5-1.1,0.6c-0.4,0.1-1,0.1-1.8,0L111,33.7z M113.9,32.7l0.5,0.1
				c0.5,0,0.8,0,1-0.1c0.2-0.1,0.3-0.4,0.4-0.7c0-0.4,0-0.7-0.2-0.8c-0.2-0.2-0.5-0.3-0.9-0.3l-0.5-0.1L113.9,32.7z M114.2,29.4
				l0.5,0.1c0.4,0,0.6,0,0.8-0.1s0.3-0.3,0.3-0.7c0-0.3,0-0.5-0.2-0.7c-0.2-0.1-0.4-0.2-0.9-0.3l-0.5,0L114.2,29.4z"/>
			<path fill="#FFFFFF" stroke="#630055" stroke-width="0.5" stroke-miterlimit="10" d="M119.5,28.3l0.3-1.2l3.3,0.8l-0.3,1.2
				l-0.7-0.2l-0.8,3.3c-0.1,0.4-0.2,0.8-0.2,1s0,0.4,0.2,0.6c0.1,0.2,0.3,0.3,0.5,0.3c0.2,0.1,0.4,0,0.6,0s0.3-0.2,0.4-0.4
				c0.1-0.2,0.2-0.5,0.3-1.1l0.8-3.2l-0.7-0.2l0.3-1.2l2.8,0.7l-0.3,1.2l-0.9-0.2l-0.9,3.7c-0.1,0.5-0.2,0.9-0.3,1.1
				c-0.1,0.2-0.3,0.4-0.5,0.6c-0.2,0.2-0.5,0.3-0.9,0.3c-0.4,0.1-0.8,0-1.2-0.1c-0.5-0.1-0.9-0.3-1.3-0.6s-0.5-0.5-0.7-0.8
				c-0.1-0.3-0.2-0.6-0.2-0.8c0-0.3,0.1-0.7,0.2-1.3l0.8-3.3L119.5,28.3z"/>
			<path fill="#FFFFFF" stroke="#630055" stroke-width="0.5" stroke-miterlimit="10" d="M126.2,36.7l0.5-1.2l1,0.4l1.9-4.6l-1-0.4
				l-0.7,1.6l-1.1-0.5l1.2-2.8l6,2.5l-1.2,2.8l-1.1-0.5l0.7-1.6l-1-0.4l-1.9,4.6l1,0.4l-0.5,1.2L126.2,36.7z"/>
			<path fill="#FFFFFF" stroke="#630055" stroke-width="0.5" stroke-miterlimit="10" d="M131.5,39l0.6-1.1l0.9,0.5l2.5-4.3l-0.9-0.5
				l0.6-1.1l3.5,2l-0.6,1.1l-1-0.5l-2.5,4.3l1,0.5l-0.6,1.1L131.5,39z"/>
			<path fill="#FFFFFF" stroke="#630055" stroke-width="0.5" stroke-miterlimit="10" d="M135.4,41.2l0.8-1l0.8,0.6l3.1-4l-0.8-0.6
				l0.8-1l2.4,1.9l-0.8,5.3l2.1-2.7l-0.7-0.6l0.8-1l2.5,2l-0.8,1l-0.8-0.6l-3.9,5l-1.3-1l1-6.3l-2.6,3.4l0.7,0.6l-0.8,1L135.4,41.2z
				"/>
			<path fill="#FFFFFF" stroke="#630055" stroke-width="0.5" stroke-miterlimit="10" d="M147,48.2l1-0.8l2.2,2.5
				c-0.7,0.6-1.3,1-2,1.1c-0.6,0.1-1.2,0.1-1.9-0.2c-0.6-0.2-1.2-0.7-1.7-1.2c-0.9-1-1.2-2-1.1-3c0.1-1,0.6-1.9,1.4-2.6
				c0.6-0.5,1.2-0.8,1.9-1c0.7-0.1,1.3-0.1,1.9,0.1s1.1,0.6,1.6,1.1c0.6,0.7,0.9,1.4,0.9,2.2l0.5-0.4l0.8,0.9l-2,1.8l-0.8-0.9
				c0.3-0.4,0.4-0.8,0.3-1.3c-0.1-0.5-0.2-0.8-0.5-1.2c-0.4-0.4-0.9-0.7-1.4-0.7c-0.6,0-1.2,0.2-1.7,0.7c-0.6,0.6-1,1.2-1.1,1.8
				c-0.1,0.6,0.1,1.1,0.5,1.6c0.3,0.3,0.6,0.5,1,0.6c0.4,0.1,0.7,0,1.1-0.2L147,48.2z"/>
		</g>
	</g>
	<g>
		<path fill="#FFFFFF" d="M99.6,87.5c-0.1-0.8-0.2-1.1-0.4-1.6c-0.2-0.4-0.5-0.7-0.7-0.7c-0.4,0-0.7,0.5-0.7,1.2
			c0,0.6,0.1,0.9,0.6,1.4c0.3,0.3,0.6,0.6,0.9,0.9c0.4,0.4,0.7,1.2,0.7,2.1c0,1.5-0.6,2.6-1.5,2.6c-0.3,0-0.5-0.1-0.8-0.3
			c-0.1-0.1-0.2-0.1-0.2-0.1c-0.1,0-0.1,0.1-0.2,0.4H97v-3h0.2c0.1,0.9,0.2,1.3,0.4,1.7c0.2,0.6,0.5,0.9,0.9,0.9
			c0.5,0,0.8-0.5,0.8-1.4c0-0.4-0.1-0.8-0.3-1.1c-0.2-0.3-0.5-0.5-0.7-0.8c-0.7-0.6-1-1.3-1-2.5c0-1.5,0.5-2.4,1.3-2.4
			c0.2,0,0.4,0.1,0.7,0.3c0.1,0.1,0.2,0.1,0.3,0.1c0.1,0,0.1-0.1,0.2-0.4h0.2v2.6H99.6z"/>
		<path fill="#FFFFFF" d="M104.9,93.2v-0.3c0.4-0.1,0.5-0.3,0.5-1V86l-1.5,7.3h-0.2l-1.5-7.1v5.6c0,0.9,0.1,1.2,0.6,1.2v0.3h-1.4
			v-0.3c0.5-0.1,0.5-0.2,0.5-1v-5.6c0-0.6-0.1-0.8-0.5-0.9v-0.3h1.5l1.2,5.7l1.2-5.7h1.5v0.3c-0.4,0.1-0.5,0.3-0.5,1.2v5.1
			c0,0.9,0,1.1,0.5,1.2v0.3H104.9z"/>
		<path fill="#FFFFFF" d="M110.4,93.2v-0.3l0.2,0c0.2,0,0.3-0.1,0.3-0.4s-0.1-0.7-0.3-1.6h-1.3l-0.1,0.4c-0.1,0.4-0.2,0.9-0.2,1.2
			c0,0.3,0.1,0.4,0.5,0.5v0.3h-1.2v-0.3c0.3-0.1,0.4-0.3,0.6-1.4l1.3-6.5h0.2l1.3,6.3c0.3,1.5,0.4,1.7,0.7,1.7v0.3H110.4z
			 M109.9,87.5l-0.6,2.9h1.2L109.9,87.5z"/>
		<path fill="#FFFFFF" d="M117.3,93.2h-3.5v-0.3c0.4-0.1,0.5-0.2,0.5-0.9v-5.7c0-0.7-0.1-0.9-0.5-0.9v-0.3l2.1,0v0.3
			c-0.5,0-0.6,0.2-0.6,1.2v5.6c0,0.5,0.1,0.7,0.5,0.7c0.5,0,0.8-0.2,1-0.7c0.2-0.4,0.4-0.9,0.5-1.7h0.2L117.3,93.2z"/>
		<path fill="#FFFFFF" d="M122.5,93.2h-3.5v-0.3c0.4-0.1,0.5-0.2,0.5-0.9v-5.7c0-0.7-0.1-0.9-0.5-0.9v-0.3l2.1,0v0.3
			c-0.5,0-0.6,0.2-0.6,1.2v5.6c0,0.5,0.1,0.7,0.5,0.7c0.5,0,0.8-0.2,1-0.7c0.2-0.4,0.4-0.9,0.5-1.7h0.2L122.5,93.2z"/>
	</g>
</g>
<g id="Layer_3">
</g>
</svg>
