<?xml version="1.0" encoding="utf-8"?>
<!-- Generator: Adobe Illustrator 18.1.0, SVG Export Plug-In . SVG Version: 6.00 Build 0)  -->
<svg version="1.1" xmlns="http://www.w3.org/2000/svg" xmlns:xlink="http://www.w3.org/1999/xlink" x="0px" y="0px"
	 viewBox="0 0 220 120" enable-background="new 0 0 220 120" xml:space="preserve">
<g id="Format__x2F__Guides">
</g>
<g id="Logos">
	<path fill="#FFFFFF" d="M158,66.6c-1.2-0.3-2.2-0.6-2.8-1c-0.6-0.4-1.1-0.9-1.3-1.5c-0.3-0.6-0.4-1.4-0.3-2.3c0-0.9,0.1-2,0.3-3.3
		c0.3-1.9,0.5-3.4,0.6-4.5c0.1-1.1,0.3-2.2,0.4-3.1c0.1-0.9,0.3-2,0.4-3.1c0.2-1.1,0.3-2.5,0.5-4.3c0.3-2.3,0.2-4.2-0.5-5.6
		c-0.6-1.5-1.5-2.6-2.7-3.4c-1.2-0.8-2.5-1.3-4.1-1.5c-1.5-0.2-2.9-0.2-4.4,0.1c0.1-1,0-2.1-0.1-3.1c-0.2-1.5-0.7-2.9-1.5-4.1
		c-0.8-1.2-1.9-2.1-3.4-2.7c-1.5-0.6-3.3-0.8-5.6-0.5c-1.8,0.2-3.2,0.4-4.3,0.5c-1.1,0.2-2.1,0.3-3.1,0.4c-1,0.1-2,0.3-3.1,0.4
		c-1.1,0.1-2.6,0.3-4.5,0.6c-1.3,0.2-2.4,0.2-3.3,0.3c-0.9,0-1.6-0.1-2.3-0.3c-0.6-0.3-1.1-0.7-1.5-1.3c-0.4-0.6-0.7-1.6-1-2.8v-0.1
		h-1.1v0.1c-0.3,1.2-0.6,2.2-1,2.8c-0.4,0.6-0.9,1.1-1.5,1.3c-0.6,0.3-1.4,0.4-2.3,0.3c-0.9,0-2-0.1-3.3-0.3
		c-1.9-0.3-3.4-0.4-4.5-0.6c-1.1-0.1-2.2-0.3-3.1-0.4c-0.9-0.1-2-0.3-3.1-0.4c-1.1-0.2-2.5-0.3-4.3-0.5c-2.3-0.3-4.2-0.2-5.6,0.5
		c-1.5,0.6-2.6,1.5-3.4,2.7c-0.8,1.2-1.3,2.5-1.5,4.1c-0.1,1-0.2,2.1-0.1,3.1c-1.4-0.2-2.9-0.2-4.3,0c-1.5,0.2-2.9,0.7-4.1,1.5
		c-1.2,0.8-2.1,1.9-2.7,3.4c-0.6,1.5-0.8,3.3-0.5,5.6c0.2,1.8,0.4,3.2,0.5,4.3c0.2,1.1,0.3,2.1,0.4,3.1c0.1,1,0.3,2,0.4,3.1
		c0.1,1.1,0.3,2.6,0.6,4.5c0.2,1.3,0.2,2.4,0.3,3.3c0,0.9-0.1,1.6-0.3,2.3c-0.3,0.6-0.7,1.1-1.3,1.5c-0.6,0.4-1.6,0.7-2.8,1h-0.1
		v1.1H62c1.2,0.3,2.2,0.6,2.8,1c0.6,0.4,1.1,0.9,1.3,1.5c0.3,0.6,0.4,1.4,0.3,2.3c0,0.9-0.1,2-0.3,3.3c-0.3,1.9-0.4,3.4-0.6,4.5
		c-0.1,1.1-0.3,2.2-0.4,3.1c-0.1,0.9-0.3,2-0.4,3.1c-0.2,1.1-0.3,2.5-0.5,4.3c-0.3,2.3-0.2,4.2,0.5,5.6c0.6,1.5,1.5,2.6,2.7,3.4
		c1.2,0.8,2.5,1.3,4.1,1.5c1.5,0.2,2.9,0.2,4.4-0.1c-0.1,1,0,2,0.1,3c0.2,1.5,0.7,2.9,1.5,4.1c0.8,1.2,1.9,2.1,3.4,2.7
		c1.5,0.6,3.3,0.8,5.6,0.5c1.8-0.2,3.2-0.4,4.3-0.5c1.1-0.2,2.1-0.3,3.1-0.4c1-0.1,2-0.3,3.1-0.4c1.1-0.1,2.6-0.3,4.5-0.6
		c1.3-0.2,2.4-0.2,3.3-0.3c0.9,0,1.6,0.1,2.3,0.3c0.6,0.3,1.1,0.7,1.5,1.3c0.4,0.6,0.7,1.6,1,2.8v0.1h1.1v-0.1
		c0.3-1.2,0.6-2.2,1-2.8c0.4-0.6,0.9-1.1,1.5-1.3c0.6-0.3,1.4-0.4,2.3-0.3c0.9,0,2,0.1,3.3,0.3c1.9,0.3,3.4,0.4,4.5,0.6
		c1.1,0.1,2.2,0.3,3.1,0.4c0.9,0.1,2,0.3,3.1,0.4c1.1,0.2,2.5,0.3,4.3,0.5c2.3,0.3,4.2,0.2,5.6-0.5c1.5-0.6,2.6-1.5,3.4-2.7
		c0.8-1.2,1.3-2.5,1.5-4.1c0.1-1,0.2-2,0.1-3c1.4,0.2,2.8,0.2,4.3,0c1.5-0.2,2.9-0.7,4.1-1.5c1.2-0.8,2.1-1.9,2.7-3.4
		c0.6-1.5,0.8-3.3,0.5-5.6c-0.2-1.8-0.4-3.2-0.5-4.3c-0.2-1.1-0.3-2.1-0.4-3.1c-0.1-1-0.3-2-0.4-3.1c-0.1-1.1-0.3-2.6-0.6-4.5
		c-0.2-1.3-0.2-2.4-0.3-3.3c0-0.9,0.1-1.6,0.3-2.3c0.3-0.6,0.7-1.1,1.3-1.5c0.6-0.4,1.6-0.7,2.8-1h0.1L158,66.6L158,66.6z"/>
	<g>
		<defs>
			<path id="SVGID_9_" d="M109.5,20.4L109.5,20.4c-0.3,1.3-0.6,2.2-1,2.9c-0.4,0.6-0.9,1.1-1.5,1.3c-0.6,0.3-1.4,0.4-2.3,0.3
				c-0.9,0-2-0.1-3.3-0.3c-1.9-0.3-3.4-0.4-4.5-0.6c-1.1-0.1-2.2-0.3-3.1-0.4c-0.9-0.1-2-0.3-3.1-0.4c-1.1-0.2-2.5-0.3-4.3-0.5
				c-2.3-0.3-4.2-0.2-5.6,0.5c-1.5,0.6-2.6,1.5-3.4,2.7c-0.8,1.2-1.3,2.5-1.5,4.1c-0.1,1-0.2,2.1-0.1,3.1c-1.4-0.2-2.9-0.2-4.3,0
				c-1.5,0.2-2.9,0.7-4.1,1.5c-1.2,0.8-2.1,1.9-2.7,3.4c-0.6,1.5-0.8,3.3-0.5,5.6c0.2,1.8,0.4,3.2,0.5,4.3c0.2,1.1,0.3,2.1,0.4,3.1
				c0.1,1,0.3,2,0.4,3.1c0.1,1.1,0.3,2.6,0.6,4.5c0.2,1.3,0.2,2.4,0.3,3.3c0,0.9-0.1,1.6-0.3,2.3c-0.3,0.6-0.7,1.1-1.3,1.5
				c-0.6,0.4-1.6,0.7-2.8,1h-0.1v1.1H62c1.2,0.3,2.2,0.6,2.8,1c0.6,0.4,1.1,0.9,1.3,1.5c0.3,0.6,0.4,1.4,0.3,2.3
				c0,0.9-0.1,2-0.3,3.3c-0.3,1.9-0.4,3.4-0.6,4.5c-0.1,1.1-0.3,2.2-0.4,3.1c-0.1,0.9-0.3,2-0.4,3.1c-0.2,1.1-0.3,2.5-0.5,4.3
				c-0.3,2.3-0.2,4.2,0.5,5.6c0.6,1.5,1.5,2.6,2.7,3.4c1.2,0.8,2.5,1.3,4.1,1.5c1.5,0.2,2.9,0.2,4.4-0.1c-0.1,1,0,2,0.1,3
				c0.2,1.5,0.7,2.9,1.5,4.1c0.8,1.2,1.9,2.1,3.4,2.7c1.5,0.6,3.3,0.8,5.6,0.5c1.8-0.2,3.2-0.4,4.3-0.5c1.1-0.2,2.1-0.3,3.1-0.4
				c1-0.1,2-0.3,3.1-0.4c1.1-0.1,2.6-0.3,4.5-0.6c1.3-0.2,2.4-0.2,3.3-0.3c0.9,0,1.6,0.1,2.3,0.3c0.6,0.3,1.1,0.7,1.5,1.3
				c0.4,0.6,0.7,1.6,1,2.8v0.1h1.1v-0.1c0.3-1.2,0.6-2.2,1-2.8c0.4-0.6,0.9-1.1,1.5-1.3c0.6-0.3,1.4-0.4,2.3-0.3
				c0.9,0,2,0.1,3.3,0.3c1.9,0.3,3.4,0.4,4.5,0.6c1.1,0.1,2.2,0.3,3.1,0.4c0.9,0.1,2,0.3,3.1,0.4c1.1,0.2,2.5,0.3,4.3,0.5
				c2.3,0.3,4.2,0.2,5.6-0.5c1.5-0.6,2.6-1.5,3.4-2.7c0.8-1.2,1.3-2.5,1.5-4.1c0.1-1,0.2-2,0.1-3c1.4,0.2,2.8,0.2,4.3,0
				c1.5-0.2,2.9-0.7,4.1-1.5c1.2-0.8,2.1-1.9,2.7-3.4c0.6-1.5,0.8-3.3,0.5-5.6c-0.2-1.8-0.4-3.2-0.5-4.3c-0.2-1.1-0.3-2.1-0.4-3.1
				c-0.1-1-0.3-2-0.4-3.1c-0.1-1.1-0.3-2.6-0.6-4.5c-0.2-1.3-0.2-2.4-0.3-3.3c0-0.9,0.1-1.6,0.3-2.3c0.3-0.6,0.7-1.1,1.3-1.5
				c0.6-0.4,1.6-0.7,2.8-1h0.1v-1.1H158c-1.2-0.3-2.2-0.6-2.8-1c-0.6-0.4-1.1-0.9-1.3-1.5c-0.3-0.6-0.4-1.4-0.3-2.3
				c0-0.9,0.1-2,0.3-3.3c0.3-1.9,0.5-3.4,0.6-4.5c0.1-1.1,0.3-2.2,0.4-3.1c0.1-0.9,0.3-2,0.4-3.1c0.2-1.1,0.3-2.5,0.5-4.3
				c0.3-2.3,0.2-4.2-0.5-5.6c-0.6-1.5-1.5-2.6-2.7-3.4c-1.2-0.8-2.5-1.3-4.1-1.5c-1.5-0.2-2.9-0.2-4.4,0.1c0.1-1,0-2.1-0.1-3.1
				c-0.2-1.5-0.7-2.9-1.5-4.1c-0.8-1.2-1.9-2.1-3.4-2.7c-1.5-0.6-3.3-0.8-5.6-0.5c-1.8,0.2-3.2,0.4-4.3,0.5
				c-1.1,0.2-2.1,0.3-3.1,0.4c-1,0.1-2,0.3-3.1,0.4c-1.1,0.1-2.6,0.3-4.5,0.6c-1.3,0.2-2.4,0.2-3.3,0.3c-0.9,0-1.6-0.1-2.3-0.3
				c-0.6-0.3-1.1-0.7-1.5-1.3c-0.4-0.6-0.7-1.6-1-2.8v-0.1H109.5z"/>
		</defs>
		<clipPath id="SVGID_2_">
			<use xlink:href="#SVGID_9_"  overflow="visible"/>
		</clipPath>
		<rect x="50.6" y="45.6" clip-path="url(#SVGID_2_)" fill="#0B6300" width="118" height="78.8"/>
		<rect x="50.6" y="17.2" clip-path="url(#SVGID_2_)" fill="#630055" width="1" height="30"/>
		<rect x="52.8" y="17.2" clip-path="url(#SVGID_2_)" fill="#630055" width="1" height="30"/>
		<rect x="55" y="17.2" clip-path="url(#SVGID_2_)" fill="#630055" width="1" height="30"/>
		<rect x="57.2" y="17.2" clip-path="url(#SVGID_2_)" fill="#630055" width="1" height="30"/>
		<rect x="59.3" y="17.2" clip-path="url(#SVGID_2_)" fill="#630055" width="1" height="30"/>
		<rect x="61.5" y="17.2" clip-path="url(#SVGID_2_)" fill="#630055" width="1" height="30"/>
		<rect x="63.7" y="17.2" clip-path="url(#SVGID_2_)" fill="#630055" width="1" height="30"/>
		<rect x="65.9" y="17.2" clip-path="url(#SVGID_2_)" fill="#0B6300" width="1" height="30"/>
		<rect x="68.1" y="17.2" clip-path="url(#SVGID_2_)" fill="#0B6300" width="1" height="30"/>
		<rect x="70.2" y="17.2" clip-path="url(#SVGID_2_)" fill="#0B6300" width="1" height="30"/>
		<rect x="72.4" y="17.2" clip-path="url(#SVGID_2_)" fill="#0B6300" width="1" height="30"/>
		<rect x="74.6" y="17.2" clip-path="url(#SVGID_2_)" fill="#0B6300" width="1" height="30"/>
		<rect x="76.8" y="17.2" clip-path="url(#SVGID_2_)" fill="#0B6300" width="1" height="30"/>
		<rect x="79" y="17.2" clip-path="url(#SVGID_2_)" fill="#0B6300" width="1" height="30"/>
		<rect x="81.2" y="17.2" clip-path="url(#SVGID_2_)" fill="#0B6300" width="1" height="30"/>
		<rect x="83.3" y="17.2" clip-path="url(#SVGID_2_)" fill="#0B6300" width="1" height="30"/>
		<rect x="85.5" y="17.2" clip-path="url(#SVGID_2_)" fill="#0B6300" width="1" height="30"/>
		<rect x="87.7" y="17.2" clip-path="url(#SVGID_2_)" fill="#0B6300" width="1" height="30"/>
		<rect x="89.9" y="17.2" clip-path="url(#SVGID_2_)" fill="#0B6300" width="1" height="30"/>
		<rect x="92.1" y="17.2" clip-path="url(#SVGID_2_)" fill="#0B6300" width="1" height="30"/>
		<rect x="94.2" y="17.2" clip-path="url(#SVGID_2_)" fill="#0B6300" width="1" height="30"/>
		<rect x="96.4" y="17.2" clip-path="url(#SVGID_2_)" fill="#0B6300" width="1" height="30"/>
		<rect x="98.6" y="17.2" clip-path="url(#SVGID_2_)" fill="#0B6300" width="1" height="30"/>
		<rect x="100.8" y="17.2" clip-path="url(#SVGID_2_)" fill="#0B6300" width="1" height="30"/>
		<rect x="103" y="17.2" clip-path="url(#SVGID_2_)" fill="#0B6300" width="1" height="30"/>
		<rect x="105.2" y="17.2" clip-path="url(#SVGID_2_)" fill="#0B6300" width="1" height="30"/>
		<rect x="107.3" y="17.2" clip-path="url(#SVGID_2_)" fill="#0B6300" width="1" height="30"/>
		<rect x="109.5" y="17.2" clip-path="url(#SVGID_2_)" fill="#0B6300" width="1" height="30"/>
		<rect x="111.7" y="17.2" clip-path="url(#SVGID_2_)" fill="#0B6300" width="1" height="30"/>
		<rect x="113.9" y="17.2" clip-path="url(#SVGID_2_)" fill="#0B6300" width="1" height="30"/>
		<rect x="116.1" y="17.2" clip-path="url(#SVGID_2_)" fill="#0B6300" width="1" height="30"/>
		<rect x="118.2" y="17.2" clip-path="url(#SVGID_2_)" fill="#0B6300" width="1" height="30"/>
		<rect x="120.4" y="17.2" clip-path="url(#SVGID_2_)" fill="#0B6300" width="1" height="30"/>
		<rect x="122.6" y="17.2" clip-path="url(#SVGID_2_)" fill="#0B6300" width="1" height="30"/>
		<rect x="124.8" y="17.2" clip-path="url(#SVGID_2_)" fill="#0B6300" width="1" height="30"/>
		<rect x="127" y="17.2" clip-path="url(#SVGID_2_)" fill="#0B6300" width="1" height="30"/>
		<rect x="129.2" y="17.2" clip-path="url(#SVGID_2_)" fill="#0B6300" width="1" height="30"/>
		<rect x="131.3" y="17.2" clip-path="url(#SVGID_2_)" fill="#0B6300" width="1" height="30"/>
		<rect x="133.5" y="17.2" clip-path="url(#SVGID_2_)" fill="#0B6300" width="1" height="30"/>
		<rect x="135.7" y="17.2" clip-path="url(#SVGID_2_)" fill="#0B6300" width="1" height="30"/>
		<rect x="137.9" y="17.2" clip-path="url(#SVGID_2_)" fill="#0B6300" width="1" height="30"/>
		<rect x="140.1" y="17.2" clip-path="url(#SVGID_2_)" fill="#0B6300" width="1" height="30"/>
		<rect x="142.3" y="17.2" clip-path="url(#SVGID_2_)" fill="#0B6300" width="1" height="30"/>
		<rect x="144.4" y="17.2" clip-path="url(#SVGID_2_)" fill="#0B6300" width="1" height="30"/>
		<rect x="146.6" y="17.2" clip-path="url(#SVGID_2_)" fill="#0B6300" width="1" height="30"/>
		<rect x="148.8" y="17.2" clip-path="url(#SVGID_2_)" fill="#0B6300" width="1" height="30"/>
		<rect x="151" y="17.2" clip-path="url(#SVGID_2_)" fill="#0B6300" width="1" height="30"/>
		<rect x="153.2" y="17.2" clip-path="url(#SVGID_2_)" fill="#0B6300" width="1" height="30"/>
		<rect x="155.3" y="17.2" clip-path="url(#SVGID_2_)" fill="#630055" width="1" height="30"/>
		<rect x="157.5" y="17.2" clip-path="url(#SVGID_2_)" fill="#630055" width="1" height="30"/>
		<rect x="159.7" y="17.2" clip-path="url(#SVGID_2_)" fill="#630055" width="1" height="30"/>
		<rect x="161.9" y="17.2" clip-path="url(#SVGID_2_)" fill="#630055" width="1" height="30"/>
		<rect x="164.1" y="17.2" clip-path="url(#SVGID_2_)" fill="#630055" width="1" height="30"/>
		<rect x="166.3" y="17.2" clip-path="url(#SVGID_2_)" fill="#630055" width="1" height="30"/>
		<rect x="168.4" y="17.2" clip-path="url(#SVGID_2_)" fill="#630055" width="1" height="30"/>
	</g>
	<path fill="#FE7301" d="M110.6,115.1h-2.4v-1.3c-0.3-1.2-0.6-1.9-0.8-2.2c-0.3-0.4-0.6-0.7-0.9-0.8c-0.4-0.2-0.9-0.2-1.5-0.2
		l-0.2,0c-0.9,0-1.9,0.1-3.1,0.3c-1.8,0.3-3.3,0.4-4.5,0.6c-1.1,0.1-2.2,0.3-3.1,0.4c-1,0.1-2,0.3-3.1,0.4c-1.2,0.2-2.6,0.3-4.3,0.5
		c-2.5,0.3-4.6,0.1-6.3-0.6c-1.7-0.7-3-1.8-4-3.2c-0.9-1.4-1.5-2.9-1.7-4.7c-0.1-0.5-0.1-1.1-0.1-1.7c-1.1,0.1-2.1,0-3.2-0.1
		c-1.7-0.2-3.3-0.8-4.6-1.7c-1.4-0.9-2.5-2.3-3.2-4c-0.7-1.7-0.9-3.8-0.6-6.4c0.2-1.8,0.4-3.2,0.5-4.3c0.2-1.1,0.3-2.1,0.4-3.1
		c0.1-0.9,0.3-2,0.4-3.1c0.1-1.1,0.3-2.6,0.6-4.6c0.1-1.2,0.2-2.3,0.3-3.1c0-0.7-0.1-1.3-0.2-1.7c-0.1-0.3-0.4-0.6-0.8-0.9
		c-0.3-0.2-1-0.5-2.2-0.8h-1.2l-0.1-1.4v-2.4h1.3c1.2-0.3,1.9-0.6,2.2-0.8c0.4-0.3,0.7-0.6,0.8-0.9c0.2-0.4,0.3-1,0.2-1.7
		c0-0.9-0.1-1.9-0.3-3.1c-0.3-1.8-0.5-3.3-0.6-4.5c-0.1-1.1-0.3-2.2-0.4-3.1c-0.1-1-0.3-2-0.4-3.1c-0.2-1.1-0.3-2.6-0.5-4.3
		c-0.3-2.5-0.1-4.6,0.6-6.3c0.7-1.7,1.8-3,3.2-4c1.4-0.9,2.9-1.5,4.7-1.7c1-0.1,2-0.2,3.1-0.1c0-0.6,0.1-1.2,0.1-1.8
		c0.2-1.7,0.8-3.3,1.7-4.6c0.9-1.4,2.3-2.5,4-3.2c1.7-0.7,3.8-0.9,6.3-0.6c1.8,0.2,3.2,0.4,4.3,0.5c1.1,0.2,2.1,0.3,3.1,0.4
		c0.9,0.1,2,0.3,3.1,0.4c1.1,0.1,2.6,0.3,4.6,0.6c1.2,0.1,2.3,0.2,3.1,0.3l0.2,0c0.6,0,1.1-0.1,1.5-0.2c0.3-0.1,0.6-0.4,0.9-0.8
		c0.2-0.3,0.5-1,0.8-2.2v-1.2l1.4-0.1h2.4v1.3c0.3,1.2,0.6,1.9,0.8,2.2c0.3,0.4,0.6,0.7,0.9,0.8c0.4,0.2,0.9,0.2,1.5,0.2l0.2,0
		c0.8,0,1.9-0.1,3.1-0.3c1.8-0.3,3.3-0.4,4.5-0.6c1.1-0.1,2.2-0.3,3.1-0.4c1-0.1,2-0.3,3.1-0.4c1.2-0.2,2.6-0.3,4.3-0.5
		c2.5-0.3,4.6-0.1,6.3,0.6c1.7,0.7,3,1.8,4,3.2c0.9,1.4,1.5,2.9,1.7,4.7c0.1,0.6,0.1,1.2,0.1,1.8c1-0.1,2.1,0,3.2,0.1
		c1.7,0.2,3.3,0.8,4.6,1.7c1.4,0.9,2.5,2.3,3.2,4c0.7,1.7,0.9,3.8,0.6,6.4c-0.2,1.8-0.4,3.2-0.5,4.3c-0.2,1.1-0.3,2.1-0.4,3.1
		c-0.1,0.9-0.3,2-0.4,3.1c-0.1,1.1-0.3,2.7-0.6,4.6c-0.1,1.2-0.2,2.3-0.3,3.1c0,0.7,0.1,1.3,0.2,1.7c0.1,0.3,0.4,0.6,0.8,0.9
		c0.3,0.2,1,0.5,2.2,0.8h1.2l0.1,1.4V69h-1.3c-1.2,0.3-1.9,0.6-2.2,0.8c-0.4,0.3-0.7,0.6-0.8,0.9c-0.2,0.4-0.3,1-0.2,1.7
		c0,0.9,0.1,1.9,0.3,3.1c0.3,1.9,0.5,3.3,0.6,4.5c0.1,1.1,0.3,2.2,0.4,3.1c0.1,1,0.3,2,0.4,3.1c0.2,1.1,0.3,2.6,0.5,4.3
		c0.3,2.5,0.1,4.6-0.6,6.3c-0.7,1.7-1.8,3-3.2,4c-1.4,0.9-2.9,1.5-4.7,1.7c-1,0.1-2,0.2-3.1,0.1c0,0.6-0.1,1.1-0.1,1.7
		c-0.2,1.7-0.8,3.3-1.7,4.6c-0.9,1.4-2.3,2.5-4,3.2c-1.7,0.7-3.8,0.9-6.3,0.6c-1.8-0.2-3.2-0.4-4.3-0.5c-1.1-0.2-2.1-0.3-3.1-0.4
		c-0.9-0.1-2-0.3-3.1-0.4c-1.1-0.1-2.7-0.3-4.6-0.6c-1.2-0.1-2.3-0.2-3.1-0.3l-0.2,0c-0.6,0-1.1,0.1-1.5,0.2
		c-0.3,0.1-0.6,0.4-0.9,0.8c-0.2,0.3-0.5,1-0.8,2.2v1.2L110.6,115.1z M104.9,107.8c1,0,1.8,0.2,2.5,0.5c0.9,0.4,1.6,1,2.2,1.9
		c0.1,0.2,0.3,0.4,0.4,0.7c0.1-0.2,0.2-0.5,0.3-0.7c0.5-0.9,1.3-1.5,2.1-1.9c0.7-0.3,1.6-0.5,2.5-0.5l0.3,0c0.9,0,2.1,0.1,3.4,0.3
		c1.9,0.3,3.4,0.4,4.5,0.6c1.1,0.1,2.2,0.3,3.1,0.4c1,0.1,2,0.3,3.1,0.4c1.1,0.2,2.5,0.3,4.3,0.5c2.1,0.3,3.7,0.2,5-0.4
		c1.2-0.5,2.1-1.2,2.8-2.2c0.7-1,1.1-2.2,1.3-3.5c0.1-0.9,0.1-1.8,0.1-2.7l-0.1-1.6l1.6,0.2c1.3,0.2,2.6,0.2,4,0
		c1.3-0.2,2.5-0.6,3.5-1.2c1-0.6,1.7-1.6,2.2-2.8c0.5-1.2,0.6-2.9,0.4-4.9c-0.2-1.7-0.4-3.2-0.5-4.3c-0.2-1.1-0.3-2.1-0.4-3.1
		c-0.1-1-0.3-2-0.4-3.2c-0.1-1.1-0.3-2.6-0.6-4.4c-0.2-1.3-0.3-2.5-0.3-3.4c0-1.1,0.1-2,0.4-2.8c0.4-0.9,1-1.6,1.9-2.2
		c0.2-0.1,0.4-0.3,0.7-0.4c-0.2-0.1-0.5-0.2-0.7-0.3c-0.9-0.5-1.5-1.3-1.9-2.1c-0.3-0.8-0.5-1.7-0.4-2.8c0-0.9,0.1-2.1,0.3-3.4
		c0.3-1.9,0.4-3.4,0.6-4.5c0.1-1.1,0.3-2.2,0.4-3.1c0.1-0.9,0.3-2,0.4-3.1c0.2-1.1,0.3-2.5,0.5-4.3c0.3-2.1,0.2-3.7-0.4-5
		c-0.5-1.2-1.2-2.1-2.2-2.8c-1-0.7-2.2-1.1-3.5-1.3c-1.3-0.2-2.7-0.2-4,0l-1.7,0.3l0.1-1.7c0.1-1,0-1.9-0.1-2.9
		c-0.2-1.3-0.6-2.5-1.2-3.5c-0.6-1-1.6-1.7-2.8-2.2c-1.2-0.5-2.9-0.6-4.9-0.4c-1.7,0.2-3.1,0.4-4.3,0.5c-1.1,0.2-2.1,0.3-3.1,0.4
		c-1,0.1-2,0.3-3.2,0.4c-1.1,0.1-2.6,0.3-4.4,0.6c-1.4,0.2-2.5,0.3-3.4,0.3l-0.3,0c-1,0-1.8-0.2-2.5-0.5c-0.9-0.4-1.6-1-2.2-1.9
		c-0.1-0.2-0.3-0.4-0.4-0.7c-0.1,0.2-0.2,0.5-0.3,0.7c-0.5,0.9-1.3,1.5-2.1,1.9c-0.7,0.3-1.6,0.5-2.5,0.5l-0.3,0
		c-0.9,0-2.1-0.1-3.4-0.3c-1.9-0.3-3.4-0.4-4.5-0.6c-1.1-0.1-2.2-0.3-3.1-0.4c-0.9-0.1-2-0.3-3.1-0.4c-1.1-0.2-2.5-0.3-4.3-0.5
		c-2.1-0.3-3.7-0.2-5,0.4c-1.2,0.5-2.1,1.2-2.8,2.2c-0.7,1-1.1,2.2-1.3,3.5c-0.1,0.9-0.1,1.8-0.1,2.8l0.1,1.6l-1.6-0.2
		c-1.3-0.2-2.7-0.2-4,0c-1.3,0.2-2.5,0.6-3.5,1.2c-1,0.6-1.7,1.6-2.2,2.8c-0.5,1.2-0.6,2.9-0.4,4.9c0.2,1.7,0.4,3.2,0.5,4.3
		c0.2,1.1,0.3,2.1,0.4,3.1c0.1,1,0.3,2,0.4,3.2c0.1,1.1,0.3,2.6,0.6,4.4c0.2,1.3,0.3,2.5,0.3,3.4c0,1.1-0.1,2-0.5,2.8
		c-0.4,0.9-1,1.6-1.9,2.2c-0.2,0.1-0.4,0.3-0.7,0.4c0.2,0.1,0.5,0.2,0.7,0.3c0.9,0.5,1.5,1.3,1.9,2.1c0.3,0.8,0.5,1.7,0.5,2.8
		c0,1-0.1,2.1-0.3,3.4c-0.3,1.9-0.4,3.4-0.6,4.5c-0.1,1.1-0.3,2.2-0.4,3.1c-0.1,1-0.3,2-0.4,3.1c-0.2,1.1-0.3,2.5-0.5,4.3
		c-0.3,2.1-0.2,3.7,0.4,5c0.5,1.2,1.2,2.1,2.2,2.8c1,0.7,2.2,1.1,3.5,1.3c1.3,0.2,2.7,0.2,4,0l1.7-0.3l-0.1,1.7c0,1,0,1.9,0.1,2.8
		c0.2,1.3,0.6,2.5,1.2,3.5c0.6,1,1.6,1.7,2.8,2.2c1.2,0.5,2.9,0.6,4.9,0.4c1.7-0.2,3.1-0.4,4.3-0.5c1.1-0.2,2.1-0.3,3.1-0.4
		c1-0.1,2-0.3,3.2-0.4c1.1-0.1,2.6-0.3,4.4-0.6c1.3-0.2,2.5-0.3,3.4-0.3L104.9,107.8z"/>
	<path fill="#FE7301" d="M128.1,23.2c0,10-8.1,18.1-18.1,18.1c-10,0-18.1-8.1-18.1-18.1c0-10,8.1-18.1,18.1-18.1
		C120,5.1,128.1,13.2,128.1,23.2"/>
	<path fill="#FFFFFF" d="M125.7,23.2c0,8.7-7,15.7-15.7,15.7c-8.7,0-15.7-7-15.7-15.7c0-8.7,7-15.7,15.7-15.7
		C118.7,7.5,125.7,14.6,125.7,23.2"/>
	<path fill="#0B6300" d="M93.9,23.2c0-8.9,7.2-16.1,16.1-16.1c8.9,0,16.1,7.2,16.1,16.1c0,8.9-7.2,16.1-16.1,16.1
		C101.1,39.4,93.9,32.1,93.9,23.2 M94.7,23.2c0,8.4,6.8,15.3,15.3,15.3c8.4,0,15.3-6.8,15.3-15.3c0-8.4-6.8-15.3-15.3-15.3
		C101.6,8,94.7,14.8,94.7,23.2"/>
	<path fill="#FFFFFF" d="M147.1,72.2c0,0.1,0.1,0.2,0.1,0.3c0,0.1,0,0.2,0.1,0.3c0,0,0,0.1,0,0.1c0,0.1,0,0.1,0,0.2
		c0,0.1,0,0.1,0,0.1l0,0l0,0l0,0l0,0c0,0.4-0.1,0.8-0.2,1.3c-0.2,0.4-0.4,0.8-0.7,1.2c-0.1,0.2-0.3,0.4-0.4,0.6
		c-0.1,0.2-0.3,0.4-0.5,0.5c-0.3,0.3-0.7,0.6-1,1c-0.2,0.1-0.4,0.3-0.5,0.4c-0.2,0.1-0.4,0.3-0.6,0.4c-0.4,0.3-0.8,0.5-1.2,0.8
		c-0.4,0.3-0.8,0.5-1.2,0.7c-0.4,0.2-0.8,0.5-1.2,0.7c-0.4,0.2-0.8,0.4-1.2,0.7c-0.8,0.4-1.6,0.9-2.5,1.3c-0.8,0.4-1.6,0.8-2.5,1.2
		c-0.8,0.4-1.7,0.8-2.5,1.2c-0.8,0.4-1.7,0.8-2.5,1.2c-0.8,0.4-1.7,0.8-2.5,1.2c-0.8,0.4-1.6,0.8-2.5,1.2c-0.2,0.1-0.4,0.2-0.6,0.3
		c-0.2,0.1-0.4,0.2-0.6,0.3l-0.6,0.3l-0.3,0.1l-0.3,0.2c-0.4,0.2-0.8,0.4-1.2,0.6c-0.4,0.2-0.8,0.4-1.2,0.6
		c-1.6,0.8-3.2,1.7-4.9,2.5c-1.6,0.8-3.2,1.7-4.8,2.5l-1.2,0.6l-1.2,0.6l-0.5,0.3c-0.9-0.7-2-1.2-3.3-1.7c-1.3-0.4-2.8-0.8-4.4-1
		c-1.6-0.2-3.4-0.3-5.3-0.2c-1.9,0.1-3.9,0.2-5.9,0.6c0.6-0.2,1.2-0.3,1.7-0.5c0.6-0.2,1.2-0.3,1.7-0.5c0.2-0.1,0.5-0.1,0.7-0.2
		c0.2-0.1,0.4-0.1,0.7-0.2c0.2-0.1,0.4-0.1,0.7-0.2c0.2-0.1,0.4-0.1,0.7-0.2l1.3-0.4l1.3-0.4l0.7-0.2l0.7-0.2l1.3-0.4l1.3-0.4
		l0.7-0.2l0.7-0.2l1.3-0.4l1.3-0.4l1.3-0.4l1.3-0.4c1.8-0.5,3.5-1,5.3-1.6c1.7-0.5,3.5-1.1,5.2-1.6l2.6-0.8l2.6-0.8
		c0.9-0.3,1.8-0.5,2.6-0.8c0.9-0.3,1.7-0.5,2.6-0.8c0.9-0.3,1.7-0.6,2.6-0.8c0.9-0.3,1.7-0.6,2.6-0.8c0.4-0.1,0.9-0.3,1.3-0.4
		c0.4-0.1,0.8-0.3,1.3-0.5c0.4-0.2,0.8-0.3,1.3-0.5c0.4-0.2,0.8-0.3,1.2-0.5c0.4-0.2,0.8-0.4,1.2-0.5c0.4-0.2,0.8-0.4,1.2-0.5
		c0.4-0.2,0.8-0.4,1.2-0.6c0.4-0.2,0.8-0.4,1.1-0.6c0.4-0.2,0.7-0.4,1.1-0.7c0.4-0.3,0.7-0.5,1-0.8c0.3-0.3,0.6-0.6,0.8-0.8
		c0.3-0.3,0.5-0.6,0.6-0.9c0.1-0.1,0.1-0.3,0.2-0.5c0-0.1,0-0.2,0-0.3c0-0.1,0-0.2,0-0.3l0,0l0,0l0,0l0-0.1c0,0,0-0.1,0-0.1
		c0-0.1,0-0.1,0-0.1c0,0,0-0.1,0-0.1c0-0.2,0-0.4-0.1-0.5c-0.1-0.2-0.1-0.3-0.2-0.5c-0.1-0.1-0.2-0.3-0.3-0.4
		c-0.1-0.1-0.1-0.1-0.2-0.2c-0.1-0.1-0.1-0.1-0.2-0.1c-0.1,0-0.2-0.1-0.2-0.1c-0.1,0-0.2-0.1-0.2-0.1c-0.4-0.1-0.7-0.1-1.1,0
		c-0.1,0-0.2,0-0.3,0.1c-0.1,0-0.2,0.1-0.3,0.1c-0.2,0.1-0.4,0.2-0.5,0.3c-0.4,0.2-0.6,0.5-0.8,0.8c-0.1,0.2-0.2,0.4-0.3,0.5
		c0,0,0,0.1,0,0.1c0,0,0,0.1,0,0.1c0,0,0,0,0,0.1c0,0,0,0,0,0.1c0,0,0,0,0,0c0,0,0,0,0,0l0,0.1c0,0.2-0.1,0.2-0.3,0.2
		c-0.1,0-0.1,0-0.2-0.1c0,0-0.1-0.1,0-0.2l0-0.1l0-0.1c0-0.1,0-0.1,0-0.2c0-0.1,0-0.1,0-0.2c0,0,0-0.1,0-0.1
		c0.1-0.2,0.2-0.4,0.3-0.6c0.1-0.2,0.3-0.4,0.4-0.5c0.2-0.2,0.3-0.3,0.5-0.5c0.4-0.3,0.9-0.5,1.3-0.6c0.1,0,0.2-0.1,0.4-0.1
		c0.1,0,0.2,0,0.4,0c0.2,0,0.5,0,0.7,0.1c0.2,0.1,0.5,0.1,0.7,0.2c0.2,0.1,0.4,0.2,0.5,0.4c0.1,0.1,0.2,0.1,0.2,0.2
		c0.1,0.1,0.1,0.2,0.2,0.3c0,0.1,0.1,0.2,0.1,0.3C147,72,147,72.1,147.1,72.2"/>
	<g>
		<path fill="#FFFFFF" d="M91.8,67c0.5,0.5,1.1,0.6,1.8,0.4c0.7-0.2,1.3-0.5,1.9-1c0.2-0.2,0.4-0.3,0.5-0.3c0.2-0.1,0.3,0,0.4,0.2
			c0.1,0.2,0,0.5-0.2,0.8c-0.2,0.3-0.5,0.7-0.8,1c-0.4,0.3-0.8,0.6-1.2,0.9c-0.5,0.3-0.9,0.5-1.4,0.6c-0.8,0.2-1.6,0.2-2.3,0
			c-0.7-0.2-1.3-0.6-1.8-1.2c-0.5-0.6-0.9-1.3-1-2c-0.2-0.8-0.3-1.5-0.3-2.2c0-0.7,0.1-1.4,0.3-2c0.2-0.6,0.4-1.2,0.8-1.8
			c0.3-0.6,0.7-1.1,1.1-1.5c0.9-0.9,1.8-1.5,2.7-1.7c0.9-0.2,1.7-0.1,2.4,0.3c0.7,0.4,1.1,1,1.3,1.8c0.2,0.8,0.2,1.6,0,2.4
			c-0.1,0.4-0.3,0.7-0.5,0.9C95,62.8,94.7,63,94.4,63c-0.2,0.1-0.4,0.1-0.6,0c-0.4-0.1-0.6-0.3-0.7-0.6c0-0.1,0-0.4,0-1
			c0.1-0.6,0.1-1.1,0.1-1.7c0-0.6,0-1,0-1.2c-0.1-0.2-0.1-0.3-0.3-0.4c-0.1,0-0.3,0-0.6,0c-0.2,0.1-0.5,0.2-0.7,0.6
			c-0.2,0.3-0.4,0.7-0.6,1.2c-0.2,0.5-0.3,1-0.4,1.6c-0.1,0.6-0.1,1.2-0.1,1.8c0,0.6,0.1,1.2,0.2,1.7c0.1,0.5,0.3,0.9,0.4,1.2
			C91.4,66.5,91.6,66.8,91.8,67z"/>
		<path fill="#FFFFFF" d="M99,67.2c-0.8-0.4-1.3-1.1-1.6-2.3c-0.1-0.6-0.2-1.2-0.2-1.7c0-0.6,0.2-1.1,0.4-1.5
			c0.2-0.4,0.5-0.9,0.8-1.2c0.7-0.7,1.5-1.2,2.5-1.5c2-0.5,3.3,0.1,4,1.9c0.3,0.1,0.5,0,0.8,0c0.3-0.1,0.5-0.1,0.6-0.2
			c0.2-0.1,0.3-0.2,0.4-0.4c0.1-0.1,0.2-0.2,0.3-0.2c0.1,0,0.2,0,0.3,0.2c0,0.2,0,0.4-0.2,0.6c-0.3,0.5-0.8,0.8-1.4,0.9
			c-0.2,0.1-0.4,0.1-0.6,0.1c0.2,1.3,0,2.4-0.6,3.4c-0.3,0.5-0.7,0.9-1.2,1.3c-0.5,0.4-1,0.6-1.6,0.8c-0.6,0.1-1.1,0.2-1.6,0.2
			C99.8,67.5,99.4,67.4,99,67.2z M100.4,64.9c0.2,0.9,0.6,1.3,1,1.2c0.3-0.1,0.5-0.4,0.7-0.9c0.1-0.5,0.2-1.1,0.2-1.8
			c0-0.7-0.1-1.4-0.3-2.1c-0.2-0.7-0.4-1-0.8-0.9c-0.3,0.1-0.6,0.4-0.7,0.8c-0.2,0.5-0.3,1.1-0.3,1.7
			C100.2,63.5,100.2,64.2,100.4,64.9z"/>
		<path fill="#FFFFFF" d="M106.9,57.8l2.5-0.7c0.1,0,0.2,0,0.2,0.1c0.1,0.1,0.1,0.1,0.1,0.2c0,0.1,0,0.2,0,0.3c0,0.2,0,0.3,0,0.6
			c0,0.2,0,0.4,0,0.4c0.2-0.5,0.4-1,0.7-1.4c0.3-0.4,0.6-0.7,0.9-0.8c0.7-0.2,1,0,1.1,0.3c0.1,0.4,0.1,0.9,0.1,1.5
			c0,0.6-0.1,1-0.2,1.2c-0.1,0.1-0.1,0.2-0.2,0.2c-0.1,0-0.2,0-0.3-0.1c-0.5-0.3-1-0.4-1.5-0.3c-0.2,0-0.4,0.1-0.5,0.2
			c0,0.7,0.1,1.7,0.1,3c0,1.3,0,2.1,0,2.2c0,0.2-0.1,0.4-0.2,0.4c-0.5,0.1-1,0.3-1.6,0.5c-0.6,0.2-0.9,0.3-1,0.4c-0.1,0-0.2,0-0.2,0
			c-0.1-0.1-0.1-0.1-0.1-0.2c0-0.1,0-0.4,0-1c0-0.6,0-1.2,0-1.9c0-0.7,0-1.4,0-2.2c0-0.8-0.1-1.5-0.3-2l-0.1-0.3
			C106.4,58,106.6,57.8,106.9,57.8z"/>
		<path fill="#FFFFFF" d="M122.3,59.7c0.1,0,0.2,0,0.2,0.2c0,0.2,0,0.3-0.1,0.5c-0.1,0.2-0.3,0.4-0.5,0.6c-0.2,0.2-0.5,0.5-0.9,0.8
			c-0.9,0.7-1.9,1.2-3.2,1.6c-2.3,0.6-3.8-0.1-4.3-2.2c-0.2-1-0.2-1.9,0-2.8c0.3-0.9,0.7-1.6,1.4-2.2c0.6-0.6,1.4-1,2.3-1.2
			c0.9-0.2,1.6-0.2,2.1,0.1c0.5,0.3,0.8,0.8,1,1.4c0.2,0.7,0.1,1.3-0.2,1.8c-0.3,0.5-0.7,1-1.3,1.4c-0.6,0.4-1.3,0.7-2.1,1
			c0.2,0.7,0.7,1.1,1.5,1.1c0.2,0,0.4,0,0.6-0.1c0.8-0.2,1.9-0.8,3.3-1.9C122.2,59.7,122.3,59.7,122.3,59.7z M116.6,59.9
			c0.5-0.4,0.9-0.9,1.2-1.4c0.2-0.6,0.3-1.2,0.1-1.9c0-0.2-0.1-0.3-0.2-0.4c-0.1-0.1-0.2-0.1-0.4-0.1c-0.2,0-0.3,0.2-0.5,0.4
			c-0.1,0.2-0.2,0.6-0.3,0.9C116.4,58.2,116.4,59,116.6,59.9z"/>
	</g>
	<g>
		<path fill="#FFFFFF" d="M82.8,76.7c0,0.8,0.1,3,0.4,6.6c0.1,0,0.3-0.1,0.6-0.1c0.8-0.2,1.3-0.9,1.6-2.1c0.3-1.2,0.2-2.6-0.3-4.3
			c-0.6-2.5-1.7-3.5-3.2-3.1c-0.6,0.2-1.1,0.4-1.7,0.7c-0.5,0.3-0.9,0.6-1.2,0.9c-0.3,0.3-0.5,0.5-0.7,0.8c-0.2,0.2-0.4,0.4-0.5,0.4
			c-0.2,0.1-0.3-0.1-0.4-0.3c-0.1-0.3,0-0.6,0.2-1c0.2-0.4,0.4-0.7,0.7-1.1c0.3-0.4,0.6-0.8,1.1-1.2c1-1,2.1-1.7,3.5-2
			c1.8-0.5,3.2,0,4.2,1.4c0.6,0.8,1,1.7,1.3,2.9c0.6,2.3,0.6,4.2,0,5.9c-0.5,1.5-1.3,2.5-2.5,3.2c-0.4,0.2-0.8,0.4-1.3,0.5
			c-0.5,0.1-0.9,0.2-1.3,0.1c0.1,1.1,0.2,1.9,0.2,2.5c0,0.6,0.1,1,0,1.4c0,0.4-0.1,0.7-0.2,0.9c-0.1,0.2-0.2,0.4-0.4,0.6
			c-0.3,0.2-0.7,0.4-1.2,0.6c-0.5,0.1-1,0.1-1.6,0c-0.5-0.1-1-0.3-1.3-0.5c-0.4-0.3-0.6-0.5-0.7-0.8c0-0.2,0-0.3,0-0.5
			c0-0.1,0.1-0.2,0.2-0.2c0.4-0.1,0.6-0.3,0.7-0.5c0.1-0.3,0.2-0.7,0.2-1.4c0-0.7,0-1.4-0.1-2.3c0-0.9-0.1-1.7-0.1-2.4
			c0-0.7-0.1-1.5-0.1-2.3c0-1.7,0.2-2.9,0.6-3.5c0.2-0.3,0.5-0.6,0.9-0.8c0.4-0.2,0.7-0.4,0.9-0.5c0.2-0.1,0.4-0.1,0.5-0.1
			c0.1,0,0.2,0,0.2,0c0.2,0,0.3,0.2,0.3,0.4c0,0.2,0.1,0.3,0.1,0.5C82.8,75.9,82.8,76.2,82.8,76.7z"/>
		<path fill="#FFFFFF" d="M96,73.7l2.8-0.5c0.1,0,0.2,0,0.3,0.1c0.1,0.1,0.1,0.2,0.2,0.4c0.1,0.6,0.3,1.5,0.3,2.8
			c0.1,1.3,0.2,2.6,0.2,3.8c0.1,1.3,0.2,2.1,0.3,2.5c0.1,0.4,0.2,0.6,0.3,0.7c0.1,0.1,0.2,0.1,0.4,0.1c0.2,0,0.4-0.3,0.8-0.7
			c0.4-0.4,0.6-0.8,0.7-1c0.1-0.2,0.2-0.3,0.3-0.4c0.2,0,0.3,0.1,0.3,0.3c0.1,0.6-0.2,1.5-1.2,2.7c-0.3,0.4-0.7,0.8-1.2,1.2
			c-0.5,0.4-1,0.6-1.6,0.8c-1,0.2-1.7-0.2-2.2-1.4c-0.3,1.4-1,2.2-2,2.4c-0.7,0.2-1.4,0-2.1-0.5c-0.7-0.6-1.3-1.7-1.7-3.3
			c-0.4-1.7-0.6-3.3-0.4-4.8c0.1-1.7,0.6-2.9,1.4-3.8c0.4-0.5,0.9-0.8,1.5-0.9c0.9-0.2,1.7,0,2.4,0.8c0,0,0-0.1-0.1-0.2l-0.1-0.5
			C95.5,74.1,95.6,73.8,96,73.7z M95.5,84.3c0.7-0.2,1.1-1.5,1-3.8c0-1.1-0.1-1.9-0.3-2.6s-0.3-1.1-0.5-1.3
			c-0.2-0.2-0.4-0.3-0.7-0.2c-0.3,0.1-0.6,0.5-0.8,1.1c-0.2,0.7-0.3,1.5-0.3,2.4c0,0.9,0.1,1.7,0.3,2.4c0.2,0.7,0.4,1.2,0.6,1.5
			C95,84.3,95.2,84.4,95.5,84.3z"/>
		<path fill="#FFFFFF" d="M101.8,72.6l2.7-0.8c0.1,0,0.2,0,0.3,0.1c0.1,0.1,0.1,0.2,0.2,0.3c0,0.1,0.1,0.3,0.1,0.5
			c0,0.2,0.1,0.5,0.1,0.9c0,0.3,0.1,0.6,0.1,0.7c0.1-0.8,0.3-1.5,0.7-2.2c0.3-0.7,0.6-1,1-1.1c0.7-0.2,1.2,0,1.4,0.7
			c0.2,0.6,0.3,1.4,0.3,2.3c0,0.9,0,1.6-0.1,1.9c-0.1,0.1-0.1,0.2-0.3,0.3c-0.1,0-0.3,0-0.4-0.1c-0.7-0.6-1.3-0.8-1.8-0.6
			c-0.2,0.1-0.4,0.1-0.5,0.2c0.1,1.1,0.3,2.7,0.4,4.7c0.2,2.1,0.3,3.3,0.3,3.5c0,0.4,0,0.6-0.2,0.6c-0.6,0.1-1.2,0.4-1.8,0.7
			c-0.6,0.3-1,0.4-1.1,0.5c-0.1,0-0.2,0-0.3-0.1c-0.1-0.1-0.1-0.2-0.2-0.3c0-0.1-0.1-0.7-0.2-1.6c-0.1-0.9-0.1-1.9-0.2-3
			c-0.1-1.1-0.2-2.3-0.3-3.5c-0.1-1.3-0.3-2.3-0.5-3.1l-0.1-0.4C101.3,73,101.4,72.7,101.8,72.6z"/>
		<path fill="#FFFFFF" d="M113.5,69.7l1.4-0.8c0.3-0.1,0.5,0.1,0.6,0.6c0.1,0.4,0.1,0.8-0.2,0.9c-0.2,0.2-0.8,0.5-1.7,0.9
			c0,0.7,0.1,1.7,0.1,3c0.1,2.6,0.2,4.2,0.3,4.7c0.1,0.5,0.4,0.8,0.7,0.7c1.1-0.3,2-0.9,2.7-1.9c0.1-0.1,0.2-0.2,0.3-0.2
			c0.1,0,0.2,0.1,0.3,0.3c0.1,0.3,0,0.5-0.1,0.8c-0.4,0.9-1.1,1.7-2.1,2.5c-1,0.8-2,1.3-3,1.6c-0.6,0.1-1,0.1-1.4-0.2
			c-0.4-0.3-0.7-0.7-0.8-1.3c-0.2-0.6-0.2-1.8-0.3-3.6c0-2-0.1-3.7-0.3-5.2c-0.2,0.1-0.4,0.1-0.5,0.2c-0.2,0.1-0.4-0.1-0.5-0.5
			c-0.1-0.3-0.1-0.5,0-0.6c0.1-0.1,0.1-0.2,0.2-0.3c0.1-0.1,0.1-0.1,0.2-0.1c0.1,0,0.1-0.1,0.2-0.1c0.1,0,0.2-0.1,0.2-0.1
			c-0.1-0.6-0.2-1.2-0.4-1.7l-0.1-0.4c-0.1-0.3,0.1-0.6,0.5-0.9c0.1-0.1,0.6-0.4,1.3-0.9c0.7-0.6,1.1-0.8,1.3-0.9
			c0.3-0.1,0.5,0.1,0.6,0.5C113.3,67.6,113.4,68.5,113.5,69.7z"/>
		<path fill="#FFFFFF" d="M129,74.8c0.1,0,0.3,0.1,0.3,0.3c0.1,0.3,0.1,0.5,0,0.8c-0.1,0.2-0.2,0.5-0.5,0.9
			c-0.2,0.3-0.5,0.7-0.8,1.1c-0.3,0.4-0.7,0.8-1.2,1.2c-0.5,0.4-1,0.6-1.5,0.7c-1.2,0.3-1.9-0.1-2.1-1.1c-0.2-0.7-0.3-1.9-0.3-3.8
			c-0.1-1.8-0.2-3.1-0.3-3.7c-0.2-0.7-0.5-1-1.1-0.8c-0.2,0.1-0.5,0.2-0.8,0.4c0.1,1.1,0.3,2.8,0.5,5.1c0.2,2.4,0.3,3.7,0.3,4
			c0,0.3,0,0.5-0.2,0.5l-3,0.9c0,0-0.1,0-0.2-0.1c-0.1-0.1-0.1-0.2-0.2-0.3c0-0.1-0.1-0.7-0.1-1.6c-0.1-0.9-0.1-1.9-0.2-2.9
			c-0.1-1.1-0.2-2.2-0.3-3.4c-0.1-1.2-0.3-2.3-0.5-3l-0.1-0.4c-0.1-0.4,0-0.6,0.4-0.7l2.7-0.8c0.1,0,0.2,0,0.3,0.1
			c0.1,0.1,0.1,0.2,0.2,0.4c0,0.2,0.1,0.5,0.2,0.9c1.1-1.5,2.1-2.3,3-2.6c0.4-0.1,0.8,0,1.2,0.3c0.5,0.4,0.8,1,1.1,1.9
			c0.2,0.9,0.4,2.2,0.4,3.9c0,1.6,0.1,2.6,0.2,3c0.2,0.7,0.4,1,0.7,1c0.2,0,0.5-0.3,0.8-0.7c0.4-0.4,0.6-0.7,0.8-0.9
			C128.8,74.9,128.9,74.8,129,74.8z"/>
		<path fill="#FFFFFF" d="M138.1,72.4c0.1,0,0.2,0.1,0.3,0.3c0.1,0.3,0,0.5-0.1,0.8c-0.1,0.3-0.3,0.5-0.5,0.9
			c-0.2,0.3-0.5,0.7-0.9,1.2c-0.9,1-2.1,1.8-3.5,2.1c-2.6,0.7-4.4-0.6-5.2-3.8c-0.4-1.6-0.5-3-0.3-4.4c0.2-1.3,0.6-2.4,1.3-3.3
			c0.7-0.9,1.5-1.4,2.5-1.7c1-0.3,1.8-0.1,2.4,0.3c0.6,0.5,1.1,1.3,1.3,2.3c0.3,1.1,0.3,2,0,2.9c-0.3,0.8-0.7,1.5-1.4,2
			c-0.7,0.5-1.4,1-2.4,1.4c0.4,1.2,1,1.8,1.9,1.9c0.2,0,0.5,0,0.7-0.1c0.9-0.2,2.1-1.1,3.5-2.7C138,72.5,138.1,72.4,138.1,72.4z
			 M131.5,72.1c0.6-0.5,1-1.3,1.2-2.1c0.2-0.9,0.2-1.8-0.1-2.9c-0.1-0.3-0.2-0.5-0.3-0.6c-0.1-0.1-0.3-0.2-0.5-0.1
			c-0.2,0-0.3,0.3-0.5,0.6c-0.1,0.4-0.2,0.8-0.2,1.4C131.1,69.5,131.2,70.8,131.5,72.1z"/>
		<path fill="#FFFFFF" d="M137.4,63.4l2.7-0.8c0.1,0,0.2,0,0.3,0.1c0.1,0.1,0.1,0.2,0.2,0.3c0,0.1,0.1,0.3,0.1,0.5
			c0,0.2,0.1,0.5,0.1,0.9c0,0.3,0.1,0.6,0.1,0.7c0.1-0.8,0.3-1.5,0.7-2.2s0.6-1,1-1.1c0.7-0.2,1.2,0,1.4,0.7
			c0.2,0.6,0.3,1.4,0.3,2.3c0,0.9,0,1.6-0.1,1.9c-0.1,0.1-0.1,0.2-0.3,0.3c-0.1,0-0.3,0-0.4-0.1c-0.7-0.6-1.3-0.8-1.8-0.6
			c-0.2,0.1-0.4,0.1-0.5,0.2c0.1,1.1,0.3,2.7,0.4,4.7c0.2,2.1,0.3,3.3,0.3,3.5c0,0.4,0,0.6-0.2,0.6c-0.6,0.1-1.2,0.4-1.8,0.7
			c-0.6,0.3-1,0.4-1.1,0.5c-0.1,0-0.2,0-0.3-0.1c-0.1-0.1-0.1-0.2-0.2-0.3c0-0.1-0.1-0.7-0.2-1.6c-0.1-0.9-0.1-1.9-0.2-3
			c-0.1-1.1-0.2-2.3-0.3-3.5c-0.1-1.3-0.3-2.3-0.5-3.1l-0.1-0.4C136.8,63.8,137,63.5,137.4,63.4z"/>
	</g>
	<g>
		<path fill="#0B6300" d="M99,16.8c0-0.2,0-0.4-0.1-0.6l-0.4-0.6c0-0.1-0.1-0.1-0.1-0.2s0-0.1,0.1-0.1h1.9c0,0,0.1,0.1,0.1,0.1
			s-0.1,0.1-0.1,0.2l-0.4,0.6c-0.1,0.1-0.1,0.3-0.1,0.6v13h0.5c0.1,0,0.3-0.1,0.3-0.3l0.8-4c0-0.1,0-0.1,0.1-0.1
			c0,0,0.1,0.1,0.1,0.1v5.1c0,0.2,0,0.3-0.1,0.3h-3c0,0-0.1-0.1-0.1-0.1c0-0.1,0.1-0.1,0.1-0.2l0.4-0.6c0.1-0.1,0.1-0.3,0.1-0.6
			V16.8z"/>
		<path fill="#0B6300" d="M105.3,27.3c0-0.1,0-0.2-0.1-0.2h-0.9c0,0-0.1,0.1-0.1,0.1l-0.2,2.3c0,0.1,0,0.3,0.1,0.4l0.3,0.5
			c0,0.1,0.1,0.2,0.1,0.2c0,0.1,0,0.1-0.1,0.1H103c0,0-0.1-0.1-0.1-0.1c0-0.1,0-0.1,0.1-0.2l0.3-0.6c0.1-0.1,0.1-0.3,0.1-0.5
			l1.1-13.9c0-0.1,0-0.2,0.1-0.2h0.5c0.1,0,0.1,0.1,0.1,0.2l1.2,13.8c0,0.2,0,0.4,0.1,0.6l0.4,0.5c0,0.1,0.1,0.1,0.1,0.2
			c0,0.1,0,0.1-0.1,0.1h-1.8c-0.1,0-0.1-0.1-0.1-0.1c0-0.1,0-0.1,0.1-0.2l0.3-0.6c0-0.1,0.1-0.2,0.1-0.4L105.3,27.3z M105.1,26
			c0,0,0.1-0.1,0-0.1l-0.4-5.1h0l-0.4,5.1c0,0.1,0,0.1,0,0.1H105.1z"/>
		<path fill="#0B6300" d="M109.5,29.3c0,0.2,0,0.4,0.1,0.6l0.4,0.6c0,0.1,0.1,0.1,0.1,0.2c0,0.1,0,0.1-0.1,0.1h-1.9
			c0,0-0.1-0.1-0.1-0.1c0-0.1,0.1-0.1,0.1-0.2l0.4-0.6c0.1-0.1,0.1-0.3,0.1-0.6V16.8c0-0.2,0-0.4-0.1-0.6l-0.4-0.6
			c0-0.1-0.1-0.1-0.1-0.2s0-0.1,0.1-0.1h1.5c1.3,0,1.9,1.1,1.9,3.8c0,2.3-0.5,3.2-0.9,3.7c0.4,0.4,0.8,1.2,0.8,2.3v4.3
			c0,0.1,0,0.3,0.1,0.4l0.4,0.7c0,0.1,0.1,0.2,0.1,0.2c0,0.1-0.1,0.1-0.1,0.1h-0.6c-0.6,0-0.8-0.6-0.8-1.3V25c0-0.9-0.3-1.6-0.8-1.6
			h-0.2V29.3z M109.5,22.4h0.2c0.6,0,0.8-0.8,0.8-3.3c0-2.1-0.2-2.8-0.8-2.8h-0.2V22.4z"/>
		<path fill="#0B6300" d="M115.5,24.2c0-0.2,0-0.3-0.1-0.5l-0.3-0.5c0-0.1-0.1-0.1-0.1-0.2c0-0.1,0-0.1,0.1-0.1h1.8
			c0,0,0.1,0,0.1,0.1c0,0.1,0,0.1-0.1,0.2l-0.4,0.5c-0.1,0.1-0.1,0.2-0.1,0.5v6.5c0,0.1,0,0.1-0.1,0.1c0,0-0.1,0-0.1-0.1l-0.4-0.6
			c0-0.1-0.1-0.1-0.1-0.1c0,0-0.1,0-0.1,0.1c-0.3,0.4-0.5,0.6-0.8,0.6c-1.5,0-1.6-4.7-1.6-8.1c0-2.5,0.1-7.3,1.6-7.3
			c0.4,0,0.7,0.3,0.8,0.5c0,0.1,0.1,0.1,0.2,0.1c0.1,0,0.2-0.1,0.3-0.3c0.1-0.2,0.2-0.3,0.2-0.3s0.1,0.1,0.1,0.4v5
			c0,0.1,0,0.1-0.1,0.1c0,0-0.1-0.1-0.1-0.2c-0.3-1.5-0.8-4.2-1.3-4.2c-0.5,0-0.7,2-0.7,6.3c0,5.9,0.1,7.1,0.6,7.1
			c0.4,0,0.7-0.8,0.7-2.7V24.2z"/>
		<path fill="#0B6300" d="M119.5,22.3h0.3c0.1,0,0.1,0,0.1-0.1l0.4-1.4c0-0.1,0-0.1,0.1-0.1c0,0,0,0,0,0.1v4.4c0,0.1,0,0.1,0,0.1
			c0,0-0.1-0.1-0.1-0.1l-0.4-1.5c0-0.1-0.1-0.1-0.1-0.1h-0.3v6.3h0.7c0.2,0,0.3-0.1,0.3-0.4l0.7-4c0-0.1,0-0.1,0.1-0.1
			c0,0,0.1,0.1,0.1,0.1v5.2c0,0.1,0,0.2-0.1,0.2h-3.2c0,0-0.1-0.1-0.1-0.1c0-0.1,0.1-0.1,0.1-0.2l0.4-0.6c0.1-0.1,0.1-0.3,0.1-0.6
			V16.8c0-0.2,0-0.4-0.1-0.6l-0.4-0.6c0-0.1-0.1-0.1-0.1-0.2s0-0.1,0.1-0.1h3.2c0,0,0.1,0.1,0.1,0.2v5.1c0,0.1,0,0.1-0.1,0.1
			c0,0-0.1-0.1-0.1-0.1l-0.7-3.9c0-0.3-0.2-0.4-0.3-0.4h-0.7V22.3z"/>
	</g>
	<path fill="#FFFFFF" d="M158,66.6c-1.2-0.3-2.2-0.6-2.8-1c-0.6-0.4-1.1-0.9-1.3-1.5c-0.3-0.6-0.4-1.4-0.3-2.3c0-0.9,0.1-2,0.3-3.3
		c0.3-1.9,0.5-3.4,0.6-4.5c0.1-1.1,0.3-2.2,0.4-3.1c0.1-0.9,0.3-2,0.4-3.1c0.2-1.1,0.3-2.5,0.5-4.3c0.3-2.3,0.2-4.2-0.5-5.6
		c-0.6-1.5-1.5-2.6-2.7-3.4c-1.2-0.8-2.5-1.3-4.1-1.5c-1.5-0.2-2.9-0.2-4.4,0.1c0.1-1,0-2.1-0.1-3.1c-0.2-1.5-0.7-2.9-1.5-4.1
		c-0.8-1.2-1.9-2.1-3.4-2.7c-1.5-0.6-3.3-0.8-5.6-0.5c-1.8,0.2-3.2,0.4-4.3,0.5c-1.1,0.2-2.1,0.3-3.1,0.4c-1,0.1-2,0.3-3.1,0.4
		c-1.1,0.1-2.6,0.3-4.5,0.6c-1.3,0.2-2.4,0.2-3.3,0.3c-0.9,0-1.6-0.1-2.3-0.3c-0.6-0.3-1.1-0.7-1.5-1.3c-0.4-0.6-0.7-1.6-1-2.8v-0.1
		h-1.1v0.1c-0.3,1.2-0.6,2.2-1,2.8c-0.4,0.6-0.9,1.1-1.5,1.3c-0.6,0.3-1.4,0.4-2.3,0.3c-0.9,0-2-0.1-3.3-0.3
		c-1.9-0.3-3.4-0.4-4.5-0.6c-1.1-0.1-2.2-0.3-3.1-0.4c-0.9-0.1-2-0.3-3.1-0.4c-1.1-0.2-2.5-0.3-4.3-0.5c-2.3-0.3-4.2-0.2-5.6,0.5
		c-1.5,0.6-2.6,1.5-3.4,2.7c-0.8,1.2-1.3,2.5-1.5,4.1c-0.1,1-0.2,2.1-0.1,3.1c-1.4-0.2-2.9-0.2-4.3,0c-1.5,0.2-2.9,0.7-4.1,1.5
		c-1.2,0.8-2.1,1.9-2.7,3.4c-0.6,1.5-0.8,3.3-0.5,5.6c0.2,1.8,0.4,3.2,0.5,4.3c0.2,1.1,0.3,2.1,0.4,3.1c0.1,1,0.3,2,0.4,3.1
		c0.1,1.1,0.3,2.6,0.6,4.5c0.2,1.3,0.2,2.4,0.3,3.3c0,0.9-0.1,1.6-0.3,2.3c-0.3,0.6-0.7,1.1-1.3,1.5c-0.6,0.4-1.6,0.7-2.8,1h-0.1
		v1.1H62c1.2,0.3,2.2,0.6,2.8,1c0.6,0.4,1.1,0.9,1.3,1.5c0.3,0.6,0.4,1.4,0.3,2.3c0,0.9-0.1,2-0.3,3.3c-0.3,1.9-0.4,3.4-0.6,4.5
		c-0.1,1.1-0.3,2.2-0.4,3.1c-0.1,0.9-0.3,2-0.4,3.1c-0.2,1.1-0.3,2.5-0.5,4.3c-0.3,2.3-0.2,4.2,0.5,5.6c0.6,1.5,1.5,2.6,2.7,3.4
		c1.2,0.8,2.5,1.3,4.1,1.5c1.5,0.2,2.9,0.2,4.4-0.1c-0.1,1,0,2,0.1,3c0.2,1.5,0.7,2.9,1.5,4.1c0.8,1.2,1.9,2.1,3.4,2.7
		c1.5,0.6,3.3,0.8,5.6,0.5c1.8-0.2,3.2-0.4,4.3-0.5c1.1-0.2,2.1-0.3,3.1-0.4c1-0.1,2-0.3,3.1-0.4c1.1-0.1,2.6-0.3,4.5-0.6
		c1.3-0.2,2.4-0.2,3.3-0.3c0.9,0,1.6,0.1,2.3,0.3c0.6,0.3,1.1,0.7,1.5,1.3c0.4,0.6,0.7,1.6,1,2.8v0.1h1.1v-0.1
		c0.3-1.2,0.6-2.2,1-2.8c0.4-0.6,0.9-1.1,1.5-1.3c0.6-0.3,1.4-0.4,2.3-0.3c0.9,0,2,0.1,3.3,0.3c1.9,0.3,3.4,0.4,4.5,0.6
		c1.1,0.1,2.2,0.3,3.1,0.4c0.9,0.1,2,0.3,3.1,0.4c1.1,0.2,2.5,0.3,4.3,0.5c2.3,0.3,4.2,0.2,5.6-0.5c1.5-0.6,2.6-1.5,3.4-2.7
		c0.8-1.2,1.3-2.5,1.5-4.1c0.1-1,0.2-2,0.1-3c1.4,0.2,2.8,0.2,4.3,0c1.5-0.2,2.9-0.7,4.1-1.5c1.2-0.8,2.1-1.9,2.7-3.4
		c0.6-1.5,0.8-3.3,0.5-5.6c-0.2-1.8-0.4-3.2-0.5-4.3c-0.2-1.1-0.3-2.1-0.4-3.1c-0.1-1-0.3-2-0.4-3.1c-0.1-1.1-0.3-2.6-0.6-4.5
		c-0.2-1.3-0.2-2.4-0.3-3.3c0-0.9,0.1-1.6,0.3-2.3c0.3-0.6,0.7-1.1,1.3-1.5c0.6-0.4,1.6-0.7,2.8-1h0.1L158,66.6L158,66.6z"/>
	<g>
		<defs>
			<path id="SVGID_23_" d="M109.5,20.4L109.5,20.4c-0.3,1.3-0.6,2.2-1,2.9c-0.4,0.6-0.9,1.1-1.5,1.3c-0.6,0.3-1.4,0.4-2.3,0.3
				c-0.9,0-2-0.1-3.3-0.3c-1.9-0.3-3.4-0.4-4.5-0.6c-1.1-0.1-2.2-0.3-3.1-0.4c-0.9-0.1-2-0.3-3.1-0.4c-1.1-0.2-2.5-0.3-4.3-0.5
				c-2.3-0.3-4.2-0.2-5.6,0.5c-1.5,0.6-2.6,1.5-3.4,2.7c-0.8,1.2-1.3,2.5-1.5,4.1c-0.1,1-0.2,2.1-0.1,3.1c-1.4-0.2-2.9-0.2-4.3,0
				c-1.5,0.2-2.9,0.7-4.1,1.5c-1.2,0.8-2.1,1.9-2.7,3.4c-0.6,1.5-0.8,3.3-0.5,5.6c0.2,1.8,0.4,3.2,0.5,4.3c0.2,1.1,0.3,2.1,0.4,3.1
				c0.1,1,0.3,2,0.4,3.1c0.1,1.1,0.3,2.6,0.6,4.5c0.2,1.3,0.2,2.4,0.3,3.3c0,0.9-0.1,1.6-0.3,2.3c-0.3,0.6-0.7,1.1-1.3,1.5
				c-0.6,0.4-1.6,0.7-2.8,1h-0.1v1.1H62c1.2,0.3,2.2,0.6,2.8,1c0.6,0.4,1.1,0.9,1.3,1.5c0.3,0.6,0.4,1.4,0.3,2.3
				c0,0.9-0.1,2-0.3,3.3c-0.3,1.9-0.4,3.4-0.6,4.5c-0.1,1.1-0.3,2.2-0.4,3.1c-0.1,0.9-0.3,2-0.4,3.1c-0.2,1.1-0.3,2.5-0.5,4.3
				c-0.3,2.3-0.2,4.2,0.5,5.6c0.6,1.5,1.5,2.6,2.7,3.4c1.2,0.8,2.5,1.3,4.1,1.5c1.5,0.2,2.9,0.2,4.4-0.1c-0.1,1,0,2,0.1,3
				c0.2,1.5,0.7,2.9,1.5,4.1c0.8,1.2,1.9,2.1,3.4,2.7c1.5,0.6,3.3,0.8,5.6,0.5c1.8-0.2,3.2-0.4,4.3-0.5c1.1-0.2,2.1-0.3,3.1-0.4
				c1-0.1,2-0.3,3.1-0.4c1.1-0.1,2.6-0.3,4.5-0.6c1.3-0.2,2.4-0.2,3.3-0.3c0.9,0,1.6,0.1,2.3,0.3c0.6,0.3,1.1,0.7,1.5,1.3
				c0.4,0.6,0.7,1.6,1,2.8v0.1h1.1v-0.1c0.3-1.2,0.6-2.2,1-2.8c0.4-0.6,0.9-1.1,1.5-1.3c0.6-0.3,1.4-0.4,2.3-0.3
				c0.9,0,2,0.1,3.3,0.3c1.9,0.3,3.4,0.4,4.5,0.6c1.1,0.1,2.2,0.3,3.1,0.4c0.9,0.1,2,0.3,3.1,0.4c1.1,0.2,2.5,0.3,4.3,0.5
				c2.3,0.3,4.2,0.2,5.6-0.5c1.5-0.6,2.6-1.5,3.4-2.7c0.8-1.2,1.3-2.5,1.5-4.1c0.1-1,0.2-2,0.1-3c1.4,0.2,2.8,0.2,4.3,0
				c1.5-0.2,2.9-0.7,4.1-1.5c1.2-0.8,2.1-1.9,2.7-3.4c0.6-1.5,0.8-3.3,0.5-5.6c-0.2-1.8-0.4-3.2-0.5-4.3c-0.2-1.1-0.3-2.1-0.4-3.1
				c-0.1-1-0.3-2-0.4-3.1c-0.1-1.1-0.3-2.6-0.6-4.5c-0.2-1.3-0.2-2.4-0.3-3.3c0-0.9,0.1-1.6,0.3-2.3c0.3-0.6,0.7-1.1,1.3-1.5
				c0.6-0.4,1.6-0.7,2.8-1h0.1v-1.1H158c-1.2-0.3-2.2-0.6-2.8-1c-0.6-0.4-1.1-0.9-1.3-1.5c-0.3-0.6-0.4-1.4-0.3-2.3
				c0-0.9,0.1-2,0.3-3.3c0.3-1.9,0.5-3.4,0.6-4.5c0.1-1.1,0.3-2.2,0.4-3.1c0.1-0.9,0.3-2,0.4-3.1c0.2-1.1,0.3-2.5,0.5-4.3
				c0.3-2.3,0.2-4.2-0.5-5.6c-0.6-1.5-1.5-2.6-2.7-3.4c-1.2-0.8-2.5-1.3-4.1-1.5c-1.5-0.2-2.9-0.2-4.4,0.1c0.1-1,0-2.1-0.1-3.1
				c-0.2-1.5-0.7-2.9-1.5-4.1c-0.8-1.2-1.9-2.1-3.4-2.7c-1.5-0.6-3.3-0.8-5.6-0.5c-1.8,0.2-3.2,0.4-4.3,0.5
				c-1.1,0.2-2.1,0.3-3.1,0.4c-1,0.1-2,0.3-3.1,0.4c-1.1,0.1-2.6,0.3-4.5,0.6c-1.3,0.2-2.4,0.2-3.3,0.3c-0.9,0-1.6-0.1-2.3-0.3
				c-0.6-0.3-1.1-0.7-1.5-1.3c-0.4-0.6-0.7-1.6-1-2.8v-0.1H109.5z"/>
		</defs>
		<clipPath id="SVGID_4_">
			<use xlink:href="#SVGID_23_"  overflow="visible"/>
		</clipPath>
		<rect x="50.6" y="45.6" clip-path="url(#SVGID_4_)" fill="#0B6300" width="118" height="78.8"/>
		<rect x="50.6" y="17.2" clip-path="url(#SVGID_4_)" fill="#630055" width="1" height="30"/>
		<rect x="52.8" y="17.2" clip-path="url(#SVGID_4_)" fill="#630055" width="1" height="30"/>
		<rect x="55" y="17.2" clip-path="url(#SVGID_4_)" fill="#630055" width="1" height="30"/>
		<rect x="57.2" y="17.2" clip-path="url(#SVGID_4_)" fill="#630055" width="1" height="30"/>
		<rect x="59.3" y="17.2" clip-path="url(#SVGID_4_)" fill="#630055" width="1" height="30"/>
		<rect x="61.5" y="17.2" clip-path="url(#SVGID_4_)" fill="#630055" width="1" height="30"/>
		<rect x="63.7" y="17.2" clip-path="url(#SVGID_4_)" fill="#630055" width="1" height="30"/>
		<rect x="65.9" y="17.2" clip-path="url(#SVGID_4_)" fill="#0B6300" width="1" height="30"/>
		<rect x="68.1" y="17.2" clip-path="url(#SVGID_4_)" fill="#0B6300" width="1" height="30"/>
		<rect x="70.2" y="17.2" clip-path="url(#SVGID_4_)" fill="#0B6300" width="1" height="30"/>
		<rect x="72.4" y="17.2" clip-path="url(#SVGID_4_)" fill="#0B6300" width="1" height="30"/>
		<rect x="74.6" y="17.2" clip-path="url(#SVGID_4_)" fill="#0B6300" width="1" height="30"/>
		<rect x="76.8" y="17.2" clip-path="url(#SVGID_4_)" fill="#0B6300" width="1" height="30"/>
		<rect x="79" y="17.2" clip-path="url(#SVGID_4_)" fill="#0B6300" width="1" height="30"/>
		<rect x="81.2" y="17.2" clip-path="url(#SVGID_4_)" fill="#0B6300" width="1" height="30"/>
		<rect x="83.3" y="17.2" clip-path="url(#SVGID_4_)" fill="#0B6300" width="1" height="30"/>
		<rect x="85.5" y="17.2" clip-path="url(#SVGID_4_)" fill="#0B6300" width="1" height="30"/>
		<rect x="87.7" y="17.2" clip-path="url(#SVGID_4_)" fill="#0B6300" width="1" height="30"/>
		<rect x="89.9" y="17.2" clip-path="url(#SVGID_4_)" fill="#0B6300" width="1" height="30"/>
		<rect x="92.1" y="17.2" clip-path="url(#SVGID_4_)" fill="#0B6300" width="1" height="30"/>
		<rect x="94.2" y="17.2" clip-path="url(#SVGID_4_)" fill="#0B6300" width="1" height="30"/>
		<rect x="96.4" y="17.2" clip-path="url(#SVGID_4_)" fill="#0B6300" width="1" height="30"/>
		<rect x="98.6" y="17.2" clip-path="url(#SVGID_4_)" fill="#0B6300" width="1" height="30"/>
		<rect x="100.8" y="17.2" clip-path="url(#SVGID_4_)" fill="#0B6300" width="1" height="30"/>
		<rect x="103" y="17.2" clip-path="url(#SVGID_4_)" fill="#0B6300" width="1" height="30"/>
		<rect x="105.2" y="17.2" clip-path="url(#SVGID_4_)" fill="#0B6300" width="1" height="30"/>
		<rect x="107.3" y="17.2" clip-path="url(#SVGID_4_)" fill="#0B6300" width="1" height="30"/>
		<rect x="109.5" y="17.2" clip-path="url(#SVGID_4_)" fill="#0B6300" width="1" height="30"/>
		<rect x="111.7" y="17.2" clip-path="url(#SVGID_4_)" fill="#0B6300" width="1" height="30"/>
		<rect x="113.9" y="17.2" clip-path="url(#SVGID_4_)" fill="#0B6300" width="1" height="30"/>
		<rect x="116.1" y="17.2" clip-path="url(#SVGID_4_)" fill="#0B6300" width="1" height="30"/>
		<rect x="118.2" y="17.2" clip-path="url(#SVGID_4_)" fill="#0B6300" width="1" height="30"/>
		<rect x="120.4" y="17.2" clip-path="url(#SVGID_4_)" fill="#0B6300" width="1" height="30"/>
		<rect x="122.6" y="17.2" clip-path="url(#SVGID_4_)" fill="#0B6300" width="1" height="30"/>
		<rect x="124.8" y="17.2" clip-path="url(#SVGID_4_)" fill="#0B6300" width="1" height="30"/>
		<rect x="127" y="17.2" clip-path="url(#SVGID_4_)" fill="#0B6300" width="1" height="30"/>
		<rect x="129.2" y="17.2" clip-path="url(#SVGID_4_)" fill="#0B6300" width="1" height="30"/>
		<rect x="131.3" y="17.2" clip-path="url(#SVGID_4_)" fill="#0B6300" width="1" height="30"/>
		<rect x="133.5" y="17.2" clip-path="url(#SVGID_4_)" fill="#0B6300" width="1" height="30"/>
		<rect x="135.7" y="17.2" clip-path="url(#SVGID_4_)" fill="#0B6300" width="1" height="30"/>
		<rect x="137.9" y="17.2" clip-path="url(#SVGID_4_)" fill="#0B6300" width="1" height="30"/>
		<rect x="140.1" y="17.2" clip-path="url(#SVGID_4_)" fill="#0B6300" width="1" height="30"/>
		<rect x="142.3" y="17.2" clip-path="url(#SVGID_4_)" fill="#0B6300" width="1" height="30"/>
		<rect x="144.4" y="17.2" clip-path="url(#SVGID_4_)" fill="#0B6300" width="1" height="30"/>
		<rect x="146.6" y="17.2" clip-path="url(#SVGID_4_)" fill="#0B6300" width="1" height="30"/>
		<rect x="148.8" y="17.2" clip-path="url(#SVGID_4_)" fill="#0B6300" width="1" height="30"/>
		<rect x="151" y="17.2" clip-path="url(#SVGID_4_)" fill="#0B6300" width="1" height="30"/>
		<rect x="153.2" y="17.2" clip-path="url(#SVGID_4_)" fill="#0B6300" width="1" height="30"/>
		<rect x="155.3" y="17.2" clip-path="url(#SVGID_4_)" fill="#630055" width="1" height="30"/>
		<rect x="157.5" y="17.2" clip-path="url(#SVGID_4_)" fill="#630055" width="1" height="30"/>
		<rect x="159.7" y="17.2" clip-path="url(#SVGID_4_)" fill="#630055" width="1" height="30"/>
		<rect x="161.9" y="17.2" clip-path="url(#SVGID_4_)" fill="#630055" width="1" height="30"/>
		<rect x="164.1" y="17.2" clip-path="url(#SVGID_4_)" fill="#630055" width="1" height="30"/>
		<rect x="166.3" y="17.2" clip-path="url(#SVGID_4_)" fill="#630055" width="1" height="30"/>
		<rect x="168.4" y="17.2" clip-path="url(#SVGID_4_)" fill="#630055" width="1" height="30"/>
	</g>
	<path fill="#FE7301" d="M110.6,115.1h-2.4v-1.3c-0.3-1.2-0.6-1.9-0.8-2.2c-0.3-0.4-0.6-0.7-0.9-0.8c-0.4-0.2-0.9-0.2-1.5-0.2
		l-0.2,0c-0.9,0-1.9,0.1-3.1,0.3c-1.8,0.3-3.3,0.4-4.5,0.6c-1.1,0.1-2.2,0.3-3.1,0.4c-1,0.1-2,0.3-3.1,0.4c-1.2,0.2-2.6,0.3-4.3,0.5
		c-2.5,0.3-4.6,0.1-6.3-0.6c-1.7-0.7-3-1.8-4-3.2c-0.9-1.4-1.5-2.9-1.7-4.7c-0.1-0.5-0.1-1.1-0.1-1.7c-1.1,0.1-2.1,0-3.2-0.1
		c-1.7-0.2-3.3-0.8-4.6-1.7c-1.4-0.9-2.5-2.3-3.2-4c-0.7-1.7-0.9-3.8-0.6-6.4c0.2-1.8,0.4-3.2,0.5-4.3c0.2-1.1,0.3-2.1,0.4-3.1
		c0.1-0.9,0.3-2,0.4-3.1c0.1-1.1,0.3-2.6,0.6-4.6c0.1-1.2,0.2-2.3,0.3-3.1c0-0.7-0.1-1.3-0.2-1.7c-0.1-0.3-0.4-0.6-0.8-0.9
		c-0.3-0.2-1-0.5-2.2-0.8h-1.2l-0.1-1.4v-2.4h1.3c1.2-0.3,1.9-0.6,2.2-0.8c0.4-0.3,0.7-0.6,0.8-0.9c0.2-0.4,0.3-1,0.2-1.7
		c0-0.9-0.1-1.9-0.3-3.1c-0.3-1.8-0.5-3.3-0.6-4.5c-0.1-1.1-0.3-2.2-0.4-3.1c-0.1-1-0.3-2-0.4-3.1c-0.2-1.1-0.3-2.6-0.5-4.3
		c-0.3-2.5-0.1-4.6,0.6-6.3c0.7-1.7,1.8-3,3.2-4c1.4-0.9,2.9-1.5,4.7-1.7c1-0.1,2-0.2,3.1-0.1c0-0.6,0.1-1.2,0.1-1.8
		c0.2-1.7,0.8-3.3,1.7-4.6c0.9-1.4,2.3-2.5,4-3.2c1.7-0.7,3.8-0.9,6.3-0.6c1.8,0.2,3.2,0.4,4.3,0.5c1.1,0.2,2.1,0.3,3.1,0.4
		c0.9,0.1,2,0.3,3.1,0.4c1.1,0.1,2.6,0.3,4.6,0.6c1.2,0.1,2.3,0.2,3.1,0.3l0.2,0c0.6,0,1.1-0.1,1.5-0.2c0.3-0.1,0.6-0.4,0.9-0.8
		c0.2-0.3,0.5-1,0.8-2.2v-1.2l1.4-0.1h2.4v1.3c0.3,1.2,0.6,1.9,0.8,2.2c0.3,0.4,0.6,0.7,0.9,0.8c0.4,0.2,0.9,0.2,1.5,0.2l0.2,0
		c0.8,0,1.9-0.1,3.1-0.3c1.8-0.3,3.3-0.4,4.5-0.6c1.1-0.1,2.2-0.3,3.1-0.4c1-0.1,2-0.3,3.1-0.4c1.2-0.2,2.6-0.3,4.3-0.5
		c2.5-0.3,4.6-0.1,6.3,0.6c1.7,0.7,3,1.8,4,3.2c0.9,1.4,1.5,2.9,1.7,4.7c0.1,0.6,0.1,1.2,0.1,1.8c1-0.1,2.1,0,3.2,0.1
		c1.7,0.2,3.3,0.8,4.6,1.7c1.4,0.9,2.5,2.3,3.2,4c0.7,1.7,0.9,3.8,0.6,6.4c-0.2,1.8-0.4,3.2-0.5,4.3c-0.2,1.1-0.3,2.1-0.4,3.1
		c-0.1,0.9-0.3,2-0.4,3.1c-0.1,1.1-0.3,2.7-0.6,4.6c-0.1,1.2-0.2,2.3-0.3,3.1c0,0.7,0.1,1.3,0.2,1.7c0.1,0.3,0.4,0.6,0.8,0.9
		c0.3,0.2,1,0.5,2.2,0.8h1.2l0.1,1.4V69h-1.3c-1.2,0.3-1.9,0.6-2.2,0.8c-0.4,0.3-0.7,0.6-0.8,0.9c-0.2,0.4-0.3,1-0.2,1.7
		c0,0.9,0.1,1.9,0.3,3.1c0.3,1.9,0.5,3.3,0.6,4.5c0.1,1.1,0.3,2.2,0.4,3.1c0.1,1,0.3,2,0.4,3.1c0.2,1.1,0.3,2.6,0.5,4.3
		c0.3,2.5,0.1,4.6-0.6,6.3c-0.7,1.7-1.8,3-3.2,4c-1.4,0.9-2.9,1.5-4.7,1.7c-1,0.1-2,0.2-3.1,0.1c0,0.6-0.1,1.1-0.1,1.7
		c-0.2,1.7-0.8,3.3-1.7,4.6c-0.9,1.4-2.3,2.5-4,3.2c-1.7,0.7-3.8,0.9-6.3,0.6c-1.8-0.2-3.2-0.4-4.3-0.5c-1.1-0.2-2.1-0.3-3.1-0.4
		c-0.9-0.1-2-0.3-3.1-0.4c-1.1-0.1-2.7-0.3-4.6-0.6c-1.2-0.1-2.3-0.2-3.1-0.3l-0.2,0c-0.6,0-1.1,0.1-1.5,0.2
		c-0.3,0.1-0.6,0.4-0.9,0.8c-0.2,0.3-0.5,1-0.8,2.2v1.2L110.6,115.1z M104.9,107.8c1,0,1.8,0.2,2.5,0.5c0.9,0.4,1.6,1,2.2,1.9
		c0.1,0.2,0.3,0.4,0.4,0.7c0.1-0.2,0.2-0.5,0.3-0.7c0.5-0.9,1.3-1.5,2.1-1.9c0.7-0.3,1.6-0.5,2.5-0.5l0.3,0c0.9,0,2.1,0.1,3.4,0.3
		c1.9,0.3,3.4,0.4,4.5,0.6c1.1,0.1,2.2,0.3,3.1,0.4c1,0.1,2,0.3,3.1,0.4c1.1,0.2,2.5,0.3,4.3,0.5c2.1,0.3,3.7,0.2,5-0.4
		c1.2-0.5,2.1-1.2,2.8-2.2c0.7-1,1.1-2.2,1.3-3.5c0.1-0.9,0.1-1.8,0.1-2.7l-0.1-1.6l1.6,0.2c1.3,0.2,2.6,0.2,4,0
		c1.3-0.2,2.5-0.6,3.5-1.2c1-0.6,1.7-1.6,2.2-2.8c0.5-1.2,0.6-2.9,0.4-4.9c-0.2-1.7-0.4-3.2-0.5-4.3c-0.2-1.1-0.3-2.1-0.4-3.1
		c-0.1-1-0.3-2-0.4-3.2c-0.1-1.1-0.3-2.6-0.6-4.4c-0.2-1.3-0.3-2.5-0.3-3.4c0-1.1,0.1-2,0.4-2.8c0.4-0.9,1-1.6,1.9-2.2
		c0.2-0.1,0.4-0.3,0.7-0.4c-0.2-0.1-0.5-0.2-0.7-0.3c-0.9-0.5-1.5-1.3-1.9-2.1c-0.3-0.8-0.5-1.7-0.4-2.8c0-0.9,0.1-2.1,0.3-3.4
		c0.3-1.9,0.4-3.4,0.6-4.5c0.1-1.1,0.3-2.2,0.4-3.1c0.1-0.9,0.3-2,0.4-3.1c0.2-1.1,0.3-2.5,0.5-4.3c0.3-2.1,0.2-3.7-0.4-5
		c-0.5-1.2-1.2-2.1-2.2-2.8c-1-0.7-2.2-1.1-3.5-1.3c-1.3-0.2-2.7-0.2-4,0l-1.7,0.3l0.1-1.7c0.1-1,0-1.9-0.1-2.9
		c-0.2-1.3-0.6-2.5-1.2-3.5c-0.6-1-1.6-1.7-2.8-2.2c-1.2-0.5-2.9-0.6-4.9-0.4c-1.7,0.2-3.1,0.4-4.3,0.5c-1.1,0.2-2.1,0.3-3.1,0.4
		c-1,0.1-2,0.3-3.2,0.4c-1.1,0.1-2.6,0.3-4.4,0.6c-1.4,0.2-2.5,0.3-3.4,0.3l-0.3,0c-1,0-1.8-0.2-2.5-0.5c-0.9-0.4-1.6-1-2.2-1.9
		c-0.1-0.2-0.3-0.4-0.4-0.7c-0.1,0.2-0.2,0.5-0.3,0.7c-0.5,0.9-1.3,1.5-2.1,1.9c-0.7,0.3-1.6,0.5-2.5,0.5l-0.3,0
		c-0.9,0-2.1-0.1-3.4-0.3c-1.9-0.3-3.4-0.4-4.5-0.6c-1.1-0.1-2.2-0.3-3.1-0.4c-0.9-0.1-2-0.3-3.1-0.4c-1.1-0.2-2.5-0.3-4.3-0.5
		c-2.1-0.3-3.7-0.2-5,0.4c-1.2,0.5-2.1,1.2-2.8,2.2c-0.7,1-1.1,2.2-1.3,3.5c-0.1,0.9-0.1,1.8-0.1,2.8l0.1,1.6l-1.6-0.2
		c-1.3-0.2-2.7-0.2-4,0c-1.3,0.2-2.5,0.6-3.5,1.2c-1,0.6-1.7,1.6-2.2,2.8c-0.5,1.2-0.6,2.9-0.4,4.9c0.2,1.7,0.4,3.2,0.5,4.3
		c0.2,1.1,0.3,2.1,0.4,3.1c0.1,1,0.3,2,0.4,3.2c0.1,1.1,0.3,2.6,0.6,4.4c0.2,1.3,0.3,2.5,0.3,3.4c0,1.1-0.1,2-0.5,2.8
		c-0.4,0.9-1,1.6-1.9,2.2c-0.2,0.1-0.4,0.3-0.7,0.4c0.2,0.1,0.5,0.2,0.7,0.3c0.9,0.5,1.5,1.3,1.9,2.1c0.3,0.8,0.5,1.7,0.5,2.8
		c0,1-0.1,2.1-0.3,3.4c-0.3,1.9-0.4,3.4-0.6,4.5c-0.1,1.1-0.3,2.2-0.4,3.1c-0.1,1-0.3,2-0.4,3.1c-0.2,1.1-0.3,2.5-0.5,4.3
		c-0.3,2.1-0.2,3.7,0.4,5c0.5,1.2,1.2,2.1,2.2,2.8c1,0.7,2.2,1.1,3.5,1.3c1.3,0.2,2.7,0.2,4,0l1.7-0.3l-0.1,1.7c0,1,0,1.9,0.1,2.8
		c0.2,1.3,0.6,2.5,1.2,3.5c0.6,1,1.6,1.7,2.8,2.2c1.2,0.5,2.9,0.6,4.9,0.4c1.7-0.2,3.1-0.4,4.3-0.5c1.1-0.2,2.1-0.3,3.1-0.4
		c1-0.1,2-0.3,3.2-0.4c1.1-0.1,2.6-0.3,4.4-0.6c1.3-0.2,2.5-0.3,3.4-0.3L104.9,107.8z"/>
	<path fill="#FE7301" d="M128.1,23.2c0,10-8.1,18.1-18.1,18.1c-10,0-18.1-8.1-18.1-18.1c0-10,8.1-18.1,18.1-18.1
		C120,5.1,128.1,13.2,128.1,23.2"/>
	<path fill="#FFFFFF" d="M125.7,23.2c0,8.7-7,15.7-15.7,15.7c-8.7,0-15.7-7-15.7-15.7c0-8.7,7-15.7,15.7-15.7
		C118.7,7.5,125.7,14.6,125.7,23.2"/>
	<path fill="#0B6300" d="M93.9,23.2c0-8.9,7.2-16.1,16.1-16.1c8.9,0,16.1,7.2,16.1,16.1c0,8.9-7.2,16.1-16.1,16.1
		C101.1,39.4,93.9,32.1,93.9,23.2 M94.7,23.2c0,8.4,6.8,15.3,15.3,15.3c8.4,0,15.3-6.8,15.3-15.3c0-8.4-6.8-15.3-15.3-15.3
		C101.6,8,94.7,14.8,94.7,23.2"/>
	<path fill="#FFFFFF" d="M147.1,72.2c0,0.1,0.1,0.2,0.1,0.3c0,0.1,0,0.2,0.1,0.3c0,0,0,0.1,0,0.1c0,0.1,0,0.1,0,0.2
		c0,0.1,0,0.1,0,0.1l0,0l0,0l0,0l0,0c0,0.4-0.1,0.8-0.2,1.3c-0.2,0.4-0.4,0.8-0.7,1.2c-0.1,0.2-0.3,0.4-0.4,0.6
		c-0.1,0.2-0.3,0.4-0.5,0.5c-0.3,0.3-0.7,0.6-1,1c-0.2,0.1-0.4,0.3-0.5,0.4c-0.2,0.1-0.4,0.3-0.6,0.4c-0.4,0.3-0.8,0.5-1.2,0.8
		c-0.4,0.3-0.8,0.5-1.2,0.7c-0.4,0.2-0.8,0.5-1.2,0.7c-0.4,0.2-0.8,0.4-1.2,0.7c-0.8,0.4-1.6,0.9-2.5,1.3c-0.8,0.4-1.6,0.8-2.5,1.2
		c-0.8,0.4-1.7,0.8-2.5,1.2c-0.8,0.4-1.7,0.8-2.5,1.2c-0.8,0.4-1.7,0.8-2.5,1.2c-0.8,0.4-1.6,0.8-2.5,1.2c-0.2,0.1-0.4,0.2-0.6,0.3
		c-0.2,0.1-0.4,0.2-0.6,0.3l-0.6,0.3l-0.3,0.1l-0.3,0.2c-0.4,0.2-0.8,0.4-1.2,0.6c-0.4,0.2-0.8,0.4-1.2,0.6
		c-1.6,0.8-3.2,1.7-4.9,2.5c-1.6,0.8-3.2,1.7-4.8,2.5l-1.2,0.6l-1.2,0.6l-0.5,0.3c-0.9-0.7-2-1.2-3.3-1.7c-1.3-0.4-2.8-0.8-4.4-1
		c-1.6-0.2-3.4-0.3-5.3-0.2c-1.9,0.1-3.9,0.2-5.9,0.6c0.6-0.2,1.2-0.3,1.7-0.5c0.6-0.2,1.2-0.3,1.7-0.5c0.2-0.1,0.5-0.1,0.7-0.2
		c0.2-0.1,0.4-0.1,0.7-0.2c0.2-0.1,0.4-0.1,0.7-0.2c0.2-0.1,0.4-0.1,0.7-0.2l1.3-0.4l1.3-0.4l0.7-0.2l0.7-0.2l1.3-0.4l1.3-0.4
		l0.7-0.2l0.7-0.2l1.3-0.4l1.3-0.4l1.3-0.4l1.3-0.4c1.8-0.5,3.5-1,5.3-1.6c1.7-0.5,3.5-1.1,5.2-1.6l2.6-0.8l2.6-0.8
		c0.9-0.3,1.8-0.5,2.6-0.8c0.9-0.3,1.7-0.5,2.6-0.8c0.9-0.3,1.7-0.6,2.6-0.8c0.9-0.3,1.7-0.6,2.6-0.8c0.4-0.1,0.9-0.3,1.3-0.4
		c0.4-0.1,0.8-0.3,1.3-0.5c0.4-0.2,0.8-0.3,1.3-0.5c0.4-0.2,0.8-0.3,1.2-0.5c0.4-0.2,0.8-0.4,1.2-0.5c0.4-0.2,0.8-0.4,1.2-0.5
		c0.4-0.2,0.8-0.4,1.2-0.6c0.4-0.2,0.8-0.4,1.1-0.6c0.4-0.2,0.7-0.4,1.1-0.7c0.4-0.3,0.7-0.5,1-0.8c0.3-0.3,0.6-0.6,0.8-0.8
		c0.3-0.3,0.5-0.6,0.6-0.9c0.1-0.1,0.1-0.3,0.2-0.5c0-0.1,0-0.2,0-0.3c0-0.1,0-0.2,0-0.3l0,0l0,0l0,0l0-0.1c0,0,0-0.1,0-0.1
		c0-0.1,0-0.1,0-0.1c0,0,0-0.1,0-0.1c0-0.2,0-0.4-0.1-0.5c-0.1-0.2-0.1-0.3-0.2-0.5c-0.1-0.1-0.2-0.3-0.3-0.4
		c-0.1-0.1-0.1-0.1-0.2-0.2c-0.1-0.1-0.1-0.1-0.2-0.1c-0.1,0-0.2-0.1-0.2-0.1c-0.1,0-0.2-0.1-0.2-0.1c-0.4-0.1-0.7-0.1-1.1,0
		c-0.1,0-0.2,0-0.3,0.1c-0.1,0-0.2,0.1-0.3,0.1c-0.2,0.1-0.4,0.2-0.5,0.3c-0.4,0.2-0.6,0.5-0.8,0.8c-0.1,0.2-0.2,0.4-0.3,0.5
		c0,0,0,0.1,0,0.1c0,0,0,0.1,0,0.1c0,0,0,0,0,0.1c0,0,0,0,0,0.1c0,0,0,0,0,0c0,0,0,0,0,0l0,0.1c0,0.2-0.1,0.2-0.3,0.2
		c-0.1,0-0.1,0-0.2-0.1c0,0-0.1-0.1,0-0.2l0-0.1l0-0.1c0-0.1,0-0.1,0-0.2c0-0.1,0-0.1,0-0.2c0,0,0-0.1,0-0.1
		c0.1-0.2,0.2-0.4,0.3-0.6c0.1-0.2,0.3-0.4,0.4-0.5c0.2-0.2,0.3-0.3,0.5-0.5c0.4-0.3,0.9-0.5,1.3-0.6c0.1,0,0.2-0.1,0.4-0.1
		c0.1,0,0.2,0,0.4,0c0.2,0,0.5,0,0.7,0.1c0.2,0.1,0.5,0.1,0.7,0.2c0.2,0.1,0.4,0.2,0.5,0.4c0.1,0.1,0.2,0.1,0.2,0.2
		c0.1,0.1,0.1,0.2,0.2,0.3c0,0.1,0.1,0.2,0.1,0.3C147,72,147,72.1,147.1,72.2"/>
	<g>
		<path fill="#FFFFFF" d="M91.8,67c0.5,0.5,1.1,0.6,1.8,0.4c0.7-0.2,1.3-0.5,1.9-1c0.2-0.2,0.4-0.3,0.5-0.3c0.2-0.1,0.3,0,0.4,0.2
			c0.1,0.2,0,0.5-0.2,0.8c-0.2,0.3-0.5,0.7-0.8,1c-0.4,0.3-0.8,0.6-1.2,0.9c-0.5,0.3-0.9,0.5-1.4,0.6c-0.8,0.2-1.6,0.2-2.3,0
			c-0.7-0.2-1.3-0.6-1.8-1.2c-0.5-0.6-0.9-1.3-1-2c-0.2-0.8-0.3-1.5-0.3-2.2c0-0.7,0.1-1.4,0.3-2c0.2-0.6,0.4-1.2,0.8-1.8
			c0.3-0.6,0.7-1.1,1.1-1.5c0.9-0.9,1.8-1.5,2.7-1.7c0.9-0.2,1.7-0.1,2.4,0.3c0.7,0.4,1.1,1,1.3,1.8c0.2,0.8,0.2,1.6,0,2.4
			c-0.1,0.4-0.3,0.7-0.5,0.9C95,62.8,94.7,63,94.4,63c-0.2,0.1-0.4,0.1-0.6,0c-0.4-0.1-0.6-0.3-0.7-0.6c0-0.1,0-0.4,0-1
			c0.1-0.6,0.1-1.1,0.1-1.7c0-0.6,0-1,0-1.2c-0.1-0.2-0.1-0.3-0.3-0.4c-0.1,0-0.3,0-0.6,0c-0.2,0.1-0.5,0.2-0.7,0.6
			c-0.2,0.3-0.4,0.7-0.6,1.2c-0.2,0.5-0.3,1-0.4,1.6c-0.1,0.6-0.1,1.2-0.1,1.8c0,0.6,0.1,1.2,0.2,1.7c0.1,0.5,0.3,0.9,0.4,1.2
			C91.4,66.5,91.6,66.8,91.8,67z"/>
		<path fill="#FFFFFF" d="M99,67.2c-0.8-0.4-1.3-1.1-1.6-2.3c-0.1-0.6-0.2-1.2-0.2-1.7c0-0.6,0.2-1.1,0.4-1.5
			c0.2-0.4,0.5-0.9,0.8-1.2c0.7-0.7,1.5-1.2,2.5-1.5c2-0.5,3.3,0.1,4,1.9c0.3,0.1,0.5,0,0.8,0c0.3-0.1,0.5-0.1,0.6-0.2
			c0.2-0.1,0.3-0.2,0.4-0.4c0.1-0.1,0.2-0.2,0.3-0.2c0.1,0,0.2,0,0.3,0.2c0,0.2,0,0.4-0.2,0.6c-0.3,0.5-0.8,0.8-1.4,0.9
			c-0.2,0.1-0.4,0.1-0.6,0.1c0.2,1.3,0,2.4-0.6,3.4c-0.3,0.5-0.7,0.9-1.2,1.3c-0.5,0.4-1,0.6-1.6,0.8c-0.6,0.1-1.1,0.2-1.6,0.2
			C99.8,67.5,99.4,67.4,99,67.2z M100.4,64.9c0.2,0.9,0.6,1.3,1,1.2c0.3-0.1,0.5-0.4,0.7-0.9c0.1-0.5,0.2-1.1,0.2-1.8
			c0-0.7-0.1-1.4-0.3-2.1c-0.2-0.7-0.4-1-0.8-0.9c-0.3,0.1-0.6,0.4-0.7,0.8c-0.2,0.5-0.3,1.1-0.3,1.7
			C100.2,63.5,100.2,64.2,100.4,64.9z"/>
		<path fill="#FFFFFF" d="M106.9,57.8l2.5-0.7c0.1,0,0.2,0,0.2,0.1c0.1,0.1,0.1,0.1,0.1,0.2c0,0.1,0,0.2,0,0.3c0,0.2,0,0.3,0,0.6
			c0,0.2,0,0.4,0,0.4c0.2-0.5,0.4-1,0.7-1.4c0.3-0.4,0.6-0.7,0.9-0.8c0.7-0.2,1,0,1.1,0.3c0.1,0.4,0.1,0.9,0.1,1.5
			c0,0.6-0.1,1-0.2,1.2c-0.1,0.1-0.1,0.2-0.2,0.2c-0.1,0-0.2,0-0.3-0.1c-0.5-0.3-1-0.4-1.5-0.3c-0.2,0-0.4,0.1-0.5,0.2
			c0,0.7,0.1,1.7,0.1,3c0,1.3,0,2.1,0,2.2c0,0.2-0.1,0.4-0.2,0.4c-0.5,0.1-1,0.3-1.6,0.5c-0.6,0.2-0.9,0.3-1,0.4c-0.1,0-0.2,0-0.2,0
			c-0.1-0.1-0.1-0.1-0.1-0.2c0-0.1,0-0.4,0-1c0-0.6,0-1.2,0-1.9c0-0.7,0-1.4,0-2.2c0-0.8-0.1-1.5-0.3-2l-0.1-0.3
			C106.4,58,106.6,57.8,106.9,57.8z"/>
		<path fill="#FFFFFF" d="M122.3,59.7c0.1,0,0.2,0,0.2,0.2c0,0.2,0,0.3-0.1,0.5c-0.1,0.2-0.3,0.4-0.5,0.6c-0.2,0.2-0.5,0.5-0.9,0.8
			c-0.9,0.7-1.9,1.2-3.2,1.6c-2.3,0.6-3.8-0.1-4.3-2.2c-0.2-1-0.2-1.9,0-2.8c0.3-0.9,0.7-1.6,1.4-2.2c0.6-0.6,1.4-1,2.3-1.2
			c0.9-0.2,1.6-0.2,2.1,0.1c0.5,0.3,0.8,0.8,1,1.4c0.2,0.7,0.1,1.3-0.2,1.8c-0.3,0.5-0.7,1-1.3,1.4c-0.6,0.4-1.3,0.7-2.1,1
			c0.2,0.7,0.7,1.1,1.5,1.1c0.2,0,0.4,0,0.6-0.1c0.8-0.2,1.9-0.8,3.3-1.9C122.2,59.7,122.3,59.7,122.3,59.7z M116.6,59.9
			c0.5-0.4,0.9-0.9,1.2-1.4c0.2-0.6,0.3-1.2,0.1-1.9c0-0.2-0.1-0.3-0.2-0.4c-0.1-0.1-0.2-0.1-0.4-0.1c-0.2,0-0.3,0.2-0.5,0.4
			c-0.1,0.2-0.2,0.6-0.3,0.9C116.4,58.2,116.4,59,116.6,59.9z"/>
	</g>
	<g>
		<path fill="#FFFFFF" d="M82.8,76.7c0,0.8,0.1,3,0.4,6.6c0.1,0,0.3-0.1,0.6-0.1c0.8-0.2,1.3-0.9,1.6-2.1c0.3-1.2,0.2-2.6-0.3-4.3
			c-0.6-2.5-1.7-3.5-3.2-3.1c-0.6,0.2-1.1,0.4-1.7,0.7c-0.5,0.3-0.9,0.6-1.2,0.9c-0.3,0.3-0.5,0.5-0.7,0.8c-0.2,0.2-0.4,0.4-0.5,0.4
			c-0.2,0.1-0.3-0.1-0.4-0.3c-0.1-0.3,0-0.6,0.2-1c0.2-0.4,0.4-0.7,0.7-1.1c0.3-0.4,0.6-0.8,1.1-1.2c1-1,2.1-1.7,3.5-2
			c1.8-0.5,3.2,0,4.2,1.4c0.6,0.8,1,1.7,1.3,2.9c0.6,2.3,0.6,4.2,0,5.9c-0.5,1.5-1.3,2.5-2.5,3.2c-0.4,0.2-0.8,0.4-1.3,0.5
			c-0.5,0.1-0.9,0.2-1.3,0.1c0.1,1.1,0.2,1.9,0.2,2.5c0,0.6,0.1,1,0,1.4c0,0.4-0.1,0.7-0.2,0.9c-0.1,0.2-0.2,0.4-0.4,0.6
			c-0.3,0.2-0.7,0.4-1.2,0.6c-0.5,0.1-1,0.1-1.6,0c-0.5-0.1-1-0.3-1.3-0.5c-0.4-0.3-0.6-0.5-0.7-0.8c0-0.2,0-0.3,0-0.5
			c0-0.1,0.1-0.2,0.2-0.2c0.4-0.1,0.6-0.3,0.7-0.5c0.1-0.3,0.2-0.7,0.2-1.4c0-0.7,0-1.4-0.1-2.3c0-0.9-0.1-1.7-0.1-2.4
			c0-0.7-0.1-1.5-0.1-2.3c0-1.7,0.2-2.9,0.6-3.5c0.2-0.3,0.5-0.6,0.9-0.8c0.4-0.2,0.7-0.4,0.9-0.5c0.2-0.1,0.4-0.1,0.5-0.1
			c0.1,0,0.2,0,0.2,0c0.2,0,0.3,0.2,0.3,0.4c0,0.2,0.1,0.3,0.1,0.5C82.8,75.9,82.8,76.2,82.8,76.7z"/>
		<path fill="#FFFFFF" d="M96,73.7l2.8-0.5c0.1,0,0.2,0,0.3,0.1c0.1,0.1,0.1,0.2,0.2,0.4c0.1,0.6,0.3,1.5,0.3,2.8
			c0.1,1.3,0.2,2.6,0.2,3.8c0.1,1.3,0.2,2.1,0.3,2.5c0.1,0.4,0.2,0.6,0.3,0.7c0.1,0.1,0.2,0.1,0.4,0.1c0.2,0,0.4-0.3,0.8-0.7
			c0.4-0.4,0.6-0.8,0.7-1c0.1-0.2,0.2-0.3,0.3-0.4c0.2,0,0.3,0.1,0.3,0.3c0.1,0.6-0.2,1.5-1.2,2.7c-0.3,0.4-0.7,0.8-1.2,1.2
			c-0.5,0.4-1,0.6-1.6,0.8c-1,0.2-1.7-0.2-2.2-1.4c-0.3,1.4-1,2.2-2,2.4c-0.7,0.2-1.4,0-2.1-0.5c-0.7-0.6-1.3-1.7-1.7-3.3
			c-0.4-1.7-0.6-3.3-0.4-4.8c0.1-1.7,0.6-2.9,1.4-3.8c0.4-0.5,0.9-0.8,1.5-0.9c0.9-0.2,1.7,0,2.4,0.8c0,0,0-0.1-0.1-0.2l-0.1-0.5
			C95.5,74.1,95.6,73.8,96,73.7z M95.5,84.3c0.7-0.2,1.1-1.5,1-3.8c0-1.1-0.1-1.9-0.3-2.6s-0.3-1.1-0.5-1.3
			c-0.2-0.2-0.4-0.3-0.7-0.2c-0.3,0.1-0.6,0.5-0.8,1.1c-0.2,0.7-0.3,1.5-0.3,2.4c0,0.9,0.1,1.7,0.3,2.4c0.2,0.7,0.4,1.2,0.6,1.5
			C95,84.3,95.2,84.4,95.5,84.3z"/>
		<path fill="#FFFFFF" d="M101.8,72.6l2.7-0.8c0.1,0,0.2,0,0.3,0.1c0.1,0.1,0.1,0.2,0.2,0.3c0,0.1,0.1,0.3,0.1,0.5
			c0,0.2,0.1,0.5,0.1,0.9c0,0.3,0.1,0.6,0.1,0.7c0.1-0.8,0.3-1.5,0.7-2.2c0.3-0.7,0.6-1,1-1.1c0.7-0.2,1.2,0,1.4,0.7
			c0.2,0.6,0.3,1.4,0.3,2.3c0,0.9,0,1.6-0.1,1.9c-0.1,0.1-0.1,0.2-0.3,0.3c-0.1,0-0.3,0-0.4-0.1c-0.7-0.6-1.3-0.8-1.8-0.6
			c-0.2,0.1-0.4,0.1-0.5,0.2c0.1,1.1,0.3,2.7,0.4,4.7c0.2,2.1,0.3,3.3,0.3,3.5c0,0.4,0,0.6-0.2,0.6c-0.6,0.1-1.2,0.4-1.8,0.7
			c-0.6,0.3-1,0.4-1.1,0.5c-0.1,0-0.2,0-0.3-0.1c-0.1-0.1-0.1-0.2-0.2-0.3c0-0.1-0.1-0.7-0.2-1.6c-0.1-0.9-0.1-1.9-0.2-3
			c-0.1-1.1-0.2-2.3-0.3-3.5c-0.1-1.3-0.3-2.3-0.5-3.1l-0.1-0.4C101.3,73,101.4,72.7,101.8,72.6z"/>
		<path fill="#FFFFFF" d="M113.5,69.7l1.4-0.8c0.3-0.1,0.5,0.1,0.6,0.6c0.1,0.4,0.1,0.8-0.2,0.9c-0.2,0.2-0.8,0.5-1.7,0.9
			c0,0.7,0.1,1.7,0.1,3c0.1,2.6,0.2,4.2,0.3,4.7c0.1,0.5,0.4,0.8,0.7,0.7c1.1-0.3,2-0.9,2.7-1.9c0.1-0.1,0.2-0.2,0.3-0.2
			c0.1,0,0.2,0.1,0.3,0.3c0.1,0.3,0,0.5-0.1,0.8c-0.4,0.9-1.1,1.7-2.1,2.5c-1,0.8-2,1.3-3,1.6c-0.6,0.1-1,0.1-1.4-0.2
			c-0.4-0.3-0.7-0.7-0.8-1.3c-0.2-0.6-0.2-1.8-0.3-3.6c0-2-0.1-3.7-0.3-5.2c-0.2,0.1-0.4,0.1-0.5,0.2c-0.2,0.1-0.4-0.1-0.5-0.5
			c-0.1-0.3-0.1-0.5,0-0.6c0.1-0.1,0.1-0.2,0.2-0.3c0.1-0.1,0.1-0.1,0.2-0.1c0.1,0,0.1-0.1,0.2-0.1c0.1,0,0.2-0.1,0.2-0.1
			c-0.1-0.6-0.2-1.2-0.4-1.7l-0.1-0.4c-0.1-0.3,0.1-0.6,0.5-0.9c0.1-0.1,0.6-0.4,1.3-0.9c0.7-0.6,1.1-0.8,1.3-0.9
			c0.3-0.1,0.5,0.1,0.6,0.5C113.3,67.6,113.4,68.5,113.5,69.7z"/>
		<path fill="#FFFFFF" d="M129,74.8c0.1,0,0.3,0.1,0.3,0.3c0.1,0.3,0.1,0.5,0,0.8c-0.1,0.2-0.2,0.5-0.5,0.9
			c-0.2,0.3-0.5,0.7-0.8,1.1c-0.3,0.4-0.7,0.8-1.2,1.2c-0.5,0.4-1,0.6-1.5,0.7c-1.2,0.3-1.9-0.1-2.1-1.1c-0.2-0.7-0.3-1.9-0.3-3.8
			c-0.1-1.8-0.2-3.1-0.3-3.7c-0.2-0.7-0.5-1-1.1-0.8c-0.2,0.1-0.5,0.2-0.8,0.4c0.1,1.1,0.3,2.8,0.5,5.1c0.2,2.4,0.3,3.7,0.3,4
			c0,0.3,0,0.5-0.2,0.5l-3,0.9c0,0-0.1,0-0.2-0.1c-0.1-0.1-0.1-0.2-0.2-0.3c0-0.1-0.1-0.7-0.1-1.6c-0.1-0.9-0.1-1.9-0.2-2.9
			c-0.1-1.1-0.2-2.2-0.3-3.4c-0.1-1.2-0.3-2.3-0.5-3l-0.1-0.4c-0.1-0.4,0-0.6,0.4-0.7l2.7-0.8c0.1,0,0.2,0,0.3,0.1
			c0.1,0.1,0.1,0.2,0.2,0.4c0,0.2,0.1,0.5,0.2,0.9c1.1-1.5,2.1-2.3,3-2.6c0.4-0.1,0.8,0,1.2,0.3c0.5,0.4,0.8,1,1.1,1.9
			c0.2,0.9,0.4,2.2,0.4,3.9c0,1.6,0.1,2.6,0.2,3c0.2,0.7,0.4,1,0.7,1c0.2,0,0.5-0.3,0.8-0.7c0.4-0.4,0.6-0.7,0.8-0.9
			C128.8,74.9,128.9,74.8,129,74.8z"/>
		<path fill="#FFFFFF" d="M138.1,72.4c0.1,0,0.2,0.1,0.3,0.3c0.1,0.3,0,0.5-0.1,0.8c-0.1,0.3-0.3,0.5-0.5,0.9
			c-0.2,0.3-0.5,0.7-0.9,1.2c-0.9,1-2.1,1.8-3.5,2.1c-2.6,0.7-4.4-0.6-5.2-3.8c-0.4-1.6-0.5-3-0.3-4.4c0.2-1.3,0.6-2.4,1.3-3.3
			c0.7-0.9,1.5-1.4,2.5-1.7c1-0.3,1.8-0.1,2.4,0.3c0.6,0.5,1.1,1.3,1.3,2.3c0.3,1.1,0.3,2,0,2.9c-0.3,0.8-0.7,1.5-1.4,2
			c-0.7,0.5-1.4,1-2.4,1.4c0.4,1.2,1,1.8,1.9,1.9c0.2,0,0.5,0,0.7-0.1c0.9-0.2,2.1-1.1,3.5-2.7C138,72.5,138.1,72.4,138.1,72.4z
			 M131.5,72.1c0.6-0.5,1-1.3,1.2-2.1c0.2-0.9,0.2-1.8-0.1-2.9c-0.1-0.3-0.2-0.5-0.3-0.6c-0.1-0.1-0.3-0.2-0.5-0.1
			c-0.2,0-0.3,0.3-0.5,0.6c-0.1,0.4-0.2,0.8-0.2,1.4C131.1,69.5,131.2,70.8,131.5,72.1z"/>
		<path fill="#FFFFFF" d="M137.4,63.4l2.7-0.8c0.1,0,0.2,0,0.3,0.1c0.1,0.1,0.1,0.2,0.2,0.3c0,0.1,0.1,0.3,0.1,0.5
			c0,0.2,0.1,0.5,0.1,0.9c0,0.3,0.1,0.6,0.1,0.7c0.1-0.8,0.3-1.5,0.7-2.2s0.6-1,1-1.1c0.7-0.2,1.2,0,1.4,0.7
			c0.2,0.6,0.3,1.4,0.3,2.3c0,0.9,0,1.6-0.1,1.9c-0.1,0.1-0.1,0.2-0.3,0.3c-0.1,0-0.3,0-0.4-0.1c-0.7-0.6-1.3-0.8-1.8-0.6
			c-0.2,0.1-0.4,0.1-0.5,0.2c0.1,1.1,0.3,2.7,0.4,4.7c0.2,2.1,0.3,3.3,0.3,3.5c0,0.4,0,0.6-0.2,0.6c-0.6,0.1-1.2,0.4-1.8,0.7
			c-0.6,0.3-1,0.4-1.1,0.5c-0.1,0-0.2,0-0.3-0.1c-0.1-0.1-0.1-0.2-0.2-0.3c0-0.1-0.1-0.7-0.2-1.6c-0.1-0.9-0.1-1.9-0.2-3
			c-0.1-1.1-0.2-2.3-0.3-3.5c-0.1-1.3-0.3-2.3-0.5-3.1l-0.1-0.4C136.8,63.8,137,63.5,137.4,63.4z"/>
	</g>
	<g>
		<path fill="#0B6300" d="M99,16.8c0-0.2,0-0.4-0.1-0.6l-0.4-0.6c0-0.1-0.1-0.1-0.1-0.2s0-0.1,0.1-0.1h1.9c0,0,0.1,0.1,0.1,0.1
			s-0.1,0.1-0.1,0.2l-0.4,0.6c-0.1,0.1-0.1,0.3-0.1,0.6v13h0.5c0.1,0,0.3-0.1,0.3-0.3l0.8-4c0-0.1,0-0.1,0.1-0.1
			c0,0,0.1,0.1,0.1,0.1v5.1c0,0.2,0,0.3-0.1,0.3h-3c0,0-0.1-0.1-0.1-0.1c0-0.1,0.1-0.1,0.1-0.2l0.4-0.6c0.1-0.1,0.1-0.3,0.1-0.6
			V16.8z"/>
		<path fill="#0B6300" d="M105.3,27.3c0-0.1,0-0.2-0.1-0.2h-0.9c0,0-0.1,0.1-0.1,0.1l-0.2,2.3c0,0.1,0,0.3,0.1,0.4l0.3,0.5
			c0,0.1,0.1,0.2,0.1,0.2c0,0.1,0,0.1-0.1,0.1H103c0,0-0.1-0.1-0.1-0.1c0-0.1,0-0.1,0.1-0.2l0.3-0.6c0.1-0.1,0.1-0.3,0.1-0.5
			l1.1-13.9c0-0.1,0-0.2,0.1-0.2h0.5c0.1,0,0.1,0.1,0.1,0.2l1.2,13.8c0,0.2,0,0.4,0.1,0.6l0.4,0.5c0,0.1,0.1,0.1,0.1,0.2
			c0,0.1,0,0.1-0.1,0.1h-1.8c-0.1,0-0.1-0.1-0.1-0.1c0-0.1,0-0.1,0.1-0.2l0.3-0.6c0-0.1,0.1-0.2,0.1-0.4L105.3,27.3z M105.1,26
			c0,0,0.1-0.1,0-0.1l-0.4-5.1h0l-0.4,5.1c0,0.1,0,0.1,0,0.1H105.1z"/>
		<path fill="#0B6300" d="M109.5,29.3c0,0.2,0,0.4,0.1,0.6l0.4,0.6c0,0.1,0.1,0.1,0.1,0.2c0,0.1,0,0.1-0.1,0.1h-1.9
			c0,0-0.1-0.1-0.1-0.1c0-0.1,0.1-0.1,0.1-0.2l0.4-0.6c0.1-0.1,0.1-0.3,0.1-0.6V16.8c0-0.2,0-0.4-0.1-0.6l-0.4-0.6
			c0-0.1-0.1-0.1-0.1-0.2s0-0.1,0.1-0.1h1.5c1.3,0,1.9,1.1,1.9,3.8c0,2.3-0.5,3.2-0.9,3.7c0.4,0.4,0.8,1.2,0.8,2.3v4.3
			c0,0.1,0,0.3,0.1,0.4l0.4,0.7c0,0.1,0.1,0.2,0.1,0.2c0,0.1-0.1,0.1-0.1,0.1h-0.6c-0.6,0-0.8-0.6-0.8-1.3V25c0-0.9-0.3-1.6-0.8-1.6
			h-0.2V29.3z M109.5,22.4h0.2c0.6,0,0.8-0.8,0.8-3.3c0-2.1-0.2-2.8-0.8-2.8h-0.2V22.4z"/>
		<path fill="#0B6300" d="M115.5,24.2c0-0.2,0-0.3-0.1-0.5l-0.3-0.5c0-0.1-0.1-0.1-0.1-0.2c0-0.1,0-0.1,0.1-0.1h1.8
			c0,0,0.1,0,0.1,0.1c0,0.1,0,0.1-0.1,0.2l-0.4,0.5c-0.1,0.1-0.1,0.2-0.1,0.5v6.5c0,0.1,0,0.1-0.1,0.1c0,0-0.1,0-0.1-0.1l-0.4-0.6
			c0-0.1-0.1-0.1-0.1-0.1c0,0-0.1,0-0.1,0.1c-0.3,0.4-0.5,0.6-0.8,0.6c-1.5,0-1.6-4.7-1.6-8.1c0-2.5,0.1-7.3,1.6-7.3
			c0.4,0,0.7,0.3,0.8,0.5c0,0.1,0.1,0.1,0.2,0.1c0.1,0,0.2-0.1,0.3-0.3c0.1-0.2,0.2-0.3,0.2-0.3s0.1,0.1,0.1,0.4v5
			c0,0.1,0,0.1-0.1,0.1c0,0-0.1-0.1-0.1-0.2c-0.3-1.5-0.8-4.2-1.3-4.2c-0.5,0-0.7,2-0.7,6.3c0,5.9,0.1,7.1,0.6,7.1
			c0.4,0,0.7-0.8,0.7-2.7V24.2z"/>
		<path fill="#0B6300" d="M119.5,22.3h0.3c0.1,0,0.1,0,0.1-0.1l0.4-1.4c0-0.1,0-0.1,0.1-0.1c0,0,0,0,0,0.1v4.4c0,0.1,0,0.1,0,0.1
			c0,0-0.1-0.1-0.1-0.1l-0.4-1.5c0-0.1-0.1-0.1-0.1-0.1h-0.3v6.3h0.7c0.2,0,0.3-0.1,0.3-0.4l0.7-4c0-0.1,0-0.1,0.1-0.1
			c0,0,0.1,0.1,0.1,0.1v5.2c0,0.1,0,0.2-0.1,0.2h-3.2c0,0-0.1-0.1-0.1-0.1c0-0.1,0.1-0.1,0.1-0.2l0.4-0.6c0.1-0.1,0.1-0.3,0.1-0.6
			V16.8c0-0.2,0-0.4-0.1-0.6l-0.4-0.6c0-0.1-0.1-0.1-0.1-0.2s0-0.1,0.1-0.1h3.2c0,0,0.1,0.1,0.1,0.2v5.1c0,0.1,0,0.1-0.1,0.1
			c0,0-0.1-0.1-0.1-0.1l-0.7-3.9c0-0.3-0.2-0.4-0.3-0.4h-0.7V22.3z"/>
	</g>
</g>
<g id="Layer_3">
</g>
</svg>
