<?xml version="1.0" encoding="utf-8"?>
<!-- Generator: Adobe Illustrator 18.1.0, SVG Export Plug-In . SVG Version: 6.00 Build 0)  -->
<svg version="1.1" xmlns="http://www.w3.org/2000/svg" xmlns:xlink="http://www.w3.org/1999/xlink" x="0px" y="0px"
	 viewBox="0 0 220 120" enable-background="new 0 0 220 120" xml:space="preserve">
<g id="Format__x2F__Guides">
</g>
<g id="Logos">
	<g>
		<g>
			<path fill="#808080" d="M37.7,49.4l2.9,1.4c-0.8,1.4-1.8,2.6-3,3.5c-1.3,0.9-2.6,1.5-4.1,1.8c-2.3,0.4-4.3,0.1-6-1
				c-1.7-1.1-2.8-2.6-3.2-4.7c-0.5-2.5,0.2-4.9,2-7.2s4.1-3.7,7-4.2c2-0.4,3.5,0,4.8,1l0.1-1.6l2.6-0.5l-0.2,5.5l-2.6,0.5
				c-0.6-1.7-2-2.4-4.1-2c-1.7,0.3-3.1,1.3-4.1,2.9s-1.4,3.3-1.1,5.1c0.2,1.2,0.7,2,1.6,2.6c0.8,0.6,1.8,0.8,2.9,0.6
				C34.9,52.8,36.5,51.5,37.7,49.4z"/>
			<path fill="#808080" d="M52.1,52.6c-2,0.4-3.8,0.1-5.4-0.9c-1.6-1-2.5-2.5-2.9-4.4c-0.5-2.6,0.1-5.1,1.7-7.5s3.8-3.8,6.7-4.4
				c2.2-0.4,4.1-0.1,5.7,0.9c1.6,1,2.5,2.5,2.9,4.4c0.5,2.7-0.1,5.3-1.7,7.6C57.3,50.6,55,52.1,52.1,52.6z M56.4,41.2
				c-0.2-1-0.7-1.8-1.4-2.3c-0.8-0.5-1.6-0.7-2.6-0.5c-1.6,0.3-2.8,1.3-3.6,3.1c-0.7,1.8-1,3.5-0.6,5.3c0.2,1.1,0.7,1.9,1.4,2.4
				c0.7,0.5,1.6,0.7,2.7,0.5c1.7-0.3,2.9-1.4,3.6-3.2C56.5,44.7,56.7,42.9,56.4,41.2z"/>
			<path fill="#808080" d="M63.8,50.2l0.1-2.6l1.6-0.3L66,35.8l-1.6,0.3l0.1-2.6l7.1-1.3l3.2,9.4l4.1-10.8l7.4-1.4L86.1,32l-1.2,0.2
				l-0.5,11.5l1.7-0.3L86,46l-7,1.3l0.1-2.6l1.5-0.3l0.5-11.5L80.8,33l-5.7,15.1l-1.7,0.3l-4.4-13.2l-0.4,0.1l-0.5,11.5l1.5-0.3
				l-0.1,2.6L63.8,50.2z"/>
			<path fill="#808080" d="M89.1,45.4l0.1-2.6l1.6-0.3L91.3,31l-1.6,0.3l0.1-2.6l7.1-1.3l3.2,9.4l4.1-10.8l7.4-1.4l-0.1,2.6
				l-1.2,0.2l-0.5,11.5l1.7-0.3l-0.1,2.6l-7,1.3l0.1-2.6l1.5-0.3l0.5-11.5l-0.3,0.1l-5.7,15.1l-1.7,0.3l-4.4-13.2l-0.4,0.1L93.4,42
				l1.5-0.3l-0.1,2.6L89.1,45.4z"/>
			<path fill="#808080" d="M115.5,26.5l0.1-2.6l7-1.3l-0.1,2.6l-1.6,0.3l-0.4,8.3c0,0.4,0,0.7,0.1,1c0.2,1.3,1.1,1.8,2.6,1.6
				c0.8-0.2,1.4-0.6,1.9-1.3c0.4-0.7,0.6-1.7,0.7-3.1l0.3-7.5l-1.5,0.3l0.1-2.6l5.5-1l-0.1,2.6l-1.2,0.2l-0.3,8.4
				c-0.1,2-0.6,3.6-1.5,4.7c-0.9,1.1-2.3,1.9-4.1,2.2c-1.4,0.3-2.8,0.2-4-0.3c-1.2-0.5-2-1.5-2.3-3.1c-0.1-0.6-0.2-1.3-0.1-2.1
				l0.3-7.6L115.5,26.5z"/>
			<path fill="#808080" d="M132.4,37.3l0.1-2.6l1.5-0.3l0.5-11.5l-1.5,0.3l0.1-2.6l6-1.1l5.8,10.4l0.3-9l-1.5,0.3l0.1-2.6l5.8-1.1
				l-0.1,2.6l-1.5,0.3l-0.6,14.3l-3.5,0.7l-6.6-12.1l-0.4,10.7l1.7-0.3l-0.1,2.6L132.4,37.3z"/>
			<path fill="#808080" d="M151.8,33.6l0.1-2.6l2-0.4l0.5-11.5l-2.3,0.4l0.1-2.6l8.1-1.5l-0.1,2.6l-1.8,0.3L158,29.8l2.3-0.4
				l-0.1,2.6L151.8,33.6z"/>
			<path fill="#808080" d="M166,31l0.1-2.6L168,28l0.5-11.5l-2.5,0.5l-0.1,3.9l-2.6,0.5l0.3-6.5l14.3-2.7l-0.3,6.5l-2.6,0.5l0.2-3.9
				l-2.5,0.5l-0.5,11.5l1.8-0.3l-0.1,2.6L166,31z"/>
			<path fill="#808080" d="M183,27.8l0.1-2.6l1.5-0.3l0.2-4.6l-4-6.1l-1.6,0.3l0.1-2.6l6.7-1.3l-0.1,2.6l-1.3,0.2l2.5,4.1l2.9-5.2
				l-1.3,0.2l0.1-2.6l6.4-1.2l-0.1,2.6l-1.5,0.3l-4.8,7.7l-0.2,4.6l1.6-0.3l-0.1,2.6L183,27.8z"/>
		</g>
		<g>
			<path fill="#0B6300" stroke="#FFFFFF" stroke-width="0.5" stroke-miterlimit="10" d="M35.1,49.9l2.9,1.4c-0.8,1.4-1.8,2.6-3,3.5
				c-1.3,0.9-2.6,1.5-4.1,1.8c-2.3,0.4-4.3,0.1-6-1c-1.7-1.1-2.8-2.6-3.2-4.7c-0.5-2.5,0.2-4.9,2-7.2s4.1-3.7,7-4.2
				c2-0.4,3.5,0,4.8,1l0.1-1.6l2.6-0.5L37.9,44l-2.6,0.5c-0.6-1.7-2-2.4-4.1-2c-1.7,0.3-3.1,1.3-4.1,2.9s-1.4,3.3-1.1,5.1
				c0.2,1.2,0.7,2,1.6,2.6c0.8,0.6,1.8,0.8,2.9,0.6C32.4,53.3,33.9,52.1,35.1,49.9z"/>
			<path fill="#0B6300" stroke="#FFFFFF" stroke-width="0.5" stroke-miterlimit="10" d="M49.6,53.2c-2,0.4-3.8,0.1-5.4-0.9
				c-1.6-1-2.5-2.5-2.9-4.4c-0.5-2.6,0.1-5.1,1.7-7.5s3.8-3.8,6.7-4.4c2.2-0.4,4.1-0.1,5.7,0.9c1.6,1,2.5,2.5,2.9,4.4
				c0.5,2.7-0.1,5.3-1.7,7.6C54.8,51.2,52.5,52.6,49.6,53.2z M53.8,41.7c-0.2-1-0.7-1.8-1.4-2.3c-0.8-0.5-1.6-0.7-2.6-0.5
				c-1.6,0.3-2.8,1.3-3.6,3.1c-0.7,1.8-1,3.5-0.6,5.3c0.2,1.1,0.7,1.9,1.4,2.4c0.7,0.5,1.6,0.7,2.7,0.5c1.7-0.3,2.9-1.4,3.6-3.2
				C54,45.2,54.1,43.5,53.8,41.7z"/>
			<path fill="#0B6300" stroke="#FFFFFF" stroke-width="0.5" stroke-miterlimit="10" d="M61.3,50.8l0.1-2.6l1.6-0.3l0.5-11.5
				l-1.6,0.3L62,34l7.1-1.3l3.2,9.4l4.1-10.8l7.4-1.4l-0.1,2.6l-1.2,0.2l-0.5,11.5l1.7-0.3l-0.1,2.6l-7,1.3l0.1-2.6L78,45l0.5-11.5
				l-0.3,0.1l-5.7,15.1L70.8,49l-4.4-13.2L66,35.9l-0.5,11.5l1.5-0.3l-0.1,2.6L61.3,50.8z"/>
			<path fill="#0B6300" stroke="#FFFFFF" stroke-width="0.5" stroke-miterlimit="10" d="M86.6,46l0.1-2.6l1.6-0.3l0.5-11.5l-1.6,0.3
				l0.1-2.6l7.1-1.3l3.2,9.4l4.1-10.8l7.4-1.4l-0.1,2.6l-1.2,0.2l-0.5,11.5l1.7-0.3l-0.1,2.6l-7,1.3l0.1-2.6l1.5-0.3l0.5-11.5
				l-0.3,0.1l-5.7,15.1l-1.7,0.3L91.7,31l-0.4,0.1l-0.5,11.5l1.5-0.3l-0.1,2.6L86.6,46z"/>
			<path fill="#0B6300" stroke="#FFFFFF" stroke-width="0.5" stroke-miterlimit="10" d="M112.9,27l0.1-2.6l7-1.3l-0.1,2.6l-1.6,0.3
				l-0.4,8.3c0,0.4,0,0.7,0.1,1c0.2,1.3,1.1,1.8,2.6,1.6c0.8-0.2,1.4-0.6,1.9-1.3c0.4-0.7,0.6-1.7,0.7-3.1l0.3-7.5l-1.5,0.3l0.1-2.6
				l5.5-1l-0.1,2.6l-1.2,0.2l-0.3,8.4c-0.1,2-0.6,3.6-1.5,4.7c-0.9,1.1-2.3,1.9-4.1,2.2c-1.4,0.3-2.8,0.2-4-0.3
				c-1.2-0.5-2-1.5-2.3-3.1c-0.1-0.6-0.2-1.3-0.1-2.1l0.3-7.6L112.9,27z"/>
			<path fill="#0B6300" stroke="#FFFFFF" stroke-width="0.5" stroke-miterlimit="10" d="M129.8,37.8l0.1-2.6l1.5-0.3l0.5-11.5
				l-1.5,0.3l0.1-2.6l6-1.1l5.8,10.4l0.3-9l-1.5,0.3l0.1-2.6L147,18l-0.1,2.6l-1.5,0.3l-0.6,14.3l-3.5,0.7l-6.6-12.1l-0.4,10.7
				l1.7-0.3l-0.1,2.6L129.8,37.8z"/>
			<path fill="#0B6300" stroke="#FFFFFF" stroke-width="0.5" stroke-miterlimit="10" d="M149.3,34.2l0.1-2.6l2-0.4l0.5-11.5
				l-2.3,0.4l0.1-2.6l8.1-1.5l-0.1,2.6l-1.8,0.3l-0.5,11.5l2.3-0.4l-0.1,2.6L149.3,34.2z"/>
			<path fill="#0B6300" stroke="#FFFFFF" stroke-width="0.5" stroke-miterlimit="10" d="M163.5,31.5l0.1-2.6l1.8-0.3l0.5-11.5
				l-2.5,0.5l-0.1,3.9l-2.6,0.5l0.3-6.5l14.3-2.7l-0.3,6.5l-2.6,0.5l0.2-3.9l-2.5,0.5l-0.5,11.5l1.8-0.3l-0.1,2.6L163.5,31.5z"/>
			<path fill="#0B6300" stroke="#FFFFFF" stroke-width="0.5" stroke-miterlimit="10" d="M180.4,28.3l0.1-2.6l1.5-0.3l0.2-4.6l-4-6.1
				l-1.6,0.3l0.1-2.6l6.7-1.3l-0.1,2.6l-1.3,0.2l2.5,4.1l2.9-5.2l-1.3,0.2l0.1-2.6l6.4-1.2l-0.1,2.6l-1.5,0.3l-4.8,7.7l-0.2,4.6
				l1.6-0.3l-0.1,2.6L180.4,28.3z"/>
		</g>
	</g>
	<g>
		<g>
			<path fill="#808080" d="M22.3,110.7l0.2-2.8l2-0.4l1.2-12.3l-2.4,0.4l0.3-2.8l9-1.7c2.5-0.5,4.5-0.4,6,0.3
				c1.5,0.6,2.3,1.8,2.6,3.4c0.3,1.7-0.2,3.2-1.4,4.5c-1.2,1.3-3.4,2.3-6.6,2.9l-3,0.6l-0.4,3.7l2.5-0.5l-0.2,2.8L22.3,110.7z
				 M30.5,100.1l1.8-0.3c1.3-0.2,2.3-0.7,2.9-1.5c0.6-0.8,0.8-1.6,0.6-2.6c-0.3-1.4-1.4-1.9-3.3-1.6L31,94.3L30.5,100.1z"/>
			<path fill="#808080" d="M45.4,106.5l0.3-2.8l2-0.4l5.8-13.1l-2,0.4l0.2-2.8l12.1-2.2l-0.2,2.8l-1.8,0.3l2.8,11.6l2.2-0.4
				l-0.3,2.8l-8.7,1.6l0.3-2.8l1.9-0.4l-0.5-2.8L53,99.4l-1.2,3.2l1.9-0.4l-0.3,2.8L45.4,106.5z M58.8,95.8l-1.4-6.5l-0.2,0l-3,7.3
				L58.8,95.8z"/>
			<path fill="#808080" d="M72.9,101.4l0.3-2.8l2.1-0.4L76.4,86l-2.1,0.4l0.2-2.8l10.9-2c1.9-0.4,3.5-0.2,4.7,0.5
				c1.2,0.7,2,1.7,2.2,3c0.2,1.1,0,2.2-0.7,3.2c-0.7,1-1.8,1.8-3.3,2.2l2.7,4.8l2.1-0.4L93,97.7l-5.3,1L84,91.6L81,92.1l-0.5,5.1
				l2-0.4l-0.3,2.8L72.9,101.4z M81.3,89.8l2.3-0.4c2.6-0.5,3.8-1.6,3.5-3.4c-0.1-0.6-0.4-1-0.9-1.3c-0.5-0.3-1.2-0.3-1.9-0.2
				L81.7,85L81.3,89.8z"/>
			<path fill="#808080" d="M104.2,95.7l0.3-2.8l2.4-0.4l1.2-12.3l-3.3,0.6l-0.4,4.2l-3.4,0.6l0.7-7l18.6-3.4l-0.7,7l-3.4,0.6
				l0.4-4.2l-3.3,0.6l-1.2,12.3l2.4-0.4l-0.3,2.8L104.2,95.7z"/>
			<path fill="#808080" d="M127.5,91.4l0.3-2.8l2-0.4l1.2-12.3l-2,0.4l0.3-2.8l7.8-1.4l7,10.9l0.9-9.6l-2,0.4l0.3-2.8l7.6-1.4
				l-0.3,2.8l-2,0.4L147,88l-4.6,0.8l-8-12.7l-1.1,11.4l2.2-0.4l-0.3,2.8L127.5,91.4z"/>
			<path fill="#808080" d="M158.1,85.8l0.3-2.8l2-0.4l1.2-12.3l-2,0.4l0.2-2.8l17.1-3.1l-0.6,5.7l-3.9,0.7l0.3-2.9l-5.9,1.1
				l-0.4,4.6l4.9-0.9l-0.3,2.8l-4.9,0.9l-0.5,4.9l6-1.1l0.3-2.8l3.8-0.7l-0.6,5.6L158.1,85.8z"/>
			<path fill="#808080" d="M183.8,81.1l0.3-2.8l2.1-0.4l1.2-12.3l-2.1,0.4l0.2-2.8l10.9-2c1.9-0.4,3.5-0.2,4.7,0.5
				c1.2,0.7,2,1.7,2.2,3c0.2,1.1,0,2.2-0.7,3.2c-0.7,1-1.8,1.8-3.3,2.2l2.7,4.8l2.1-0.4l-0.3,2.8l-5.3,1l-3.7-7.1l-2.9,0.5l-0.5,5.2
				l2-0.4l-0.3,2.8L183.8,81.1z M192.2,69.4l2.3-0.4c2.6-0.5,3.8-1.6,3.5-3.4c-0.1-0.6-0.4-1-0.9-1.3c-0.5-0.3-1.2-0.3-1.9-0.2
				l-2.4,0.4L192.2,69.4z"/>
		</g>
		<g>
			<path fill="#0B6300" stroke="#FFFFFF" stroke-width="0.5" stroke-miterlimit="10" d="M18.9,111.3l0.2-2.8l2-0.4l1.2-12.3L20,96.3
				l0.3-2.8l9-1.7c2.5-0.5,4.5-0.4,6,0.3c1.5,0.6,2.3,1.8,2.6,3.4c0.3,1.7-0.2,3.2-1.4,4.5c-1.2,1.3-3.4,2.3-6.6,2.9l-3,0.6
				l-0.4,3.7l2.5-0.5l-0.2,2.8L18.9,111.3z M27.1,100.6l1.8-0.3c1.3-0.2,2.3-0.7,2.9-1.5c0.6-0.8,0.8-1.6,0.6-2.6
				c-0.3-1.4-1.4-1.9-3.3-1.6l-1.4,0.3L27.1,100.6z"/>
			<path fill="#0B6300" stroke="#FFFFFF" stroke-width="0.5" stroke-miterlimit="10" d="M42,107.1l0.3-2.8l2-0.4l5.8-13.1l-2,0.4
				l0.2-2.8l12.1-2.2l-0.2,2.8l-1.8,0.3l2.8,11.6l2.2-0.4l-0.3,2.8l-8.7,1.6l0.3-2.8l1.9-0.4L56,98.8l-6.4,1.2l-1.2,3.2l1.9-0.4
				l-0.3,2.8L42,107.1z M55.4,96.4L54,89.9l-0.2,0l-3,7.3L55.4,96.4z"/>
			<path fill="#0B6300" stroke="#FFFFFF" stroke-width="0.5" stroke-miterlimit="10" d="M69.5,102l0.3-2.8l2.1-0.4L73,86.5L71,86.9
				l0.2-2.8l10.9-2c1.9-0.4,3.5-0.2,4.7,0.5c1.2,0.7,2,1.7,2.2,3c0.2,1.1,0,2.2-0.7,3.2c-0.7,1-1.8,1.8-3.3,2.2l2.7,4.8l2.1-0.4
				l-0.3,2.8l-5.3,1l-3.7-7.1l-2.9,0.5l-0.5,5.1l2-0.4l-0.3,2.8L69.5,102z M77.9,90.4l2.3-0.4c2.6-0.5,3.8-1.6,3.5-3.4
				c-0.1-0.6-0.4-1-0.9-1.3c-0.5-0.3-1.2-0.3-1.9-0.2l-2.4,0.4L77.9,90.4z"/>
			<path fill="#0B6300" stroke="#FFFFFF" stroke-width="0.5" stroke-miterlimit="10" d="M100.8,96.2l0.3-2.8l2.4-0.4l1.2-12.3
				l-3.3,0.6l-0.4,4.2l-3.4,0.6l0.7-7l18.6-3.4l-0.7,7l-3.4,0.6l0.4-4.2l-3.3,0.6L108.9,92l2.4-0.4l-0.3,2.8L100.8,96.2z"/>
			<path fill="#0B6300" stroke="#FFFFFF" stroke-width="0.5" stroke-miterlimit="10" d="M124.1,92l0.3-2.8l2-0.4l1.2-12.3l-2,0.4
				l0.3-2.8l7.8-1.4l7,10.9l0.9-9.6l-2,0.4l0.3-2.8l7.6-1.4l-0.3,2.8l-2,0.4l-1.4,15.2l-4.6,0.8l-8-12.7L130,88.1l2.2-0.4l-0.3,2.8
				L124.1,92z"/>
			<path fill="#0B6300" stroke="#FFFFFF" stroke-width="0.5" stroke-miterlimit="10" d="M154.7,86.4l0.3-2.8l2-0.4l1.2-12.3l-2,0.4
				l0.2-2.8l17.1-3.1L173,71l-3.9,0.7l0.3-2.9l-5.9,1.1l-0.4,4.6l4.9-0.9l-0.3,2.8l-4.9,0.9l-0.5,4.9l6-1.1l0.3-2.8l3.8-0.7
				l-0.6,5.6L154.7,86.4z"/>
			<path fill="#0B6300" stroke="#FFFFFF" stroke-width="0.5" stroke-miterlimit="10" d="M180.4,81.6l0.3-2.8l2.1-0.4l1.2-12.3
				l-2.1,0.4l0.2-2.8l10.9-2c1.9-0.4,3.5-0.2,4.7,0.5c1.2,0.7,2,1.7,2.2,3c0.2,1.1,0,2.2-0.7,3.2c-0.7,1-1.8,1.8-3.3,2.2l2.7,4.8
				l2.1-0.4l-0.3,2.8l-5.3,1l-3.7-7.1l-2.9,0.5l-0.5,5.2l2-0.4l-0.3,2.8L180.4,81.6z M188.8,70l2.3-0.4c2.6-0.5,3.8-1.6,3.5-3.4
				c-0.1-0.6-0.4-1-0.9-1.3c-0.5-0.3-1.2-0.3-1.9-0.2l-2.4,0.4L188.8,70z"/>
		</g>
	</g>
	<polygon fill="#630055" points="21.5,89.3 33.7,74.8 21.5,62.8 197.9,29.9 186.5,45.5 198.2,56.7 	"/>
	<path fill="#630055" d="M32.9,74.9L20.2,62.4L199.4,29l-12,16.5l12.2,11.7L21.6,90l-1.7,0.3L32.9,74.9z M22,89.8l-0.4-0.5L22,89.8z
		 M22.9,63.2l11.7,11.6L23.2,88.3l173.6-32l-11.1-10.7l10.8-14.7L22.9,63.2z"/>
	<polygon fill="#A8CAA0" points="193.6,55.3 26.4,86.5 36.5,74.6 26.3,64.5 193.4,33 183.9,46 	"/>
	<path fill="#A8CAA0" d="M134.6,55.1c1.6,11.8-6.7,22.7-18.5,24.3c-11.8,1.6-22.7-6.7-24.3-18.5c-1.6-11.8,6.7-22.7,18.5-24.3
		C122.1,35,133,43.3,134.6,55.1"/>
	<path fill="#FFFFFF" d="M131.7,55.5c1.4,10.2-5.8,19.6-16,21c-10.2,1.4-19.6-5.8-21-16c-1.4-10.2,5.8-19.6,16-21
		C120.9,38.1,130.3,45.2,131.7,55.5"/>
	<path fill="#630055" d="M94.2,60.6c-1.4-10.5,5.9-20.1,16.4-21.6c10.5-1.4,20.1,5.9,21.6,16.4c1.4,10.5-5.9,20.1-16.4,21.6
		C105.3,78.4,95.6,71,94.2,60.6 M95.2,60.4c1.4,10,10.5,16.9,20.5,15.6c10-1.4,16.9-10.5,15.6-20.5c-1.4-10-10.5-16.9-20.5-15.6
		C100.8,41.3,93.8,50.5,95.2,60.4"/>
	
		<text transform="matrix(0.9833 -0.1822 0.1822 0.9833 42.7 75.2745)" fill="#630055" font-family="'Silverfake'" font-size="8.465">TRADE</text>
	
		<text transform="matrix(0.9833 -0.1822 0.1822 0.9833 140.3753 56.9965)" fill="#630055" font-family="'Silverfake'" font-size="8.465">MARK</text>
	<polygon fill="#DBCE5D" points="21.5,89.3 33.7,74.8 21.5,62.8 197.9,29.9 186.5,45.5 198.2,56.7 	"/>
	<path fill="#5DDB65" d="M32.9,74.9L20.2,62.4L199.4,29l-12,16.5l12.2,11.7L21.6,90l-1.7,0.3L32.9,74.9z M22,89.8l-0.4-0.5L22,89.8z
		 M22.9,63.2l11.7,11.6L23.2,88.3l173.6-32l-11.1-10.7l10.8-14.7L22.9,63.2z"/>
	<polygon fill="#AEECB3" points="193.6,55.3 26.4,86.5 36.5,74.6 26.3,64.5 193.4,33 183.9,46 	"/>
	<path fill="#AEECB3" d="M134.6,55.1c1.6,11.8-6.7,22.7-18.5,24.3c-11.8,1.6-22.7-6.7-24.3-18.5c-1.6-11.8,6.7-22.7,18.5-24.3
		C122.1,35,133,43.3,134.6,55.1"/>
	<path fill="#DBCE5D" d="M131.7,55.5c1.4,10.2-5.8,19.6-16,21c-10.2,1.4-19.6-5.8-21-16c-1.4-10.2,5.8-19.6,16-21
		C120.9,38.1,130.3,45.2,131.7,55.5"/>
	<path fill="#DBCE5D" d="M94.2,60.6c-1.4-10.5,5.9-20.1,16.4-21.6c10.5-1.4,20.1,5.9,21.6,16.4c1.4,10.5-5.9,20.1-16.4,21.6
		C105.3,78.4,95.6,71,94.2,60.6 M95.2,60.4c1.4,10,10.5,16.9,20.5,15.6c10-1.4,16.9-10.5,15.6-20.5c-1.4-10-10.5-16.9-20.5-15.6
		C100.8,41.3,93.8,50.5,95.2,60.4"/>
	<g>
		<path fill="#FFFFFF" d="M105.6,66.5l1.2-5.2h2.3l-0.4,1.7c1,1.1,2.2,1.6,3.6,1.6c1,0,1.8-0.3,2.5-0.9c0.7-0.6,1-1.3,1-2.1
			c0-0.7-0.2-1.4-0.7-1.9c-0.4-0.5-1.3-1.2-2.6-2.1c-1.4-0.9-2.4-1.8-2.9-2.6c-0.5-0.8-0.8-1.8-0.8-2.8c0-1.5,0.5-2.8,1.6-3.7
			s2.4-1.4,4.1-1.4c1.6,0,3,0.5,4,1.6l0.3-1.3h2.3l-1.2,5.2h-2.3l0.3-1.5c-0.4-0.6-0.9-1-1.5-1.4c-0.7-0.3-1.3-0.5-2-0.5
			c-0.9,0-1.6,0.2-2.2,0.7c-0.6,0.5-0.9,1.1-0.9,1.9c0,0.6,0.2,1.2,0.6,1.7c0.4,0.5,1.1,1.2,2.3,1.9c1.2,0.8,2,1.4,2.5,1.8
			c0.5,0.5,0.9,1,1.3,1.7c0.3,0.7,0.5,1.4,0.5,2.2c0,1.7-0.6,3-1.8,4c-1.2,1-2.7,1.5-4.6,1.5c-1.5,0-2.8-0.4-3.9-1.3l-0.2,1H105.6z"
			/>
	</g>
</g>
<g id="Layer_3">
</g>
</svg>
