<?xml version="1.0" encoding="utf-8"?>
<!-- Generator: Adobe Illustrator 18.1.0, SVG Export Plug-In . SVG Version: 6.00 Build 0)  -->
<svg version="1.1" id="Layer_1" xmlns="http://www.w3.org/2000/svg" xmlns:xlink="http://www.w3.org/1999/xlink" x="0px" y="0px"
	 viewBox="0 0 500 500" enable-background="new 0 0 500 500" xml:space="preserve">
<path fill="#023C69" d="M158.7,374.7c-18.3,0-33.2-14.9-33.2-33.2c0-18.3,14.8-33.2,33.2-33.2c18.3,0,33.2,14.8,33.2,33.2
	C191.9,359.9,177,374.7,158.7,374.7z M242,374.9c0-31.3-12.1-60.7-34.1-82.8c-22-22.1-51.2-34.2-82.3-34.2v-47.9
	c90.6,0,164.3,74,164.3,165H242z M326.6,375c0-111.4-90.2-202.1-201-202.1V125c137.2,0,248.9,112.1,248.9,250H326.6z"/>
</svg>
