<?xml version="1.0" encoding="utf-8"?>
<!-- Generator: Adobe Illustrator 18.1.0, SVG Export Plug-In . SVG Version: 6.00 Build 0)  -->
<svg version="1.1" id="Layer_1" xmlns="http://www.w3.org/2000/svg" xmlns:xlink="http://www.w3.org/1999/xlink" x="0px" y="0px"
	 viewBox="0 0 500 500" enable-background="new 0 0 500 500" xml:space="preserve">
<g>
	<polygon fill="#023C69" points="374.9,179.4 340.9,179.4 340.9,213.4 323.9,213.4 323.9,179.4 289.9,179.4 289.9,162.4 
		323.9,162.4 323.9,128.4 340.9,128.4 340.9,162.4 374.9,162.4 	"/>
	<g>
		<path fill="#023C69" d="M254.2,268.1c-6.8-5.1-21.7-15.6-21.7-22.7c0-8.3,2.3-12.3,14.8-22c12.7-10,21.8-23.1,21.8-39.4
			c0-17.7-7.2-33.8-20.9-41.7h19.3L284,125c0,0-54.4,0-73.7,0c-37.4,0-68.6,27.6-68.6,57.9c0,31,20.5,55.7,55.6,55.7
			c2.4,0,4.8-0.1,7.1-0.3c-2.3,4.4-3.9,9.3-3.9,14.4c0,8.6,4.7,13.5,10.6,19.2c-4.4,0-8.7,0.1-13.4,0.1c-42.8,0-72.8,29.5-72.8,57.7
			c0,27.9,36.1,45.3,78.9,45.3c48.8,0,78.8-27.7,78.8-55.5C282.9,297.1,278,285.9,254.2,268.1z M169.5,182.4
			c-3.4-26.1,9.9-46,29.7-45.5c19.9,0.6,36.9,22,40.3,48.1c3.4,26.1-8,42.9-27.8,42.3C191.8,226.7,172.9,208.5,169.5,182.4z
			 M203.9,362.7c-29.6,0-51-18.7-51-41.2c0-22.1,25.1-41.1,54.7-40.7c6.9,0.1,13.3,1.2,19.2,3.1c16.1,11.2,29,18.2,32.3,30.9
			c0.6,2.6,0.9,5.2,0.9,7.9C260,345.1,245.5,362.7,203.9,362.7z"/>
	</g>
</g>
</svg>
