<?xml version="1.0" encoding="utf-8"?>
<!-- Generator: Adobe Illustrator 18.1.0, SVG Export Plug-In . SVG Version: 6.00 Build 0)  -->
<svg version="1.1" id="Layer_1" xmlns="http://www.w3.org/2000/svg" xmlns:xlink="http://www.w3.org/1999/xlink" x="0px" y="0px"
	 viewBox="0 0 500 500" enable-background="new 0 0 500 500" xml:space="preserve">
<path fill="#023C69" d="M349.4,199c0.1,2.2,0.2,4.4,0.2,6.6c0,67.8-51.6,145.9-145.9,145.9c-29,0-55.9-8.5-78.6-23
	c4,0.5,8.1,0.7,12.2,0.7c24,0,46.1-8.2,63.7-21.9c-22.4-0.4-41.4-15.3-47.9-35.6c3.1,0.6,6.3,0.9,9.6,0.9c4.7,0,9.2-0.6,13.5-1.8
	c-23.4-4.7-41.1-25.4-41.1-50.3c0-0.2,0-0.4,0-0.6c6.9,3.8,14.8,6.2,23.2,6.4c-13.8-9.2-22.8-24.9-22.8-42.7
	c0-9.4,2.5-18.2,6.9-25.8c25.3,31,63.1,51.5,105.7,53.6c-0.9-3.8-1.3-7.7-1.3-11.7c0-28.3,23-51.3,51.3-51.3
	c14.7,0,28.1,6.2,37.4,16.2c11.7-2.3,22.7-6.6,32.6-12.4c-3.8,12-12,22-22.6,28.4c10.4-1.2,20.3-4,29.5-8.1
	C368.1,182.8,359.4,191.8,349.4,199z"/>
</svg>
