<?xml version="1.0" encoding="utf-8"?>
<!-- Generator: Adobe Illustrator 18.1.0, SVG Export Plug-In . SVG Version: 6.00 Build 0)  -->
<svg version="1.1" id="Layer_1" xmlns="http://www.w3.org/2000/svg" xmlns:xlink="http://www.w3.org/1999/xlink" x="0px" y="0px"
	 viewBox="0 0 500 500" enable-background="new 0 0 500 500" xml:space="preserve">
<path fill="#023C69" d="M391.1,334.3c0,6.3-1.2,10.7-3.7,13.1c-2.4,2.4-6.5,3.6-12.1,3.6H138.5c-4.3,0-7.9-1.2-10.7-3.6
	c-3.4-3-5.1-7.3-5.1-13.1V164.3c0-4.2,1.6-7.7,4.9-10.8c3.3-3,6.9-4.5,10.9-4.5h236.8c5.3,0,9.2,1.4,11.8,4.3
	c2.6,2.8,3.9,6.5,3.9,11.1V334.3L391.1,334.3z M208.6,249.9l-70.2-69.3v140.7L208.6,249.9L208.6,249.9z M364.2,164H149.7l89.8,89.8
	c7.9,7.9,13.7,11.8,17.4,11.8c3.7,0,9.5-3.9,17.4-11.8L364.2,164L364.2,164z M363.6,334.1l-70.5-70.5l-11.5,11.4
	c-6.7,6.7-15,10-24.7,10c-9.7,0-18-3.3-24.7-10l-11.5-11.4l-70.5,70.5H363.6L363.6,334.1z M375.4,321.2V180.6l-70.2,69.3
	L375.4,321.2L375.4,321.2z"/>
</svg>
